<svg xmlns="http://www.w3.org/2000/svg" width="874" height="347" viewBox="0 0 874 347">
<g>
<path d="M 718.57 246.50 C718.21,244.58 717.98,237.35 718.06,230.43 L 718.22 217.86 L 720.86 216.80 C739.90,209.14 749.93,199.38 757.10,181.50 C759.20,176.24 759.49,173.95 759.44,163.00 C759.39,152.20 759.04,149.61 756.90,143.98 C752.06,131.27 742.19,119.69 731.02,113.61 C724.63,110.13 712.18,107.00 704.73,107.00 C693.94,107.00 683.12,110.77 674.07,117.68 L 669.64 121.06 L 657.57 120.78 L 645.50 120.50 L 645.45 118.00 C645.42,116.62 643.94,112.85 642.16,109.62 C640.38,106.38 639.05,103.36 639.21,102.91 C639.75,101.37 659.49,85.02 660.82,85.01 C661.55,85.00 665.06,87.47 668.61,90.48 C673.83,94.91 675.41,95.77 676.79,94.94 C677.73,94.38 681.63,92.93 685.46,91.71 C692.24,89.56 692.44,89.40 693.24,85.50 C693.69,83.30 694.54,79.74 695.11,77.60 L 696.16 73.70 L 709.46 74.34 C716.78,74.69 723.46,75.24 724.31,75.56 C725.40,75.98 726.04,78.30 726.54,83.63 C727.21,90.71 728.68,94.00 731.20,94.00 C731.78,94.00 735.13,95.41 738.63,97.14 L 745.01 100.28 L 750.92 96.14 C754.16,93.86 757.45,92.00 758.22,92.00 C760.55,92.00 779.32,111.74 778.65,113.48 C778.32,114.32 776.19,117.48 773.91,120.50 C771.30,123.95 769.97,126.64 770.31,127.75 C770.61,128.71 771.96,132.65 773.30,136.50 L 775.75 143.50 L 792.50 145.50 L 793.05 175.85 L 787.28 176.94 C776.69,178.93 777.02,178.66 773.68,188.12 L 770.64 196.73 L 775.07 201.45 C777.51,204.05 779.88,206.84 780.34,207.65 C781.43,209.58 778.18,214.34 769.18,224.00 C763.01,230.61 761.97,231.36 760.34,230.28 C759.33,229.61 756.15,227.68 753.28,225.98 L 748.07 222.89 L 741.35 226.95 C737.65,229.18 734.26,231.00 733.81,231.00 C733.37,231.00 733.00,234.79 733.00,239.42 L 733.00 247.83 L 727.95 248.92 C720.00,250.62 719.31,250.44 718.57,246.50 ZM 1.24 155.95 L 1.24 155.93 L 0.98 70.20 L 3.74 69.19 C5.26,68.63 11.90,66.08 18.50,63.53 C25.10,60.97 40.62,55.11 53.00,50.50 C65.38,45.90 82.70,39.36 91.50,35.98 C100.30,32.59 111.68,28.29 116.78,26.42 L 126.06 23.01 L 137.28 26.89 C139.84,27.78 144.25,29.37 149.88,31.42 C134.78,25.99 126.39,23.26 125.80,23.62 C125.36,23.90 125.00,29.73 125.00,36.58 C125.00,48.56 124.91,49.08 122.75,49.99 C121.51,50.50 111.72,54.13 101.00,58.04 C90.28,61.95 77.90,66.49 73.50,68.13 C64.86,71.34 26.30,85.00 24.25,85.58 C23.27,85.86 22.97,97.73 22.88,140.22 C22.81,170.07 22.47,202.60 22.13,212.50 L 21.50 230.50 L 17.66 213.00 C15.54,203.38 12.55,189.43 10.99,182.00 C4.81,152.41 3.73,148.11 2.35,147.58 C1.74,147.35 1.40,149.02 1.24,155.95 ZM 90.00 261.03 C90.00,278.06 89.66,291.98 89.25,291.96 C88.84,291.94 86.57,290.50 84.22,288.76 L 79.94 285.60 L 80.16 239.50 L 74.06 234.10 C70.71,231.13 67.63,229.04 67.23,229.45 C66.83,229.86 69.09,232.51 72.26,235.35 L 78.03 240.50 L 78.00 284.09 L 71.00 278.50 L 70.94 247.50 L 50.18 228.00 L 41.71 228.00 C37.06,228.00 31.84,227.72 30.12,227.38 L 27.00 226.75 L 27.00 213.00 L 32.01 213.00 C34.77,213.00 37.87,213.53 38.90,214.17 C40.38,215.09 41.51,214.99 44.29,213.67 C46.22,212.75 48.75,212.00 49.90,212.00 C51.06,212.00 52.00,211.55 52.00,211.00 C52.00,210.45 50.45,210.00 48.56,210.00 C46.67,210.00 44.84,209.55 44.50,209.00 C43.70,207.70 38.30,207.70 37.50,209.00 C37.16,209.55 34.93,210.00 32.55,210.00 C27.54,210.00 27.00,209.21 27.00,201.92 L 27.00 197.00 L 76.82 197.00 L 81.99 192.91 C84.83,190.67 86.90,188.57 86.58,188.25 C86.26,187.93 84.09,189.20 81.75,191.08 L 77.50 194.50 L 27.50 194.50 L 27.20 189.75 L 26.89 185.00 L 50.20 184.84 C63.01,184.76 74.18,184.73 75.00,184.79 C75.82,184.85 80.55,184.97 85.50,185.06 C90.45,185.15 95.55,185.45 96.82,185.74 C98.96,186.21 98.84,186.40 95.32,188.04 C93.22,189.02 89.03,191.67 86.00,193.93 C82.97,196.19 77.93,199.22 74.78,200.67 C71.64,202.12 69.27,203.63 69.52,204.03 C69.77,204.44 67.00,204.96 63.35,205.19 C54.45,205.76 52.63,207.82 53.19,216.68 C53.82,226.56 54.57,227.00 70.70,227.00 C80.76,227.00 84.84,227.38 87.05,228.53 L 90.00 230.05 ZM 116.50 340.39 C112.73,338.04 108.26,335.16 103.54,332.06 C112.43,337.46 110.52,334.21 98.84,322.19 C72.79,295.40 48.43,268.23 49.51,267.16 C49.77,266.90 50.81,267.43 51.82,268.34 C52.83,269.25 54.01,270.00 54.45,270.00 C54.88,270.00 59.57,273.74 64.87,278.32 C82.74,293.76 102.21,307.58 119.00,316.75 C122.27,318.53 123.97,319.72 125.79,319.93 C128.81,320.29 132.14,317.96 143.47,311.22 C155.87,303.84 167.39,295.72 183.71,282.84 C189.88,277.98 195.39,274.00 195.96,274.00 C198.11,274.00 196.88,277.79 193.34,282.07 C191.32,284.51 183.11,293.25 175.08,301.50 C153.46,323.72 146.05,331.32 146.66,332.03 C146.98,332.40 149.54,330.84 153.43,328.50 C156.63,326.58 159.64,325.00 160.13,325.00 C160.41,325.00 161.59,324.30 163.39,323.12 C156.07,328.16 149.46,332.47 145.48,334.70 C141.61,336.87 135.99,340.30 132.99,342.32 C129.99,344.34 127.07,346.00 126.51,346.00 C125.96,345.99 121.45,343.47 116.50,340.39 ZM 53.33 150.57 L 52.50 157.50 L 40.45 157.78 C33.82,157.93 28.08,157.75 27.70,157.36 C27.31,156.98 27.00,141.65 27.00,123.30 L 27.00 89.93 L 31.75 87.88 C34.36,86.75 37.96,85.58 39.75,85.28 C42.85,84.76 43.00,84.88 43.00,87.93 C43.00,89.80 43.41,90.86 44.00,90.50 C44.55,90.16 45.00,88.58 45.00,87.00 C45.00,84.33 47.94,81.00 50.29,81.00 C50.76,81.00 51.04,86.89 50.91,94.10 L 50.68 107.20 L 60.59 116.23 C66.04,121.20 70.50,125.50 70.50,125.78 C70.50,126.05 68.88,127.31 66.89,128.57 L 63.28 130.85 L 57.93 125.42 C54.98,122.44 51.96,120.00 51.23,120.00 C50.49,120.00 50.13,119.60 50.43,119.11 C51.25,117.79 48.26,115.69 46.51,116.36 C44.41,117.16 44.62,119.25 47.14,122.45 C48.63,124.35 49.89,125.00 51.32,124.63 C52.77,124.25 54.59,125.21 57.46,127.86 L 61.55 131.62 L 58.74 136.06 C57.20,138.50 55.54,140.50 55.05,140.50 C54.57,140.50 50.64,137.12 46.33,133.00 L 38.50 125.50 L 37.83 104.40 L 42.35 98.96 C45.28,95.43 46.46,93.29 45.73,92.83 C45.08,92.43 43.89,93.28 42.93,94.82 C42.02,96.29 40.08,98.59 38.63,99.92 C36.07,102.29 36.00,102.66 36.00,114.42 L 35.99 126.50 L 45.08 135.07 L 54.17 143.63 ZM 125.99 258.75 C125.99,289.69 125.66,314.99 125.25,314.98 C123.27,314.91 106.08,303.43 105.68,301.90 C105.43,300.94 105.16,283.36 105.07,262.83 L 104.92 225.50 L 110.23 222.75 C113.14,221.24 115.89,220.00 116.33,220.00 C117.49,220.00 116.48,254.70 115.17,260.00 C114.55,262.48 113.74,271.60 113.37,280.29 C112.99,288.97 112.30,296.31 111.84,296.60 C110.25,297.58 110.99,301.92 112.93,302.96 C115.87,304.53 116.94,304.24 118.18,301.50 C119.11,299.46 119.01,298.66 117.57,297.08 C116.09,295.44 115.84,293.10 115.87,281.18 C115.90,272.11 116.46,264.81 117.49,260.39 C118.64,255.43 119.06,248.54 119.02,235.04 L 118.98 216.50 L 122.47 209.50 L 125.97 202.50 ZM 567.71 192.38 C567.32,191.99 567.00,177.79 567.00,160.83 L 567.00 130.00 L 578.00 130.00 L 578.00 142.00 C578.00,148.60 578.40,154.00 578.90,154.00 C579.39,154.00 583.78,149.39 588.65,143.76 C597.42,133.61 599.60,130.85 602.30,130.19 C603.54,129.89 604.89,130.04 607.05,130.11 C610.32,130.23 613.00,130.62 613.00,130.98 C613.00,131.35 607.38,137.83 600.50,145.40 C593.62,152.97 588.00,159.56 588.00,160.04 C588.00,160.53 590.62,163.76 593.82,167.21 C600.19,174.09 615.00,191.80 615.00,192.54 C615.00,192.79 612.14,193.00 608.63,193.00 L 602.27 193.00 L 593.38 182.36 C588.50,176.51 583.38,170.23 582.00,168.39 C580.62,166.55 579.18,165.04 578.78,165.03 C578.38,165.01 577.93,171.19 577.78,178.75 L 577.50 192.50 L 572.96 192.80 C570.47,192.96 568.10,192.77 567.71,192.38 ZM 530.99 193.07 C523.81,190.88 517.14,184.98 514.37,178.35 C512.67,174.28 512.58,163.06 514.22,159.30 C518.22,150.09 526.13,145.00 536.43,145.00 C546.11,145.00 552.30,148.61 556.35,156.64 C558.02,159.95 560.05,170.61 559.18,171.49 C558.90,171.77 550.89,172.00 541.39,172.00 C531.89,172.00 523.91,172.34 523.65,172.76 C522.64,174.39 526.05,180.06 529.19,181.98 C533.49,184.60 540.39,184.61 545.50,182.00 C547.66,180.90 549.92,180.00 550.54,180.00 C552.38,180.00 556.29,184.79 555.70,186.33 C555.40,187.12 552.35,189.17 548.92,190.88 C542.57,194.05 536.62,194.78 530.99,193.07 ZM 350.46 192.94 C345.74,191.56 338.97,185.14 336.37,179.56 C331.28,168.62 334.56,155.07 343.87,148.52 C347.59,145.91 349.21,145.46 356.06,145.15 C363.15,144.83 364.43,145.06 368.46,147.42 C373.71,150.50 377.31,156.15 378.90,163.80 C379.63,167.32 380.28,169.33 379.56,170.48 C378.49,172.22 374.33,172.04 362.76,172.23 C346.91,172.48 345.50,172.65 345.17,174.35 C344.77,176.44 349.13,181.46 353.20,183.59 C357.40,185.78 361.30,185.29 365.84,182.00 C368.12,180.35 370.36,179.00 370.82,179.00 C372.49,179.00 376.17,183.87 375.83,185.63 C375.40,187.88 369.90,191.66 365.12,192.98 C360.81,194.18 354.67,194.16 350.46,192.94 ZM 628.75 192.57 C619.31,189.21 613.02,181.19 612.26,171.56 C611.62,163.54 613.31,157.77 617.74,152.87 C623.04,147.00 628.19,144.69 635.71,144.82 C648.67,145.04 655.75,152.00 657.52,166.25 L 658.23 172.00 L 640.62 172.00 C624.50,172.00 623.00,172.15 623.01,173.75 C623.01,175.92 626.08,180.67 628.61,182.43 C632.61,185.22 638.16,185.26 643.50,182.55 C649.68,179.41 650.10,179.41 652.99,182.49 C655.30,184.95 655.31,185.00 653.41,187.13 C648.28,192.91 636.78,195.44 628.75,192.57 ZM 82.19 123.21 C81.76,123.64 79.41,124.22 76.96,124.52 L 72.50 125.06 L 53.00 106.04 L 53.00 80.27 L 66.88 75.18 C74.52,72.39 81.94,69.80 83.38,69.44 L 86.00 68.78 L 86.00 109.77 L 93.44 116.28 C97.53,119.86 100.60,123.07 100.27,123.40 C99.94,123.73 96.88,124.00 93.48,124.00 L 87.29 124.00 L 76.49 113.65 C65.76,103.37 65.70,103.27 67.34,100.92 C69.61,97.69 69.42,95.17 66.75,92.96 C64.55,91.15 64.54,91.04 66.25,87.97 C68.39,84.14 68.49,82.00 66.52,82.00 C64.21,82.00 62.22,85.99 61.48,92.15 C60.34,101.52 61.04,102.84 72.54,113.13 C78.27,118.25 82.61,122.79 82.19,123.21 ZM 298.79 192.73 C294.78,191.40 286.00,185.56 286.00,184.22 C286.00,183.76 287.55,181.89 289.45,180.05 L 292.90 176.70 L 296.43 179.81 C300.48,183.36 306.70,185.54 310.25,184.65 C318.04,182.70 320.56,175.33 315.03,170.68 C313.40,169.31 309.01,167.20 305.28,165.99 C292.18,161.74 287.01,156.51 287.01,147.50 C287.00,137.26 293.83,130.28 304.82,129.28 C312.36,128.60 318.68,130.24 323.16,134.04 L 326.50 136.86 L 323.30 140.12 L 320.09 143.37 L 314.98 140.59 C310.91,138.37 309.14,137.94 306.28,138.47 C302.23,139.23 297.00,143.89 297.00,146.73 C297.00,150.72 303.20,155.01 314.00,158.50 C325.08,162.09 329.49,167.55 328.82,176.87 C328.30,184.07 325.64,188.03 319.24,191.13 C313.69,193.82 304.32,194.55 298.79,192.73 ZM 125.79 97.45 C125.57,129.76 125.20,140.20 124.25,141.15 C123.25,142.15 123.00,140.56 123.00,133.20 L 123.00 124.00 L 120.00 124.00 C117.50,124.00 117.00,123.60 117.00,121.60 C117.00,119.90 114.67,117.02 108.95,111.63 L 100.89 104.06 L 105.04 98.44 C109.11,92.93 109.17,92.74 108.07,88.37 C107.34,85.48 107.19,79.72 107.62,71.99 L 108.30 60.07 L 115.90 57.53 C120.08,56.14 124.09,55.00 124.79,55.00 C125.83,55.00 126.02,63.35 125.79,97.45 ZM 695.71 192.38 C695.32,191.99 695.00,181.37 695.00,168.78 L 695.00 145.89 L 699.75 146.20 C702.90,146.40 704.42,146.92 704.25,147.75 C703.89,149.53 705.37,149.30 709.34,146.96 C713.14,144.72 721.70,144.13 726.06,145.82 C730.57,147.56 734.81,151.93 736.68,156.78 C738.16,160.62 738.50,164.40 738.50,177.00 L 738.50 192.50 L 728.50 192.50 L 728.00 177.00 C727.69,167.26 727.03,160.68 726.24,159.30 C724.25,155.82 720.89,154.00 716.46,154.00 C713.21,154.00 711.78,154.62 709.44,157.06 L 706.50 160.13 L 706.00 176.31 L 705.50 192.50 L 700.96 192.80 C698.47,192.96 696.10,192.77 695.71,192.38 ZM 447.79 193.01 C443.04,191.58 438.81,187.82 436.77,183.20 C435.23,179.73 434.71,175.99 434.46,166.61 C434.28,159.95 434.39,152.36 434.70,149.75 L 435.26 145.00 L 439.52 145.00 C442.49,145.00 443.97,145.48 444.39,146.58 C444.73,147.45 445.00,154.91 445.00,163.16 L 445.00 178.15 L 447.92 181.08 C453.35,186.50 462.23,184.25 465.35,176.66 C466.22,174.54 466.61,168.99 466.54,159.81 C466.43,146.84 466.53,146.09 468.46,145.57 C472.30,144.54 475.78,144.99 476.39,146.58 C476.73,147.45 477.00,158.04 477.00,170.11 C477.00,188.75 476.77,192.15 475.49,192.64 C473.41,193.44 466.82,192.10 467.49,191.02 C468.73,189.01 466.04,189.25 461.50,191.55 C456.57,194.05 452.63,194.47 447.79,193.01 ZM 399.61 192.53 C394.23,190.61 387.40,183.63 385.53,178.15 C381.32,165.79 386.11,153.02 397.03,147.49 C406.28,142.80 421.30,145.00 427.49,151.95 L 429.48 154.18 L 426.18 157.13 L 422.88 160.08 L 418.74 157.04 C413.60,153.26 406.41,152.85 401.19,156.02 C397.59,158.22 394.06,164.76 394.02,169.28 C393.97,175.35 398.47,181.72 404.39,183.96 C407.75,185.24 416.86,183.08 418.99,180.51 C420.79,178.35 423.32,178.64 425.83,181.31 C428.75,184.42 428.58,185.46 424.68,188.43 C417.73,193.73 407.63,195.38 399.61,192.53 ZM 114.47 123.04 C114.15,123.57 111.77,123.98 109.19,123.95 C105.23,123.90 104.03,123.39 101.50,120.67 C99.85,118.89 96.19,115.43 93.37,112.97 L 88.24 108.50 L 89.25 67.22 L 95.90 64.61 C99.56,63.17 103.10,62.00 103.77,62.00 C104.68,62.00 105.00,65.49 105.00,75.39 C105.00,86.38 104.73,88.89 103.50,89.36 C101.85,90.00 101.40,95.00 103.00,95.00 C104.93,95.00 103.97,97.66 101.00,100.50 C99.35,102.08 98.00,103.93 98.00,104.62 C98.00,105.31 101.31,108.71 105.35,112.18 C113.27,118.98 115.41,121.53 114.47,123.04 ZM 103.00 262.81 C103.00,283.20 102.66,300.08 102.25,300.32 C101.38,300.83 95.03,296.95 93.27,294.83 C92.41,293.79 92.00,284.06 91.79,260.19 C91.50,227.57 91.53,227.00 93.50,226.99 C94.60,226.98 97.19,226.70 99.25,226.36 L 103.00 225.74 ZM 485.71 192.38 C485.32,191.99 485.00,181.40 485.00,168.85 L 485.00 146.04 L 487.25 145.52 C490.20,144.84 493.97,145.22 494.12,146.21 C494.19,146.65 494.31,147.45 494.38,148.00 C494.57,149.55 495.19,149.45 499.71,147.15 C503.94,144.99 510.43,144.27 511.40,145.84 C511.69,146.31 511.66,148.34 511.33,150.36 C510.85,153.29 510.20,154.14 508.12,154.60 C497.21,156.96 496.60,158.08 496.00,176.85 L 495.50 192.50 L 490.96 192.80 C488.47,192.96 486.10,192.77 485.71,192.38 ZM 666.25 192.34 C665.30,191.95 665.00,186.31 665.00,168.92 L 665.00 146.00 L 669.50 146.00 C673.33,146.00 674.00,146.30 674.00,148.00 C674.00,150.53 674.48,150.51 678.28,147.80 C680.33,146.34 682.90,145.59 685.93,145.55 L 690.50 145.50 L 690.50 149.47 C690.50,153.39 690.44,153.46 686.09,154.20 C680.80,155.10 677.35,158.09 676.00,162.93 C675.46,164.89 675.01,172.18 675.01,179.12 L 675.00 191.75 L 671.88 192.38 C668.41,193.07 668.05,193.06 666.25,192.34 ZM 116.00 165.12 C116.00,168.36 115.66,170.96 115.25,170.90 C114.84,170.85 112.03,169.52 109.00,167.93 C105.97,166.35 101.47,164.78 99.00,164.45 C92.34,163.54 91.16,163.08 90.55,161.15 C90.24,160.19 87.54,157.40 84.54,154.95 C78.67,150.16 76.95,147.28 79.14,145.89 C79.89,145.42 85.11,145.02 90.75,145.02 C100.23,145.00 101.00,145.15 101.00,146.94 C101.00,148.23 103.53,150.63 108.50,154.07 L 116.00 159.25 ZM 69.00 262.23 C69.00,269.25 68.61,275.00 68.13,275.00 C67.66,275.00 66.08,274.07 64.63,272.93 C62.12,270.95 62.00,270.43 62.00,261.37 L 62.00 251.88 L 55.25 245.47 L 48.50 239.05 L 39.75 239.03 C32.27,239.00 30.70,238.70 28.94,236.94 C27.79,235.79 27.01,233.91 27.19,232.69 C27.48,230.61 28.05,230.49 38.45,230.21 L 49.39 229.93 L 59.20 239.70 L 69.00 249.46 ZM 57.01 182.00 C55.97,182.55 49.05,183.00 41.61,183.00 L 28.09 183.00 L 27.46 179.63 C27.11,177.78 26.98,175.19 27.16,173.88 C27.50,171.53 27.65,171.49 42.00,170.99 C56.50,170.49 56.50,170.49 58.75,172.99 C59.98,174.37 60.99,176.06 61.00,176.75 C61.00,177.44 61.59,178.00 62.31,178.00 C63.02,178.00 65.14,179.12 67.00,180.50 L 70.39 183.00 L 65.25 183.00 C62.43,183.00 59.84,182.55 59.50,182.00 C59.08,181.33 58.26,181.33 57.01,182.00 ZM 59.43 255.50 C59.78,257.70 59.67,261.52 59.18,264.00 L 58.29 268.50 L 45.64 255.64 C38.69,248.56 33.00,242.37 33.00,241.89 C33.00,241.40 36.15,241.00 40.01,241.00 L 47.02 241.00 L 52.90 246.25 C57.68,250.51 58.91,252.25 59.43,255.50 ZM 126.00 163.15 C126.00,176.13 125.80,177.87 124.11,179.40 C122.31,181.03 122.13,180.95 120.11,177.68 C118.40,174.91 118.00,172.67 118.00,165.84 L 118.00 157.41 L 110.50 152.20 C106.38,149.33 103.00,146.54 103.00,145.99 C103.00,145.45 105.59,145.00 108.75,145.01 C114.09,145.01 114.62,145.23 116.20,148.01 C117.47,150.23 118.64,151.00 120.75,151.00 C122.32,151.00 124.14,150.46 124.80,149.80 C125.73,148.87 126.00,151.83 126.00,163.15 ZM 102.65 201.83 C99.88,204.89 96.45,205.55 86.15,205.00 L 76.79 204.50 L 84.65 198.12 C88.97,194.62 94.42,190.81 96.76,189.67 C100.81,187.70 101.11,187.68 102.76,189.33 C105.16,191.73 105.10,199.13 102.65,201.83 ZM 55.47 167.25 C56.16,168.87 55.17,169.00 42.27,169.00 C34.61,169.00 28.03,168.70 27.67,168.33 C27.30,167.97 27.00,165.94 27.00,163.83 L 27.00 160.00 L 53.77 160.00 L 54.25 162.75 C54.50,164.26 55.05,166.29 55.47,167.25 ZM 750.67 285.25 C745.27,279.51 742.00,276.04 740.02,273.60 C740.45,273.87 740.92,274.02 741.40,274.03 C742.01,274.05 745.42,276.74 749.00,280.00 C752.41,283.11 755.43,285.69 755.94,285.93 L 759.05 289.09 L 765.27 288.80 C769.46,288.60 771.11,288.24 771.44,287.37 C771.51,288.34 772.00,288.83 772.68,288.57 C773.37,288.30 774.20,288.52 774.53,289.04 C774.85,289.57 775.63,290.00 776.25,290.00 C776.82,290.00 776.60,289.50 775.80,288.85 C777.20,289.25 779.00,288.71 779.00,287.47 C779.00,286.72 778.44,285.87 777.70,285.46 C778.63,285.65 778.86,285.46 778.33,284.93 C776.77,283.37 772.02,284.75 771.48,286.74 C771.31,285.78 770.09,285.59 766.33,285.83 L 761.16 286.17 L 752.58 277.91 L 746.01 271.57 C746.72,272.19 746.90,271.97 747.52,270.98 C747.62,270.81 747.67,270.66 747.68,270.54 L 752.99 275.92 C756.50,279.47 758.36,281.37 760.62,282.36 C763.29,283.52 766.53,283.40 773.70,283.16 C779.09,282.98 780.05,283.22 781.02,285.04 C781.90,286.68 781.80,287.66 780.55,289.57 C779.02,291.90 778.50,292.00 767.99,292.00 L 757.02 292.00 ZM 548.56 162.31 C548.19,160.77 546.62,158.22 545.07,156.65 C542.68,154.23 541.49,153.81 537.04,153.85 C531.06,153.89 527.74,155.67 525.49,160.03 C523.40,164.07 524.45,164.44 539.23,164.85 L 549.25 165.13 ZM 647.49 163.84 C648.53,162.81 645.21,157.18 642.53,155.43 C639.40,153.37 631.60,153.38 628.47,155.43 C627.12,156.31 625.30,158.14 624.40,159.51 C621.46,164.01 622.74,164.60 635.31,164.55 C641.65,164.52 647.13,164.20 647.49,163.84 ZM 369.52 163.96 C369.71,163.65 368.87,161.62 367.65,159.45 C363.54,152.12 353.19,151.42 347.57,158.10 C343.54,162.88 344.12,163.85 351.25,164.28 C359.79,164.80 369.11,164.64 369.52,163.96 ZM 116.22 108.44 C118.89,110.31 119.26,110.34 120.80,108.80 C122.58,107.02 122.26,104.55 120.00,102.50 C118.17,100.84 118.00,99.42 118.00,85.35 C118.00,76.91 118.40,70.00 118.89,70.00 C120.15,70.00 121.05,67.29 120.38,65.54 C119.58,63.47 116.17,62.61 114.45,64.04 C112.57,65.60 112.60,68.42 114.50,70.00 C115.71,71.01 116.00,74.17 116.00,86.56 C116.00,95.70 115.60,102.13 115.00,102.50 C113.25,103.58 113.92,106.83 116.22,108.44 ZM 624.05 47.84 L 620.99 47.86 C611.69,47.90 609.30,47.89 609.19,48.38 C609.14,48.57 609.43,48.83 609.80,49.20 C610.46,49.86 611.00,51.44 611.00,52.70 C611.00,53.67 611.24,54.50 611.57,54.84 C610.49,56.45 608.26,58.00 606.53,58.00 C601.60,58.00 599.22,54.13 601.63,50.04 L 603.27 47.27 L 615.89 47.62 L 624.05 47.84 ZM 88.42 163.13 C86.76,165.82 77.29,162.27 75.06,158.12 C73.89,155.93 73.64,151.69 74.63,150.71 C75.51,149.83 89.08,162.06 88.42,163.13 ZM 608.82 52.25 C609.08,50.42 608.66,50.00 606.57,50.00 C604.48,50.00 604.00,50.48 604.00,52.57 C604.00,54.66 604.42,55.08 606.25,54.82 C607.70,54.61 608.61,53.70 608.82,52.25 ZM 127.00 184.44 C127.00,186.11 125.57,187.24 124.64,186.31 C123.44,185.11 123.99,183.00 125.50,183.00 C126.32,183.00 127.00,183.65 127.00,184.44 ZM 494.00 151.19 C494.00,152.50 496.27,151.68 496.77,150.19 C497.01,149.46 496.56,149.23 495.58,149.61 C494.71,149.94 494.00,150.65 494.00,151.19 ZM 745.18 270.77 L 744.00 269.64 L 744.00 260.31 C744.12,265.37 744.52,270.01 745.18,270.77 ZM 182.40 43.41 C195.97,48.45 210.24,53.78 221.99,58.21 C221.88,58.17 221.77,58.13 221.67,58.09 C211.21,54.18 194.47,47.92 182.40,43.41 ZM 180.93 310.63 C186.61,306.42 192.23,302.12 196.00,299.02 C207.09,289.90 217.08,280.96 225.52,272.66 C236.17,262.16 244.35,252.67 249.15,245.11 C244.33,252.71 236.21,262.13 225.52,272.66 C217.14,280.89 207.19,289.80 196.00,299.04 C192.12,302.24 186.77,306.34 180.93,310.63 ZM 39.67 283.56 C26.80,271.79 15.32,259.90 8.30,250.76 C15.23,259.77 26.74,271.71 39.67,283.56 ZM 747.33 270.19 C747.23,270.18 747.12,270.19 746.99,270.23 C746.71,270.29 746.50,269.97 746.34,269.19 L 747.33 270.19 ZM 746.00 265.21 C745.94,263.43 745.94,261.13 745.97,258.25 C745.98,257.00 745.99,255.84 745.98,254.77 C745.99,255.61 746.00,256.49 746.00,257.42 L 746.00 265.21 ZM 737.67 270.05 C737.45,269.53 737.29,269.05 737.20,268.55 C737.00,267.58 737.00,266.57 737.00,265.23 C737.00,267.04 737.24,268.69 737.67,270.05 ZM 740.19 270.07 C740.71,271.25 741.37,272.21 742.14,272.71 C742.67,273.07 743.73,273.97 745.06,275.18 C743.79,274.06 742.73,273.18 742.14,272.77 C741.37,272.24 740.71,271.27 740.19,270.07 ZM 774.35 286.46 C774.48,285.81 775.07,285.31 775.99,285.23 C775.25,285.39 774.63,285.87 774.35,286.46 ZM 739.59 260.82 C739.06,262.12 738.92,263.89 739.10,265.68 C738.92,263.87 739.05,262.09 739.59,260.82 ZM 745.00 246.00 C745.01,246.00 745.02,246.00 745.02,246.00 C744.84,246.03 744.69,246.39 744.55,247.00 C744.68,246.35 744.83,246.00 745.00,246.00 Z" fill="rgba(0,1,7,1)"/>
<path d="M 220.50 82.56 C225.68,84.25 225.68,84.25 223.96,82.56 C223.16,81.77 211.25,74.51 197.50,66.42 C183.75,58.32 168.23,48.95 163.00,45.58 C157.77,42.21 149.11,36.82 143.75,33.59 C138.39,30.37 134.00,27.34 134.00,26.88 C134.00,26.42 133.05,25.77 131.80,25.16 C139.88,27.75 155.86,33.49 178.50,41.95 C190.60,46.47 210.02,53.74 221.67,58.09 C233.31,62.44 244.89,66.88 247.42,67.96 L 252.00 69.93 L 252.00 161.80 C252.00,117.75 251.62,83.00 251.13,83.00 C250.65,83.00 249.72,88.06 249.06,94.25 C246.29,120.26 233.83,218.47 231.88,229.73 C231.20,233.65 229.65,237.70 227.68,240.68 C223.75,246.60 209.15,261.90 201.12,268.50 C197.78,271.25 195.48,273.65 196.02,273.83 C196.23,273.90 196.40,274.00 196.54,274.13 C196.39,274.04 196.19,274.00 195.96,274.00 C195.39,274.00 189.88,277.98 183.71,282.84 C167.39,295.72 155.87,303.84 143.47,311.22 C132.14,317.96 128.81,320.29 125.79,319.93 C123.97,319.72 122.27,318.53 119.00,316.75 C102.21,307.58 82.74,293.76 64.87,278.32 C59.57,273.74 54.88,270.00 54.45,270.00 C54.01,270.00 52.83,269.25 51.82,268.34 C50.91,267.51 49.97,267.00 49.60,267.11 C49.65,266.68 50.48,267.11 52.18,268.59 C53.38,269.64 48.25,264.42 40.77,257.00 C33.29,249.57 26.24,241.93 25.09,240.00 C23.20,236.82 22.99,234.75 22.79,217.50 L 22.58 198.50 L 22.23 208.89 C22.53,196.14 22.81,167.10 22.88,140.22 C22.97,97.73 23.27,85.86 24.25,85.58 C26.30,85.00 64.86,71.34 73.50,68.13 C77.90,66.49 90.28,61.95 101.00,58.04 C111.72,54.13 121.51,50.50 122.75,49.99 C124.19,49.38 124.71,48.95 124.90,45.19 C125.03,47.76 125.26,49.46 125.60,49.33 C126.71,48.90 161.28,60.87 197.00,74.06 C207.73,78.02 218.30,81.84 220.50,82.56 ZM 125.99 258.75 L 125.97 202.56 L 126.00 202.50 L 126.00 258.75 C126.00,296.79 126.33,315.00 127.03,315.00 C128.32,315.00 136.92,310.62 139.16,308.83 C140.64,307.65 140.88,303.34 141.33,269.75 C141.61,248.99 141.48,232.00 141.04,232.00 C140.59,232.00 138.61,233.80 136.62,236.00 L 133.00 240.01 L 133.00 267.26 C133.00,293.44 133.08,294.57 135.00,295.77 C139.06,298.30 136.04,305.10 131.61,303.40 C129.48,302.59 128.59,299.20 130.04,297.45 C130.94,296.37 131.22,288.27 131.13,266.58 L 131.00 237.17 L 135.94 234.13 C138.66,232.46 141.36,230.19 141.95,229.10 C142.95,227.22 142.66,227.08 137.26,226.74 C133.49,226.50 134.78,226.33 141.00,226.25 C146.77,226.18 149.72,226.45 148.50,226.95 C147.40,227.40 145.71,228.65 144.74,229.72 C143.11,231.53 143.00,234.54 143.24,268.85 L 143.50 306.02 L 147.24 303.48 C149.30,302.09 150.93,300.62 150.87,300.22 C150.81,299.82 150.82,287.03 150.88,271.80 L 151.00 244.10 L 159.53 236.98 L 168.06 229.85 L 167.78 216.24 L 167.50 202.63 L 160.75 197.82 L 154.00 193.01 L 154.00 196.30 C154.00,198.12 154.49,200.09 155.09,200.69 C156.24,201.84 155.83,211.24 154.20,221.00 C153.49,225.26 153.25,221.47 153.14,204.25 C153.06,192.01 153.34,182.00 153.76,182.00 C154.17,182.00 154.36,183.91 154.18,186.25 C153.84,190.50 153.85,190.52 161.92,196.87 L 170.00 203.24 L 170.00 230.78 L 161.51 237.94 C156.84,241.87 152.77,246.08 152.48,247.29 C152.18,248.51 152.06,260.88 152.22,274.79 L 152.50 300.07 L 162.00 294.04 L 162.00 253.49 L 172.96 244.67 C178.98,239.82 184.13,235.10 184.39,234.18 C184.66,233.25 185.01,230.34 185.19,227.69 C185.42,224.06 185.30,222.92 181.31,217.26 C182.73,219.23 183.84,220.81 184.42,221.70 C185.59,223.46 187.02,225.07 188.02,225.79 C187.58,225.74 187.29,225.68 187.20,225.62 C186.73,225.33 186.54,227.50 186.79,230.44 L 187.23 235.78 L 175.74 244.98 C169.84,249.70 166.67,252.01 164.96,255.12 C162.79,259.09 163.00,264.37 163.00,277.64 C163.00,285.54 163.26,292.00 163.59,292.00 C163.91,292.00 166.16,290.57 168.59,288.83 L 173.00 285.66 L 173.00 258.41 L 176.75 254.80 C183.67,248.15 208.25,228.00 209.38,228.04 C210.73,228.09 205.71,232.65 188.38,247.06 C177.97,255.72 175.13,258.62 174.63,261.11 C173.71,265.71 173.86,284.00 174.82,284.00 C175.27,284.00 177.52,282.39 179.82,280.42 L 184.00 276.84 L 184.00 268.54 C184.00,260.90 184.19,260.11 186.37,258.67 C187.68,257.82 191.84,254.48 195.62,251.25 C205.87,242.51 208.99,240.59 213.98,240.02 L 218.50 239.50 L 218.78 228.17 C219.06,217.25 218.99,216.87 217.08,217.48 C215.71,217.91 214.70,217.49 213.85,216.13 C212.71,214.31 212.38,214.27 209.81,215.60 C208.26,216.40 207.00,217.39 207.00,217.80 C207.00,217.93 207.13,218.20 207.36,218.58 C205.83,216.52 204.36,214.53 202.96,212.63 L 207.70 212.57 C211.05,212.52 212.89,211.97 213.81,210.75 C215.31,208.73 219.59,208.40 220.18,210.25 C220.40,210.94 220.41,218.09 220.20,226.15 L 219.82 240.80 L 215.16 241.50 C209.17,242.40 207.83,243.14 200.00,249.94 C196.43,253.05 191.59,257.07 189.25,258.88 C185.03,262.14 185.00,262.22 185.00,268.58 C185.00,272.11 185.44,275.00 185.97,275.00 C188.77,275.00 220.19,245.02 224.07,238.65 C225.79,235.83 225.99,233.46 226.00,215.75 L 226.00 196.00 L 209.06 196.00 C198.84,196.00 191.87,195.60 191.50,195.00 C191.10,194.35 196.99,194.00 208.44,194.00 L 226.00 194.00 L 226.00 187.00 L 205.56 187.00 C193.29,187.00 184.88,186.61 184.51,186.02 C184.13,185.40 191.45,184.94 204.70,184.77 C225.42,184.50 225.50,184.49 225.82,182.25 L 226.14 180.00 L 202.52 180.00 C183.77,180.00 179.07,180.26 179.70,181.26 C179.97,181.69 182.15,184.68 185.24,188.86 C182.49,185.23 180.52,182.66 179.31,181.16 C178.59,180.27 177.91,179.35 177.31,178.47 C177.75,178.70 178.22,178.75 178.66,178.58 C179.49,178.26 190.48,178.00 203.08,178.00 L 226.00 178.00 L 226.00 168.00 L 214.70 168.00 C203.74,168.00 203.27,168.09 199.36,170.97 C195.77,173.60 194.23,174.01 185.66,174.62 C178.66,175.11 176.00,174.98 176.00,174.15 C176.00,173.39 178.51,173.00 183.43,173.00 C191.74,173.00 194.92,172.09 199.22,168.47 C201.98,166.15 202.85,166.00 214.08,166.00 L 226.00 166.00 L 226.00 158.00 L 197.90 158.00 L 192.20 162.02 C186.30,166.18 180.43,168.20 181.24,165.79 C181.48,165.08 182.31,164.44 183.09,164.37 C183.86,164.29 184.96,164.18 185.52,164.12 C186.08,164.05 188.71,162.20 191.38,160.00 L 196.22 156.00 L 226.09 156.00 L 225.80 149.25 L 225.50 142.50 L 212.50 142.00 C197.01,141.40 197.86,140.13 214.00,139.76 L 225.50 139.50 L 225.50 123.50 L 219.50 123.22 C213.83,122.95 213.36,123.11 211.00,126.05 C210.23,127.01 208.66,128.94 206.81,131.19 C209.81,127.31 211.00,125.44 211.00,124.78 C211.00,124.35 205.49,124.01 198.75,124.02 C205.43,124.01 211.11,123.63 211.39,123.18 C211.67,122.73 208.63,119.58 204.63,116.18 C197.31,109.94 194.08,107.42 192.58,104.12 C191.24,101.18 191.27,97.62 191.00,90.28 L 190.50 76.69 L 186.75 75.40 L 183.00 74.10 L 182.81 88.30 C182.70,96.11 182.51,103.62 182.40,105.00 C182.28,106.38 182.14,108.14 182.09,108.93 C182.04,109.72 178.24,114.00 173.63,118.43 L 165.27 126.50 L 164.77 133.71 C164.18,142.33 164.45,142.31 173.45,133.13 C176.73,129.80 179.58,127.25 179.80,127.47 C180.75,128.42 173.85,135.86 164.31,144.17 L 154.00 153.14 L 154.11 166.50 L 156.53 163.50 C157.86,161.85 159.66,159.58 161.71,156.97 C157.24,163.02 155.20,166.49 154.41,169.21 C154.24,167.87 154.00,167.00 153.75,167.00 C153.34,167.00 153.00,157.32 153.00,145.50 C153.00,131.83 152.64,124.00 152.00,124.00 C151.42,124.00 151.00,120.92 151.01,116.75 C151.01,111.20 151.48,108.80 153.00,106.50 C155.80,102.27 155.52,98.61 152.09,94.78 C149.20,91.54 149.17,91.53 147.06,93.44 C145.09,95.23 144.82,95.25 143.28,93.71 C141.91,92.34 141.84,91.67 142.85,89.78 C143.68,88.22 143.98,83.10 143.78,73.59 L 143.50 59.68 L 135.05 56.84 C130.40,55.28 125.90,54.04 125.05,54.08 C124.02,54.13 123.92,54.33 124.75,54.66 C124.88,54.72 125.00,54.93 125.11,55.33 C125.01,55.10 124.91,55.00 124.79,55.00 C124.09,55.00 120.08,56.14 115.90,57.53 L 108.30 60.07 L 107.62 71.99 C107.19,79.72 107.34,85.48 108.07,88.37 C109.17,92.74 109.11,92.93 105.04,98.44 L 100.89 104.06 L 108.95 111.63 C114.67,117.02 117.00,119.90 117.00,121.60 C117.00,123.33 117.37,123.86 119.08,123.97 L 119.00 123.97 C115.95,123.95 113.06,123.94 110.33,123.93 C112.44,123.85 114.20,123.49 114.47,123.04 C115.41,121.53 113.27,118.98 105.35,112.18 C101.31,108.71 98.00,105.31 98.00,104.62 C98.00,103.93 99.35,102.08 101.00,100.50 C103.97,97.66 104.93,95.00 103.00,95.00 C101.40,95.00 101.85,90.00 103.50,89.36 C104.73,88.89 105.00,86.38 105.00,75.39 C105.00,65.49 104.68,62.00 103.77,62.00 C103.10,62.00 99.56,63.17 95.90,64.61 L 89.25 67.22 L 88.24 108.50 L 93.37 112.97 C96.19,115.43 99.85,118.89 101.50,120.67 C103.83,123.17 105.03,123.80 108.30,123.92 C103.76,123.91 99.71,123.92 96.15,123.94 C98.35,123.85 100.03,123.64 100.27,123.40 C100.60,123.07 97.53,119.86 93.44,116.28 L 86.00 109.77 L 86.00 68.78 L 83.38 69.44 C81.94,69.80 74.52,72.39 66.88,75.18 L 53.00 80.27 L 53.00 106.04 L 72.50 125.06 L 76.96 124.52 C79.41,124.22 81.76,123.64 82.19,123.21 C82.61,122.79 78.27,118.25 72.54,113.13 C67.37,108.51 64.39,105.70 62.77,103.16 C62.78,102.53 62.68,101.54 62.47,100.25 C62.05,97.68 62.16,96.94 62.82,97.90 C63.98,99.56 67.36,98.57 66.75,96.75 C66.52,96.06 65.47,95.50 64.42,95.50 C63.36,95.50 62.21,94.60 61.85,93.50 C61.65,92.88 61.48,92.84 61.36,93.19 C61.39,92.85 61.44,92.50 61.48,92.15 C62.22,85.99 64.21,82.00 66.52,82.00 C68.49,82.00 68.39,84.14 66.25,87.97 C64.54,91.04 64.55,91.15 66.75,92.96 C69.42,95.17 69.61,97.69 67.34,100.92 C65.70,103.27 65.76,103.37 76.49,113.65 L 87.29 124.00 L 90.40 124.00 C83.62,124.10 79.34,124.28 77.57,124.54 C75.20,124.90 70.61,126.65 67.38,128.43 C62.60,131.06 60.77,132.86 57.57,138.08 C53.78,144.26 53.63,144.83 53.57,153.50 C53.55,156.08 53.61,158.25 53.80,160.17 L 53.77 160.00 L 27.00 160.00 L 27.00 163.83 C27.00,165.94 27.30,167.97 27.67,168.33 C28.03,168.70 34.61,169.00 42.27,169.00 C55.17,169.00 56.16,168.87 55.47,167.25 C55.37,167.02 55.26,166.72 55.15,166.39 C55.94,168.52 57.09,170.45 58.69,172.59 C59.96,174.30 61.00,176.11 61.00,176.63 C61.00,176.96 61.52,177.48 62.29,178.00 C61.58,177.99 61.00,177.43 61.00,176.75 C60.99,176.06 59.98,174.37 58.75,172.99 C56.50,170.49 56.50,170.49 42.00,170.99 C27.65,171.49 27.50,171.53 27.16,173.88 C26.98,175.19 27.11,177.78 27.46,179.63 L 28.09 183.00 L 41.61 183.00 C49.05,183.00 55.97,182.55 57.01,182.00 C58.26,181.33 59.08,181.33 59.50,182.00 C59.84,182.55 62.43,183.00 65.25,183.00 L 70.39 183.00 L 67.00 180.50 C66.79,180.34 66.57,180.19 66.36,180.04 C67.85,180.78 69.60,181.66 71.08,182.43 C74.15,184.03 76.40,184.64 82.11,185.00 C78.55,184.92 75.63,184.84 75.00,184.79 C74.18,184.73 63.01,184.76 50.20,184.84 L 26.89 185.00 L 27.20 189.75 L 27.50 194.50 L 77.50 194.50 L 81.75 191.08 C84.09,189.20 86.26,187.93 86.58,188.25 C86.90,188.57 84.83,190.67 81.99,192.91 L 76.82 197.00 L 27.00 197.00 L 27.00 201.92 C27.00,209.21 27.54,210.00 32.55,210.00 C34.93,210.00 37.16,209.55 37.50,209.00 C38.30,207.70 43.70,207.70 44.50,209.00 C44.77,209.44 46.01,209.82 47.47,209.95 C46.09,209.84 44.84,209.57 44.43,209.25 C43.89,208.84 44.26,209.25 45.25,210.17 C46.55,211.39 46.69,211.96 45.77,212.28 C45.07,212.52 45.40,212.56 46.50,212.37 C47.27,212.24 48.34,212.12 49.23,212.06 C47.94,212.25 45.90,212.90 44.29,213.67 C41.51,214.99 40.38,215.09 38.90,214.17 C37.87,213.53 34.77,213.00 32.01,213.00 L 27.00 213.00 L 27.00 226.75 L 30.12 227.38 C31.84,227.72 37.06,228.00 41.71,228.00 L 50.18 228.00 L 70.94 247.50 L 71.00 278.50 L 78.00 284.09 L 78.03 240.50 L 72.26 235.35 C69.09,232.51 66.83,229.86 67.23,229.45 C67.63,229.04 70.71,231.13 74.06,234.10 L 80.16 239.50 L 79.94 285.60 L 84.22 288.76 C86.57,290.50 88.84,291.94 89.25,291.96 C89.66,291.98 90.00,278.06 90.00,261.03 L 90.00 230.05 L 87.05 228.53 C84.84,227.38 80.76,227.00 70.70,227.00 C59.11,227.00 55.46,226.77 54.09,222.98 C55.49,226.75 59.35,226.92 72.00,226.90 C94.04,226.87 101.99,226.46 108.14,223.83 L 104.92 225.50 L 105.07 262.83 C105.16,283.36 105.43,300.94 105.68,301.90 C106.08,303.43 123.27,314.91 125.25,314.98 C125.66,314.99 125.99,289.69 125.99,258.75 ZM 53.33 150.57 L 54.17 143.63 L 45.08 135.07 L 35.99 126.50 L 36.00 114.42 C36.00,102.66 36.07,102.29 38.63,99.92 C40.08,98.59 42.02,96.29 42.93,94.82 C43.89,93.28 45.08,92.43 45.73,92.83 C46.46,93.29 45.28,95.43 42.35,98.96 L 37.83 104.40 L 38.50 125.50 L 46.33 133.00 C50.64,137.12 54.57,140.50 55.05,140.50 C55.54,140.50 57.20,138.50 58.74,136.06 L 61.55 131.62 L 57.46 127.86 C54.81,125.41 53.05,124.41 51.67,124.56 C51.59,124.49 51.45,124.42 51.25,124.34 C49.37,123.58 49.75,121.02 51.75,120.88 C52.19,120.85 52.51,120.83 52.72,120.80 C54.05,121.76 56.00,123.48 57.93,125.42 L 63.28 130.85 L 66.89 128.57 C68.88,127.31 70.50,126.05 70.50,125.78 C70.50,125.50 66.04,121.20 60.59,116.23 L 50.68 107.20 L 50.91 94.10 C51.04,86.89 50.76,81.00 50.29,81.00 C47.94,81.00 45.00,84.33 45.00,87.00 C45.00,88.58 44.55,90.16 44.00,90.50 C43.41,90.86 43.00,89.80 43.00,87.93 C43.00,84.88 42.85,84.76 39.75,85.28 C37.96,85.58 34.36,86.75 31.75,87.88 L 27.00 89.93 L 27.00 123.30 C27.00,141.65 27.31,156.98 27.70,157.36 C28.08,157.75 33.82,157.93 40.45,157.78 L 52.50 157.50 ZM 153.78 137.00 L 154.05 150.50 L 158.03 146.29 C161.99,142.09 162.00,142.05 162.00,133.95 L 162.00 125.83 L 165.70 122.66 C179.80,110.59 181.49,107.77 179.17,100.20 C178.43,97.80 178.40,96.22 179.07,95.42 C179.64,94.73 179.95,89.60 179.78,83.45 L 179.50 72.70 L 176.00 71.49 C174.07,70.83 171.47,69.96 170.22,69.56 L 167.93 68.84 L 168.04 90.48 C168.15,113.37 167.78,115.40 163.59,114.80 C160.70,114.39 160.27,110.47 162.94,108.81 C164.91,107.58 165.00,106.64 165.00,87.43 L 165.00 67.35 L 156.00 64.22 L 147.00 61.09 L 147.00 88.57 L 149.75 90.20 C155.12,93.38 157.50,96.84 157.50,101.48 C157.50,104.16 156.85,106.51 155.77,107.70 C153.78,109.90 153.36,116.02 153.78,137.00 ZM 103.00 262.81 L 103.00 225.74 L 99.25 226.36 C97.19,226.70 94.60,226.98 93.50,226.99 C91.53,227.00 91.50,227.57 91.79,260.19 C92.00,284.06 92.41,293.79 93.27,294.83 C95.03,296.95 101.38,300.83 102.25,300.32 C102.66,300.08 103.00,283.20 103.00,262.81 ZM 194.16 103.50 L 212.01 120.09 L 218.75 119.80 L 225.50 119.50 L 225.50 115.50 C225.50,111.80 225.28,111.48 222.50,111.17 C219.03,110.78 213.73,107.05 211.23,103.23 C210.28,101.77 209.47,98.77 209.44,96.54 C209.40,94.32 209.29,90.47 209.19,87.99 L 209.00 83.49 L 201.50 80.79 L 194.00 78.09 L 194.08 90.80 L 194.16 103.50 ZM 69.00 262.23 L 69.00 249.46 L 59.20 239.70 L 49.39 229.93 L 38.45 230.21 C28.05,230.49 27.48,230.61 27.19,232.69 C27.01,233.91 27.79,235.79 28.94,236.94 C30.70,238.70 32.27,239.00 39.75,239.03 L 48.50 239.05 L 55.25 245.47 L 62.00 251.88 L 62.00 261.37 C62.00,270.43 62.12,270.95 64.63,272.93 C66.08,274.07 67.66,275.00 68.13,275.00 C68.61,275.00 69.00,269.25 69.00,262.23 ZM 747.94 177.42 C746.85,176.11 746.93,175.29 748.41,172.53 C749.86,169.85 750.13,167.42 749.84,159.86 C749.53,151.75 749.03,149.54 746.10,143.27 C738.81,127.67 723.69,118.05 706.43,118.01 C696.40,118.00 688.53,120.22 684.91,124.09 C683.42,125.69 681.49,127.00 680.63,127.00 C678.29,127.00 676.81,123.63 678.29,121.65 C680.36,118.87 693.77,114.87 703.00,114.29 C718.40,113.32 730.08,118.02 740.85,129.54 C750.27,139.62 754.08,149.68 753.91,164.00 C753.86,168.68 754.13,173.29 754.52,174.26 C756.03,178.03 750.60,180.63 747.94,177.42 ZM 688.66 67.56 C688.30,66.61 688.00,53.60 688.00,38.64 C688.00,12.68 687.91,11.37 686.00,9.73 C683.44,7.54 683.41,3.39 685.93,2.04 C691.88,-1.15 695.38,3.37 692.04,9.91 C690.27,13.39 690.11,15.81 690.20,37.39 C690.25,50.41 690.61,61.26 690.99,61.49 C692.24,62.27 701.16,51.00 702.16,47.39 C702.92,44.63 702.79,43.33 701.57,41.46 C699.48,38.28 699.59,34.68 701.83,32.65 C704.38,30.35 707.60,30.59 709.44,33.22 C711.70,36.45 711.37,38.51 708.15,41.22 C706.36,42.73 705.02,45.07 704.57,47.48 C704.09,50.01 702.07,53.41 698.67,57.38 C693.14,63.86 692.64,64.48 690.63,67.39 C689.42,69.14 689.27,69.15 688.66,67.56 ZM 684.20 324.80 C682.43,323.03 682.74,320.15 685.00,317.27 C686.85,314.92 687.00,313.22 687.00,293.99 C687.00,274.01 686.47,266.60 685.08,267.21 C684.72,267.37 682.42,269.70 679.96,272.39 L 675.50 277.27 L 675.67 285.55 C675.81,292.52 675.54,294.10 673.96,295.54 C671.60,297.67 667.51,296.82 665.93,293.86 C664.41,291.03 666.03,287.57 669.69,285.82 C672.00,284.72 672.59,283.67 673.02,279.99 C673.43,276.43 674.43,274.56 677.84,271.00 C680.21,268.52 683.50,264.56 685.17,262.18 C686.83,259.80 688.40,258.07 688.66,258.32 C688.91,258.58 689.08,271.56 689.03,287.16 C688.96,310.90 689.19,315.87 690.44,317.52 C692.43,320.15 692.42,324.63 690.42,325.39 C687.94,326.34 685.51,326.11 684.20,324.80 ZM 547.00 237.07 L 547.00 224.00 L 554.55 224.00 C561.30,224.00 562.36,224.27 564.64,226.55 C567.51,229.42 567.32,232.34 563.96,237.06 C562.08,239.69 562.08,239.80 564.03,243.82 C566.48,248.90 566.50,250.00 564.13,250.00 C562.84,250.00 561.63,248.47 560.19,245.00 C558.26,240.35 557.87,240.00 554.61,240.00 C551.14,240.00 551.11,240.05 550.80,244.74 C550.58,248.31 550.07,249.56 548.75,249.81 C547.16,250.12 547.00,248.98 547.00,237.07 ZM 663.06 70.75 C663.02,70.49 663.00,70.22 663.00,69.96 C663.00,69.03 661.20,66.51 659.00,64.38 L 655.00 60.50 L 655.00 38.44 C655.00,20.59 654.72,16.01 653.53,14.44 C650.59,10.55 652.23,6.00 656.58,6.00 C659.88,6.00 660.74,7.83 661.17,15.78 C661.56,22.87 661.68,23.16 665.78,26.92 C670.65,31.36 671.29,35.09 667.92,39.37 C666.44,41.26 665.81,43.60 665.72,47.58 C665.59,52.99 665.71,53.26 670.29,57.46 C670.49,57.64 670.68,57.81 670.86,57.98 C670.82,57.95 670.79,57.92 670.75,57.88 C668.41,55.75 666.16,54.00 665.75,54.00 C664.13,54.00 665.16,55.63 668.60,58.52 C670.51,60.13 671.50,61.28 672.07,62.96 C671.44,61.16 670.25,59.91 667.60,57.67 C663.20,53.96 663.00,53.57 663.00,48.47 C663.00,45.54 663.56,42.54 664.25,41.80 C665.65,40.29 666.13,38.89 666.75,34.43 C667.10,31.89 666.56,30.82 663.59,28.21 C661.25,26.16 660.00,24.18 660.00,22.53 C660.00,21.14 659.61,20.00 659.14,20.00 C657.60,20.00 656.98,30.61 657.65,45.41 L 658.30 59.88 L 662.15 63.52 C664.90,66.13 666.00,68.00 666.00,70.08 C666.00,70.46 665.98,70.81 665.95,71.12 C665.78,70.48 665.19,70.00 664.50,70.00 C663.71,70.00 663.22,70.30 663.06,70.75 ZM 315.51 248.01 C314.23,246.60 313.71,244.41 313.71,240.43 C313.71,233.28 316.08,230.48 322.01,230.64 C325.90,230.74 326.00,230.66 326.00,227.34 C326.00,223.81 328.52,221.60 329.94,223.90 C330.86,225.40 331.32,245.41 330.49,248.04 C329.96,249.71 328.94,250.00 323.59,250.00 C318.59,250.00 316.94,249.59 315.51,248.01 ZM 59.43 255.50 C58.91,252.25 57.68,250.51 52.90,246.25 L 47.02 241.00 L 40.01 241.00 C36.15,241.00 33.00,241.40 33.00,241.89 C33.00,242.37 38.69,248.56 45.64,255.64 L 58.29 268.50 L 59.18 264.00 C59.67,261.52 59.78,257.70 59.43,255.50 ZM 485.90 246.25 C485.35,224.39 485.41,223.50 487.50,223.50 C489.09,223.50 489.56,224.27 489.81,227.25 C490.12,230.95 490.18,231.00 494.41,231.00 C501.09,231.00 504.11,236.18 501.99,244.02 C500.69,248.87 498.72,250.00 491.57,250.00 L 486.00 250.00 ZM 798.65 133.01 C798.95,133.00 799.26,133.00 799.57,133.00 C807.24,133.00 807.54,132.81 817.26,121.68 C818.51,120.26 820.67,119.53 824.59,119.20 C829.24,118.82 830.29,118.37 831.02,116.46 C832.18,113.39 835.43,112.48 838.21,114.44 C839.87,115.60 842.98,116.00 850.35,116.00 C858.72,116.00 860.80,115.67 863.71,113.87 C866.53,112.13 867.58,111.94 869.57,112.85 C872.25,114.07 872.96,118.64 870.80,120.80 C868.92,122.68 864.62,122.23 863.23,120.00 C862.12,118.21 860.90,118.00 851.89,118.00 C841.89,118.00 841.78,118.03 838.90,121.11 C836.77,123.39 835.54,124.00 834.25,123.41 C833.29,122.97 829.75,122.44 826.38,122.23 L 820.27 121.84 L 814.38 128.42 L 808.50 135.00 L 801.25 135.00 C800.50,135.00 799.79,134.99 799.12,134.96 C800.78,134.84 802.00,134.45 802.00,134.00 C802.00,133.51 800.55,133.09 798.65,133.01 ZM 695.57 337.43 C693.59,335.45 693.56,332.59 695.49,330.66 C696.60,329.55 697.12,325.64 697.55,315.26 C698.04,303.39 697.90,301.16 696.56,300.05 C694.63,298.45 694.35,290.62 696.25,291.24 C696.94,291.47 697.64,293.31 697.81,295.33 C697.98,297.35 698.50,299.00 698.96,299.00 C700.18,299.00 700.69,289.08 699.50,288.60 C698.95,288.38 699.96,286.78 701.75,285.05 C703.54,283.32 704.99,281.13 704.98,280.20 C704.98,279.26 703.18,276.48 701.00,274.00 C697.28,269.79 697.03,269.10 697.02,263.25 C697.01,259.74 697.44,257.00 698.00,257.00 C698.98,257.00 699.43,258.52 699.04,260.48 C698.32,264.11 700.46,270.10 704.03,274.42 C706.21,277.06 708.00,279.87 708.00,280.67 C708.00,281.46 706.58,283.41 704.85,284.99 C701.75,287.82 701.71,287.98 702.29,294.87 C702.66,299.36 702.50,302.00 701.83,302.22 C700.36,302.71 699.36,328.99 700.77,329.86 C702.81,331.12 703.24,335.61 701.50,337.36 C699.44,339.42 697.59,339.44 695.57,337.43 ZM 215.75 104.51 C221.06,109.49 224.63,110.31 225.53,106.74 C225.84,105.49 225.96,101.11 225.80,96.99 L 225.50 89.51 L 219.08 87.22 C211.40,84.49 211.04,84.79 211.02,93.78 C211.00,99.98 211.06,100.11 215.75,104.51 ZM 121.29 211.87 L 118.98 216.50 L 119.02 235.04 C119.06,248.54 118.64,255.43 117.49,260.39 C116.46,264.81 115.90,272.11 115.87,281.18 C115.84,293.10 116.09,295.44 117.57,297.08 C119.01,298.66 119.11,299.46 118.18,301.50 C116.94,304.24 115.87,304.53 112.93,302.96 C110.99,301.92 110.25,297.58 111.84,296.60 C112.30,296.31 112.99,288.97 113.37,280.29 C113.74,271.60 114.55,262.48 115.17,260.00 C116.48,254.70 117.49,220.00 116.33,220.00 C115.96,220.00 113.93,220.89 111.55,222.08 C112.24,221.67 112.93,221.22 113.66,220.74 C117.10,218.44 118.84,216.49 121.29,211.87 ZM 407.20 248.80 C405.35,246.95 405.78,242.22 408.00,240.00 C409.25,238.75 411.33,238.00 413.57,238.00 C416.44,238.00 417.08,237.65 416.80,236.25 C416.53,234.92 415.45,234.50 412.25,234.50 C407.38,234.50 406.57,233.07 410.39,231.18 C413.27,229.76 418.84,230.89 420.85,233.32 C421.96,234.66 422.45,239.26 422.18,245.75 L 422.00 250.00 L 415.20 250.00 C411.24,250.00 407.90,249.50 407.20,248.80 ZM 792.50 123.00 C792.84,122.45 795.14,122.00 797.62,122.00 C801.41,122.00 802.58,121.49 805.11,118.75 C811.01,112.34 816.16,105.07 815.53,104.05 C814.34,102.12 812.72,102.96 806.91,108.50 L 801.15 114.00 L 794.07 114.00 C791.89,114.00 790.01,113.88 788.74,113.67 C788.90,113.49 789.00,113.26 789.00,113.00 C789.00,112.47 788.58,112.03 788.05,112.00 C789.04,111.84 790.94,111.87 794.55,111.98 L 799.61 112.13 L 808.88 103.06 C813.98,98.08 818.47,94.00 818.85,94.00 C819.24,94.00 820.56,94.70 821.78,95.56 C824.90,97.74 824.62,101.42 821.15,103.89 C819.59,105.01 816.34,108.52 813.93,111.71 C805.68,122.62 803.84,124.00 797.49,124.00 C794.01,124.00 792.12,123.62 792.50,123.00 ZM 571.07 247.37 C567.04,242.24 568.99,233.10 574.56,230.98 C579.62,229.05 586.00,233.79 586.00,239.46 C586.00,241.92 585.79,242.00 579.50,242.00 C572.95,242.00 572.30,242.34 573.92,244.90 C574.57,245.93 576.01,246.13 579.36,245.67 C581.86,245.33 584.16,245.45 584.47,245.94 C585.61,247.79 581.82,250.00 577.50,250.00 C573.99,250.00 572.74,249.49 571.07,247.37 ZM 698.50 250.19 C694.39,249.39 692.00,245.97 692.00,240.88 C692.00,232.31 698.71,227.96 705.28,232.27 C707.64,233.81 709.58,239.25 708.44,241.10 C708.13,241.60 705.46,242.00 702.50,242.00 C696.26,242.00 694.88,243.22 698.47,245.57 C700.63,246.99 701.47,247.05 704.04,245.98 C707.71,244.46 708.42,244.95 706.51,247.69 C704.98,249.86 701.85,250.84 698.50,250.19 ZM 636.17 247.69 C631.85,243.09 634.18,232.35 639.89,230.53 C642.22,229.79 646.94,231.55 648.64,233.79 C649.35,234.73 649.95,236.96 649.97,238.75 L 650.00 242.00 L 643.93 242.00 C638.67,242.00 637.90,242.24 638.21,243.75 C638.51,245.18 639.52,245.46 643.79,245.28 C647.75,245.12 649.00,245.41 649.00,246.50 C649.00,250.41 639.55,251.28 636.17,247.69 ZM 451.09 250.14 C446.52,248.84 444.50,244.65 444.50,236.45 C444.50,229.82 444.77,228.78 447.10,226.45 C450.66,222.88 456.45,222.24 460.75,224.93 C464.24,227.12 465.11,230.02 462.25,229.97 C461.29,229.95 459.63,229.28 458.56,228.47 C455.92,226.47 452.65,226.62 450.65,228.83 C448.75,230.93 448.34,240.91 450.04,244.07 C451.52,246.83 458.51,246.79 460.00,244.00 C461.13,241.89 463.48,241.34 464.47,242.95 C465.44,244.52 459.72,249.82 456.50,250.34 C454.85,250.60 452.42,250.51 451.09,250.14 ZM 507.60 247.75 C506.12,245.43 505.70,242.87 505.89,237.24 C505.98,234.69 506.72,233.53 509.25,231.96 C511.30,230.70 513.42,230.16 515.00,230.52 C518.51,231.30 522.00,235.56 522.00,239.06 C522.00,241.98 521.97,242.00 516.06,242.00 C509.81,242.00 508.04,242.96 510.50,245.00 C511.49,245.82 513.49,246.00 516.49,245.55 C521.28,244.84 522.16,245.70 519.43,248.43 C518.48,249.38 516.12,250.00 513.45,250.00 C509.98,250.00 508.74,249.52 507.60,247.75 ZM 779.60 101.16 C779.32,100.70 780.75,98.73 782.79,96.78 L 786.50 93.24 L 798.50 92.61 C810.46,91.97 810.51,91.96 813.34,88.73 C814.90,86.96 817.96,82.80 820.14,79.50 C823.38,74.59 823.99,72.91 823.51,70.29 C822.76,66.17 825.91,62.53 829.30,63.58 C834.65,65.25 833.97,71.61 828.24,73.42 C827.28,73.73 824.18,77.47 821.35,81.74 C816.48,89.09 814.43,92.37 811.48,93.83 C808.93,95.09 805.72,95.00 799.46,95.00 L 787.83 95.00 L 784.43 98.50 C780.80,102.24 780.40,102.46 779.60,101.16 ZM 336.55 248.66 C334.03,246.82 333.01,233.07 335.25,231.21 C337.61,229.25 338.85,231.72 339.20,239.04 C339.49,245.34 339.57,245.51 342.39,245.83 C346.19,246.26 346.97,244.81 346.98,237.18 C347.00,231.70 347.23,230.90 348.75,231.19 C350.24,231.47 350.54,232.89 350.79,240.76 L 351.08 250.00 L 344.73 250.00 C341.01,250.00 337.63,249.45 336.55,248.66 ZM 134.00 97.54 C134.00,121.43 133.84,124.00 132.36,124.00 C130.85,124.00 130.77,121.71 131.44,97.45 C131.97,77.87 131.86,70.53 131.00,69.50 C129.13,67.25 130.18,63.55 132.81,63.17 C137.47,62.51 139.98,67.87 136.00,70.00 C134.08,71.03 134.00,72.09 134.00,97.54 ZM 590.20 248.80 C587.46,246.06 588.82,244.91 594.00,245.59 C598.17,246.15 599.00,246.00 599.00,244.67 C599.00,243.68 597.79,242.86 595.75,242.47 C587.65,240.94 585.71,233.58 592.70,230.92 C596.92,229.32 603.00,232.07 603.00,235.58 C603.00,236.43 599.92,235.96 598.12,234.84 C597.10,234.21 595.53,233.97 594.63,234.31 C592.04,235.31 592.73,237.91 595.75,238.52 C603.08,240.02 605.97,244.16 602.43,248.08 C600.42,250.30 592.18,250.78 590.20,248.80 ZM 723.25 322.36 C721.55,321.64 721.68,316.85 723.49,313.36 C724.66,311.12 724.99,306.44 724.99,291.82 C725.00,281.54 724.60,272.08 724.11,270.79 C723.62,269.50 721.82,266.95 720.11,265.12 C718.40,263.29 716.93,260.94 716.85,259.89 C716.83,259.69 716.82,259.48 716.80,259.26 C717.50,261.54 719.21,264.34 721.44,266.50 C723.40,268.41 725.00,270.45 725.00,271.04 C725.00,271.63 725.41,271.87 725.91,271.56 C727.19,270.77 726.27,267.99 724.36,266.25 L 726.50 267.97 L 727.05 290.23 C727.44,306.37 727.99,313.40 729.02,315.78 C731.16,320.65 727.94,324.32 723.25,322.36 ZM 294.00 240.57 L 294.00 231.00 L 300.44 231.00 C308.81,231.00 310.00,232.47 310.00,242.80 C310.00,249.26 309.79,250.11 308.25,249.81 C306.85,249.55 306.40,248.12 306.00,242.59 C305.63,237.49 305.05,235.42 303.75,234.61 C300.37,232.49 298.55,235.01 298.00,242.59 C297.60,248.12 297.15,249.55 295.75,249.81 C294.18,250.11 294.00,249.15 294.00,240.57 ZM 355.60 248.70 C352.48,246.41 354.51,245.04 360.03,245.69 C362.88,246.03 365.00,245.88 365.00,245.34 C365.00,243.69 362.67,242.00 360.41,242.00 C359.21,242.00 357.17,241.15 355.88,240.10 C353.87,238.47 353.68,237.81 354.54,235.36 C355.95,231.36 360.07,229.54 364.44,230.98 C368.21,232.22 369.81,234.75 367.42,235.67 C366.56,236.00 364.79,235.69 363.47,234.98 C361.51,233.93 360.78,233.94 359.49,235.01 C357.59,236.58 358.34,237.39 363.13,238.92 C365.13,239.55 367.57,240.97 368.56,242.06 C370.29,243.98 370.28,244.15 368.33,246.77 C366.74,248.90 365.33,249.56 361.90,249.79 C359.28,249.97 356.73,249.52 355.60,248.70 ZM 116.22 108.44 C113.92,106.83 113.25,103.58 115.00,102.50 C115.60,102.13 116.00,95.70 116.00,86.56 C116.00,74.17 115.71,71.01 114.50,70.00 C112.60,68.42 112.57,65.60 114.45,64.04 C116.17,62.61 119.58,63.47 120.38,65.54 C121.05,67.29 120.15,70.00 118.89,70.00 C118.40,70.00 118.00,76.91 118.00,85.35 C118.00,99.42 118.17,100.84 120.00,102.50 C122.26,104.55 122.58,107.02 120.80,108.80 C119.26,110.34 118.89,110.31 116.22,108.44 ZM 654.00 240.55 L 654.00 231.11 L 658.75 230.80 C665.03,230.40 668.88,231.68 669.56,234.38 C669.86,235.58 669.97,239.47 669.80,243.03 C669.57,247.98 669.15,249.50 668.00,249.50 C666.83,249.50 666.43,247.89 666.21,242.20 C665.88,234.20 664.82,232.85 660.44,234.85 C658.19,235.87 658.00,236.51 658.00,242.98 C658.00,249.33 657.81,250.00 656.00,250.00 C654.14,250.00 654.00,249.33 654.00,240.55 ZM 469.00 257.04 C469.00,256.43 469.65,254.39 470.44,252.49 C471.78,249.27 471.68,248.52 468.94,241.00 C465.56,231.73 465.45,231.00 467.52,231.00 C468.35,231.00 469.75,232.69 470.64,234.75 C474.26,243.21 474.81,243.39 476.86,236.79 C478.44,231.70 481.01,229.52 480.99,233.28 C480.99,234.50 479.24,240.45 477.11,246.50 C473.97,255.41 472.83,257.56 471.12,257.82 C469.95,258.00 469.00,257.64 469.00,257.04 ZM 801.50 148.00 C800.64,146.61 801.81,145.00 803.69,145.00 C804.55,145.00 807.00,143.43 809.13,141.50 C812.88,138.12 813.27,138.00 820.97,138.00 C827.73,138.00 829.08,137.72 829.93,136.12 C831.58,133.06 834.90,132.81 837.65,135.56 C840.21,138.12 839.91,140.17 836.57,142.94 C835.30,143.99 834.41,143.85 831.46,142.11 C826.80,139.36 815.01,139.08 812.87,141.67 C811.19,143.71 804.00,149.00 802.91,149.00 C802.47,149.00 801.84,148.55 801.50,148.00 ZM 679.09 249.93 C675.45,248.44 674.07,245.98 674.03,240.88 C673.98,233.11 679.30,228.82 686.08,231.18 C689.14,232.25 690.61,234.79 689.06,236.34 C688.38,237.02 687.44,236.80 686.19,235.68 C684.25,233.92 682.23,233.59 679.58,234.61 C678.44,235.05 678.00,236.56 678.00,240.07 C678.00,246.23 680.27,247.94 685.11,245.45 C689.00,243.43 690.83,244.79 688.29,247.80 C686.11,250.38 682.33,251.25 679.09,249.93 ZM 828.44 181.53 C827.14,180.55 824.00,180.05 818.94,180.03 C812.01,180.00 811.25,179.84 808.69,177.16 C809.98,178.21 811.00,178.29 811.00,177.15 C811.00,175.82 807.41,172.92 806.67,173.67 C806.33,174.00 806.67,174.97 807.43,175.90 C805.96,174.55 804.26,173.32 803.27,172.93 C801.83,172.37 801.25,171.52 801.63,170.53 C802.55,168.13 803.75,168.66 808.58,173.64 L 813.09 178.28 L 819.70 177.66 C824.49,177.22 826.83,176.49 828.19,175.02 C830.59,172.45 834.61,172.40 835.96,174.93 C837.42,177.65 837.26,179.60 835.43,181.43 C833.46,183.40 830.95,183.43 828.44,181.53 ZM 827.03 162.53 C826.11,161.43 822.93,160.99 814.23,160.78 C806.07,160.58 802.54,160.13 802.25,159.25 C801.93,158.30 804.67,158.00 813.79,158.00 C822.79,158.00 826.04,157.66 826.91,156.61 C828.69,154.47 831.65,154.07 833.94,155.67 C836.22,157.27 836.66,160.94 834.80,162.80 C833.14,164.46 828.50,164.30 827.03,162.53 ZM 829.00 214.27 C828.17,213.96 827.14,213.10 826.70,212.35 C826.13,211.39 823.37,210.97 817.20,210.91 L 808.50 210.81 L 800.60 202.39 C799.08,200.78 797.70,199.23 796.56,197.89 C797.43,198.86 798.44,199.93 799.53,201.03 C806.06,207.61 808.00,209.03 808.00,207.22 C808.00,205.80 794.19,192.72 793.34,193.32 C793.35,193.32 793.35,193.32 793.35,193.31 C793.71,192.95 797.81,196.36 802.45,200.89 L 810.89 209.13 L 818.20 208.44 C822.21,208.06 826.21,207.13 827.08,206.38 C830.30,203.57 836.00,205.55 836.00,209.46 C836.00,213.54 832.82,215.72 829.00,214.27 ZM 833.50 197.00 C833.16,196.45 828.61,196.00 823.30,196.00 L 813.71 196.00 L 811.57 193.88 C811.63,193.67 811.67,193.17 811.67,192.60 C811.67,191.82 809.15,188.44 806.08,185.09 C805.37,184.31 804.74,183.63 804.17,183.04 C805.17,184.00 806.35,185.20 807.77,186.68 L 815.03 194.28 L 823.26 193.60 C830.08,193.03 831.92,192.49 834.05,190.46 C837.11,187.52 838.16,187.41 840.35,189.83 C842.29,191.98 842.49,195.11 840.80,196.80 C839.35,198.25 834.36,198.39 833.50,197.00 ZM 427.20 248.80 C426.40,248.00 426.00,243.64 426.00,235.77 C426.00,225.84 426.26,223.84 427.60,223.32 C430.24,222.31 430.97,224.97 430.98,235.63 C431.00,243.40 431.35,246.05 432.50,247.00 C433.33,247.68 434.00,248.64 434.00,249.12 C434.00,250.44 428.58,250.18 427.20,248.80 ZM 375.25 248.85 C374.53,248.13 374.00,245.06 374.00,241.63 C374.00,237.64 373.49,235.09 372.45,233.95 C371.06,232.40 371.06,232.09 372.45,230.69 C373.30,229.84 374.00,228.44 374.00,227.57 C374.00,226.67 374.85,226.00 376.00,226.00 C377.36,226.00 378.00,226.67 378.00,228.09 C378.00,229.35 378.80,230.40 380.00,230.71 C381.10,231.00 382.00,231.86 382.00,232.62 C382.00,233.38 381.10,234.00 380.00,234.00 C378.22,234.00 378.00,234.67 378.00,239.93 C378.00,245.32 378.21,245.89 380.25,246.18 C381.49,246.36 382.50,247.18 382.50,248.00 C382.50,249.91 376.96,250.56 375.25,248.85 ZM 816.20 237.80 C815.54,237.14 815.00,235.27 815.00,233.64 C815.00,231.24 813.13,228.77 805.12,220.59 C803.20,218.63 801.45,216.82 799.86,215.17 C801.51,216.73 802.65,217.55 802.77,217.18 C803.00,216.50 800.54,213.05 797.72,209.62 C799.58,211.64 801.77,213.97 804.10,216.40 C813.00,225.66 816.84,229.00 818.60,229.00 C820.87,229.00 825.00,232.09 825.00,233.78 C825.00,234.21 824.30,235.56 823.44,236.78 C821.75,239.20 818.11,239.71 816.20,237.80 ZM 674.37 39.14 C676.10,34.62 676.32,25.20 674.64,21.65 C672.50,17.14 672.57,15.30 674.93,14.04 C681.63,10.45 685.58,17.96 679.60,22.91 C678.42,23.90 678.00,26.03 678.00,31.09 C678.00,35.97 677.48,38.77 676.10,41.31 C676.75,39.40 676.99,37.00 676.27,37.00 C675.69,37.00 674.95,37.96 674.37,39.14 ZM 525.13 240.55 L 524.93 231.00 L 528.96 230.85 C531.18,230.77 533.56,230.65 534.24,230.60 C536.88,230.39 535.97,233.57 533.08,234.66 C530.22,235.74 530.08,236.07 529.80,242.64 C529.53,248.72 529.26,249.53 527.41,249.80 C525.43,250.08 525.32,249.61 525.13,240.55 ZM 617.13 248.66 C616.31,247.67 616.02,243.47 616.22,235.36 C616.45,225.61 616.77,223.50 618.00,223.50 C619.23,223.50 619.55,225.53 619.78,234.64 C620.04,244.95 620.22,245.82 622.14,246.33 C623.28,246.62 624.02,247.46 623.78,248.18 C623.17,250.05 618.56,250.38 617.13,248.66 ZM 116.00 165.12 L 116.00 159.25 L 108.50 154.07 C103.53,150.63 101.00,148.23 101.00,146.94 C101.00,145.32 100.37,145.04 93.24,145.02 C94.76,145.01 96.45,145.00 98.32,145.00 C101.75,145.00 104.57,145.02 106.90,145.06 C104.64,145.19 103.00,145.56 103.00,145.99 C103.00,146.54 106.38,149.33 110.50,152.20 L 118.00 157.41 L 118.00 165.84 C118.00,172.67 118.40,174.91 120.11,177.68 C120.26,177.92 120.39,178.13 120.52,178.34 C117.51,174.23 114.38,171.13 110.83,168.88 C113.09,170.01 114.92,170.86 115.25,170.90 C115.66,170.96 116.00,168.36 116.00,165.12 ZM 69.53 204.05 C70.44,205.51 76.94,204.79 78.21,203.09 C79.21,201.76 79.18,201.70 78.00,202.75 C77.23,203.44 76.13,203.99 75.55,203.98 C74.97,203.97 76.75,201.90 79.50,199.38 C82.25,196.86 83.11,195.88 81.41,197.21 C79.70,198.53 76.21,200.41 73.65,201.39 C72.96,201.65 72.33,201.93 71.77,202.21 C72.62,201.72 73.65,201.19 74.78,200.67 C77.93,199.22 82.97,196.19 86.00,193.93 C89.03,191.67 93.22,189.02 95.32,188.04 C97.59,186.98 98.45,186.53 98.20,186.21 C99.49,186.59 100.30,187.15 101.27,187.99 C101.45,188.14 101.62,188.30 101.78,188.46 C100.78,187.79 99.89,188.14 96.76,189.67 C94.42,190.81 88.97,194.62 84.65,198.12 L 76.79 204.50 L 86.15 205.00 C86.99,205.05 87.79,205.08 88.54,205.11 C85.54,205.26 81.91,205.37 77.50,205.50 C57.48,206.06 56.41,206.19 54.65,208.28 C54.11,208.92 53.72,209.55 53.47,210.34 C54.39,206.70 57.16,205.58 63.35,205.19 C67.00,204.96 69.77,204.44 69.52,204.03 C69.51,204.01 69.50,203.99 69.50,203.97 C69.51,204.00 69.52,204.03 69.53,204.05 ZM 385.82 242.31 C385.33,231.22 385.42,231.00 390.62,231.00 C395.59,231.00 396.59,232.96 392.55,234.80 C390.34,235.80 390.06,236.61 389.80,242.70 C389.56,248.09 389.16,249.54 387.83,249.80 C386.41,250.07 386.11,248.95 385.82,242.31 ZM 498.07 243.33 C500.23,237.64 496.99,232.92 492.00,234.50 C490.37,235.02 490.00,236.01 490.00,239.90 C490.00,245.46 490.37,246.00 494.19,246.00 C496.37,246.00 497.29,245.36 498.07,243.33 ZM 285.22 236.75 C285.45,225.76 285.76,223.50 287.00,223.50 C288.24,223.50 288.55,225.76 288.78,236.75 C289.05,249.55 288.99,250.00 287.00,250.00 C285.01,250.00 284.95,249.55 285.22,236.75 ZM 325.92 244.14 C326.47,243.12 326.65,240.64 326.33,238.63 C325.88,235.86 325.15,234.83 323.35,234.37 C319.85,233.50 318.00,235.60 318.00,240.46 C318.00,242.77 318.30,244.97 318.67,245.33 C320.09,246.76 324.95,245.96 325.92,244.14 ZM 560.95 234.56 C563.21,231.83 561.81,228.64 558.00,227.83 C552.73,226.71 551.00,227.59 551.00,231.40 C551.00,233.20 551.30,234.97 551.67,235.33 C552.91,236.58 559.75,236.01 560.95,234.56 ZM 632.49 109.99 L 628.50 105.91 L 627.91 91.70 C627.32,77.54 627.68,75.56 630.66,76.70 C632.22,77.30 632.47,81.59 631.00,82.50 C630.44,82.85 630.00,87.68 630.00,93.56 L 630.00 103.99 L 633.59 107.97 C634.44,108.91 635.11,109.73 635.61,110.43 C634.11,108.69 631.79,106.88 631.21,107.46 C630.91,107.76 631.88,109.27 633.38,110.87 C633.10,110.60 632.80,110.31 632.49,109.99 ZM 702.84 316.54 C701.93,314.56 702.05,313.57 703.47,311.41 C704.65,309.60 705.04,307.65 704.67,305.37 C704.37,303.52 704.31,302.00 704.54,302.00 C704.76,302.00 706.33,304.80 708.03,308.22 C710.54,313.27 710.92,314.87 710.08,316.72 C708.63,319.91 704.32,319.81 702.84,316.54 ZM 126.00 163.15 C126.00,162.72 126.00,162.31 126.00,161.91 C126.01,162.27 126.03,162.63 126.04,163.00 L 126.58 177.50 L 126.79 162.92 C126.99,148.80 127.08,148.28 129.50,146.00 C130.88,144.71 132.00,144.08 132.00,144.60 C132.00,145.13 131.09,146.33 129.99,147.28 C128.08,148.91 128.01,149.77 128.64,163.02 C129.30,176.77 129.26,177.09 126.98,179.52 C124.35,182.32 123.72,182.60 121.81,180.11 C122.44,180.70 122.91,180.46 123.83,179.65 C123.33,180.11 123.00,180.49 123.00,180.62 C123.00,181.45 123.82,180.92 125.13,179.25 C126.37,177.66 126.34,177.63 124.75,178.87 C124.52,179.05 124.30,179.23 124.10,179.41 C124.11,179.40 124.11,179.40 124.11,179.40 C125.80,177.87 126.00,176.13 126.00,163.15 ZM 399.00 240.00 C399.00,232.12 399.30,230.00 400.39,230.00 C402.48,230.00 403.00,232.31 403.00,241.58 C403.00,249.33 402.84,250.00 401.00,250.00 C399.13,250.00 399.00,249.33 399.00,240.00 ZM 626.21 240.25 C626.44,232.38 626.79,230.50 628.00,230.50 C629.17,230.50 629.64,232.39 630.13,238.98 C630.85,248.62 630.56,250.00 627.86,250.00 C626.06,250.00 625.95,249.31 626.21,240.25 ZM 607.82 247.25 C607.12,241.16 608.15,231.00 609.48,231.00 C611.38,231.00 612.00,233.35 612.00,240.50 C612.00,243.99 611.73,247.55 611.39,248.42 C610.41,250.97 608.16,250.23 607.82,247.25 ZM 88.42 163.13 C89.08,162.06 75.51,149.83 74.63,150.71 C74.50,150.84 74.39,151.02 74.30,151.26 C74.62,149.14 75.42,148.11 77.46,146.86 C77.87,146.61 78.28,146.39 78.74,146.20 C77.21,147.69 79.08,150.49 84.54,154.95 C87.54,157.40 90.24,160.19 90.55,161.15 C91.16,163.08 92.34,163.54 99.00,164.45 C99.91,164.57 101.09,164.86 102.37,165.26 C98.94,164.37 95.11,163.94 90.70,163.89 C89.63,163.88 88.61,163.85 87.65,163.78 C87.98,163.63 88.24,163.41 88.42,163.13 ZM 125.79 97.45 C125.90,81.02 125.92,70.57 125.78,64.15 C125.97,70.35 126.06,80.10 126.10,94.83 C126.15,116.65 126.56,133.38 127.00,132.00 C127.55,130.28 127.80,131.84 127.80,137.00 L 127.79 144.50 L 126.47 140.50 C125.60,137.84 125.13,137.23 125.08,138.69 C125.03,139.90 124.55,141.16 124.00,141.50 C123.89,141.57 123.79,141.53 123.70,141.40 C123.85,141.46 124.03,141.37 124.25,141.15 C125.20,140.20 125.57,129.76 125.79,97.45 ZM 127.00 184.44 C127.00,184.03 126.82,183.65 126.52,183.39 C129.83,183.86 130.92,180.59 131.25,169.96 L 131.58 159.50 L 131.79 170.82 C131.96,180.09 131.71,182.43 130.39,183.75 C129.18,184.96 128.89,186.69 129.22,190.68 C129.47,193.61 129.37,196.00 129.00,196.00 C127.54,196.00 127.00,194.47 127.00,190.33 C127.00,188.03 126.73,186.66 126.20,186.32 C126.66,185.94 127.00,185.26 127.00,184.44 ZM 679.33 63.47 C679.22,57.95 679.02,56.89 676.24,53.75 C679.35,56.94 681.00,57.79 681.00,56.20 C681.00,56.16 681.00,56.12 680.99,56.07 C681.93,57.76 682.00,59.44 682.00,63.36 C682.00,68.07 681.63,70.00 680.73,70.00 C679.84,70.00 679.42,68.02 679.33,63.47 ZM 704.30 238.37 C705.54,237.13 702.89,234.00 700.59,234.00 C697.95,234.00 695.49,236.37 696.47,237.96 C697.17,239.08 703.26,239.40 704.30,238.37 ZM 582.00 238.33 C582.00,236.88 578.59,234.00 576.88,234.00 C574.99,234.00 572.61,237.27 573.70,238.37 C574.55,239.22 582.00,239.18 582.00,238.33 ZM 636.00 78.67 L 636.00 71.00 C636.00,71.92 636.34,73.01 636.75,73.43 C637.16,73.85 637.64,72.75 637.82,70.99 C637.84,70.84 637.85,70.69 637.86,70.54 C638.24,72.96 638.18,76.25 638.10,81.75 C638.04,85.19 637.55,88.00 637.00,88.00 C636.40,88.00 636.00,84.22 636.00,78.67 ZM 708.36 38.50 C709.22,36.27 708.03,34.00 706.02,34.00 C703.25,34.00 701.47,36.65 703.00,38.50 C703.68,39.33 705.04,40.00 706.02,40.00 C706.99,40.00 708.05,39.33 708.36,38.50 ZM 645.53 237.96 C646.41,236.53 644.15,234.00 642.00,234.00 C639.85,234.00 637.59,236.53 638.47,237.96 C638.83,238.53 640.41,239.00 642.00,239.00 C643.59,239.00 645.17,238.53 645.53,237.96 ZM 517.34 238.33 C518.19,237.48 515.08,234.00 513.47,234.00 C511.75,234.00 509.70,236.70 510.47,237.96 C511.19,239.11 516.28,239.39 517.34,238.33 ZM 672.99 292.51 C674.65,290.51 673.54,288.00 671.00,288.00 C669.87,288.00 668.68,288.68 668.36,289.51 C667.78,291.01 669.54,294.00 671.00,294.00 C671.42,294.00 672.31,293.33 672.99,292.51 ZM 716.00 313.93 C716.00,308.14 715.79,306.15 714.51,304.04 C715.38,305.42 716.00,306.75 716.00,307.35 C716.00,308.17 716.27,309.55 716.61,310.42 C717.47,312.67 717.89,312.39 717.98,309.39 C718.00,310.41 718.00,311.60 718.00,313.01 C718.00,318.34 717.59,322.00 717.00,322.00 C716.42,322.00 716.00,318.64 716.00,313.93 ZM 416.80 244.80 C418.84,242.76 418.14,241.86 414.76,242.19 C410.77,242.57 409.39,246.00 413.23,246.00 C414.53,246.00 416.14,245.46 416.80,244.80 ZM 673.60 43.16 C673.94,43.71 674.57,43.79 675.01,43.37 C673.38,46.77 674.07,48.12 678.00,52.38 C678.26,52.67 678.50,52.93 678.73,53.18 C676.75,51.23 674.12,49.22 673.67,49.67 C673.36,49.98 674.02,51.19 675.20,52.60 C675.18,52.58 675.17,52.56 675.15,52.55 C670.87,47.91 670.70,46.16 673.93,40.13 C673.95,40.09 673.97,40.05 673.99,40.01 C673.50,41.28 673.25,42.60 673.60,43.16 ZM 399.00 225.50 C399.00,223.69 399.54,223.00 400.94,223.00 C403.30,223.00 404.22,224.28 403.40,226.41 C402.37,229.08 399.00,228.38 399.00,225.50 ZM 117.67 149.96 C117.16,149.50 116.69,148.86 116.20,148.01 C115.32,146.45 114.76,145.70 113.51,145.34 C115.99,145.57 117.07,145.93 117.64,146.50 C118.47,147.32 120.24,148.00 121.57,148.00 C122.91,148.00 124.00,148.50 124.00,149.11 C124.00,149.78 122.66,150.06 120.57,149.82 C119.10,149.65 117.97,149.72 117.67,149.96 ZM 833.30 211.37 C834.03,210.64 832.28,206.99 831.21,207.02 C829.40,207.05 827.99,208.82 828.57,210.33 C829.20,211.97 832.06,212.60 833.30,211.37 ZM 822.00 100.11 C822.00,97.93 819.14,96.46 817.70,97.90 C816.23,99.37 817.68,102.00 819.97,102.00 C821.30,102.00 822.00,101.34 822.00,100.11 ZM 837.81 118.74 C838.21,116.67 835.32,115.28 833.80,116.80 C832.28,118.32 833.67,121.21 835.74,120.81 C836.69,120.63 837.63,119.69 837.81,118.74 ZM 833.81 159.74 C834.21,157.67 831.32,156.28 829.80,157.80 C828.28,159.32 829.67,162.21 831.74,161.81 C832.69,161.63 833.63,160.69 833.81,159.74 ZM 839.81 193.74 C840.21,191.67 837.32,190.28 835.80,191.80 C834.28,193.32 835.67,196.21 837.74,195.81 C838.69,195.63 839.63,194.69 839.81,193.74 ZM 834.56 178.90 C835.44,177.48 832.52,174.56 831.10,175.44 C830.49,175.81 830.00,176.99 830.00,178.06 C830.00,180.18 833.38,180.81 834.56,178.90 ZM 869.81 117.74 C870.20,115.74 867.35,114.25 865.90,115.70 C864.50,117.10 865.97,120.15 867.86,119.79 C868.75,119.62 869.63,118.69 869.81,117.74 ZM 607.60 226.41 C606.85,224.45 607.66,223.00 609.50,223.00 C611.56,223.00 612.34,224.89 610.96,226.54 C609.40,228.43 608.36,228.39 607.60,226.41 ZM 836.56 139.90 C837.51,138.36 834.79,135.89 833.22,136.87 C831.66,137.83 832.68,141.00 834.55,141.00 C835.28,141.00 836.19,140.51 836.56,139.90 ZM 626.41 226.63 C625.66,224.68 626.68,223.00 628.63,223.00 C629.61,223.00 630.03,223.76 629.82,225.17 C629.43,227.81 627.23,228.75 626.41,226.63 ZM 822.00 234.00 C822.00,232.67 821.33,232.00 820.00,232.00 C818.67,232.00 818.00,232.67 818.00,234.00 C818.00,235.33 818.67,236.00 820.00,236.00 C821.33,236.00 822.00,235.33 822.00,234.00 ZM 154.97 178.37 C156.74,183.65 161.43,190.50 172.97,205.91 C173.52,206.64 174.07,207.38 174.62,208.13 C170.26,202.29 165.06,195.51 162.10,191.84 C157.19,185.75 155.57,183.23 154.97,178.37 ZM 648.48 76.97 C648.09,76.34 648.24,75.36 648.82,74.78 C650.16,73.44 653.30,74.61 652.75,76.25 C652.19,77.92 649.36,78.40 648.48,76.97 ZM 46.71 121.89 C44.61,119.01 44.54,117.12 46.51,116.36 C47.96,115.80 50.27,117.16 50.54,118.39 C50.37,118.52 50.03,118.88 49.57,119.44 C48.15,121.20 48.00,121.22 48.00,119.63 C48.00,118.67 47.55,118.16 47.00,118.50 C46.45,118.84 46.00,118.67 46.00,118.13 C46.00,117.59 46.56,116.96 47.25,116.73 C47.98,116.48 47.88,116.35 47.01,116.42 C44.81,116.57 44.71,119.10 46.71,121.89 ZM 700.32 334.60 C700.95,332.96 700.21,332.00 698.33,332.00 C697.60,332.00 697.00,332.90 697.00,334.00 C697.00,336.27 699.51,336.72 700.32,334.60 ZM 689.81 321.25 C689.62,320.29 688.81,319.50 688.00,319.50 C687.19,319.50 686.38,320.29 686.19,321.25 C685.95,322.48 686.49,323.00 688.00,323.00 C689.51,323.00 690.05,322.48 689.81,321.25 ZM 679.50 18.00 C679.50,17.19 678.71,16.38 677.75,16.19 C676.52,15.95 676.00,16.49 676.00,18.00 C676.00,19.51 676.52,20.05 677.75,19.81 C678.71,19.62 679.50,18.81 679.50,18.00 ZM 727.55 318.91 C728.58,317.25 726.27,315.33 724.89,316.71 C723.73,317.87 724.46,320.00 726.00,320.00 C726.49,320.00 727.18,319.51 727.55,318.91 ZM 690.50 5.93 C690.50,5.16 689.71,4.38 688.75,4.19 C687.03,3.86 686.31,5.98 687.69,7.35 C688.74,8.40 690.50,7.51 690.50,5.93 ZM 658.46 11.07 C658.77,10.56 658.55,9.84 657.97,9.48 C656.49,8.57 653.74,9.76 654.50,10.99 C655.28,12.26 657.69,12.30 658.46,11.07 ZM 808.06 223.56 C809.59,225.19 810.61,225.68 810.87,224.90 C811.09,224.22 810.45,223.07 809.45,222.34 C806.37,220.09 805.51,220.85 808.06,223.56 ZM 657.00 18.06 C657.00,19.13 657.45,20.00 658.00,20.00 C658.55,20.00 659.00,18.85 659.00,17.44 C659.00,15.99 658.57,15.15 658.00,15.50 C657.45,15.84 657.00,16.99 657.00,18.06 ZM 830.00 68.50 C830.00,67.68 829.33,67.00 828.50,67.00 C827.67,67.00 827.00,67.68 827.00,68.50 C827.00,69.32 827.67,70.00 828.50,70.00 C829.33,70.00 830.00,69.32 830.00,68.50 ZM 708.30 314.51 C708.41,313.97 707.71,313.38 706.75,313.19 C705.66,312.98 705.00,313.47 705.00,314.50 C705.00,316.24 707.96,316.25 708.30,314.51 ZM 211.86 225.48 C211.79,225.02 210.99,223.61 209.99,222.17 C211.60,224.13 212.74,225.93 212.51,226.16 C212.27,226.40 208.26,226.46 203.51,226.41 C208.10,226.23 211.91,225.89 211.86,225.48 ZM 189.24 153.19 C183.34,160.93 178.15,168.10 176.02,171.52 C178.00,168.09 182.74,161.52 189.24,153.19 ZM 102.65 201.83 C104.34,199.96 104.89,195.85 104.28,192.69 C104.92,194.81 104.90,197.13 104.11,199.21 C103.46,200.91 102.82,202.10 101.46,202.96 C101.88,202.63 102.27,202.25 102.65,201.83 ZM 789.78 202.08 C789.99,202.03 790.24,202.00 790.50,202.00 C791.33,202.00 792.00,202.41 792.00,202.90 C792.00,203.04 792.41,203.60 793.15,204.48 C791.75,203.06 790.63,202.10 790.17,202.08 C790.02,202.07 789.89,202.07 789.78,202.08 ZM 66.11 287.37 C60.94,281.69 56.72,276.93 54.35,274.07 C53.16,272.64 52.19,271.39 51.44,270.35 C54.11,273.83 59.33,279.87 66.11,287.37 ZM 799.23 179.92 C799.15,179.96 799.08,180.01 799.00,180.06 C797.89,180.87 797.82,181.28 798.73,181.65 C799.37,181.91 802.16,184.48 805.09,187.49 C802.21,184.71 799.67,182.39 799.00,181.96 C797.67,181.11 797.67,180.89 799.00,180.04 C799.07,179.99 799.15,179.95 799.23,179.92 ZM 720.09 260.83 C720.96,262.68 722.44,264.71 723.70,265.73 C723.65,265.69 723.60,265.66 723.55,265.62 C722.13,264.70 721.18,263.46 720.09,260.83 ZM 794.20 209.15 C790.76,205.38 789.00,203.18 789.00,202.62 C789.00,202.49 789.10,202.36 789.27,202.26 C788.84,202.80 790.14,204.56 794.20,209.15 ZM 146.64 332.00 C147.32,331.91 150.32,330.37 153.43,328.50 C149.54,330.84 146.98,332.40 146.66,332.03 C146.65,332.02 146.64,332.01 146.64,332.00 ZM 79.58 162.11 C77.66,161.27 76.27,160.11 75.37,158.62 C76.26,159.93 77.83,161.16 79.58,162.11 ZM 630.86 63.57 C628.33,60.74 625.36,57.56 624.10,56.34 C626.48,58.66 628.86,61.23 630.86,63.57 ZM 125.01 183.08 C124.58,183.24 124.27,183.59 124.11,184.03 C124.04,183.28 124.28,183.01 125.01,183.08 ZM 49.61 124.55 C48.81,124.25 48.02,123.56 47.14,122.45 C47.12,122.42 47.09,122.39 47.07,122.37 C47.82,123.30 48.77,124.10 49.61,124.55 ZM 196.95 275.81 C196.70,277.30 195.47,279.49 193.34,282.07 C195.37,279.62 196.64,277.32 196.95,275.81 ZM 125.40 25.54 C125.52,24.41 125.65,23.71 125.80,23.62 C125.85,23.59 125.96,23.59 126.12,23.60 C126.02,23.63 125.94,23.67 125.88,23.73 C125.70,23.91 125.54,24.56 125.40,25.54 ZM 51.03 119.99 C51.09,120.00 51.16,120.00 51.23,120.00 C51.41,120.00 51.73,120.15 52.15,120.42 C52.03,120.38 51.89,120.35 51.74,120.31 C51.46,120.24 51.22,120.13 51.03,119.99 ZM 176.91 137.26 C180.12,133.04 182.63,129.68 183.50,128.41 L 186.50 124.04 L 183.50 128.42 C182.51,129.87 179.98,133.25 176.91,137.26 ZM 715.00 301.34 C716.31,302.51 717.05,303.22 717.46,304.44 C717.02,303.37 716.26,302.46 715.00,301.34 ZM 124.84 149.76 C124.83,149.77 124.81,149.79 124.80,149.80 C124.14,150.46 122.32,151.00 120.75,151.00 C120.62,151.00 120.49,151.00 120.37,150.99 C122.14,151.00 124.18,150.55 124.69,149.75 C124.74,149.67 124.79,149.68 124.84,149.76 ZM 175.08 301.50 C169.71,307.02 163.50,313.42 158.74,318.33 C162.92,314.00 168.30,308.47 175.08,301.50 ZM 61.10 96.49 C61.10,97.29 61.14,98.15 61.21,98.97 C61.10,98.20 61.07,97.39 61.10,96.49 ZM 787.00 113.00 C787.00,112.60 787.07,112.34 787.45,112.16 C787.18,112.34 787.00,112.65 787.00,113.00 ZM 663.67 72.33 C664.14,72.81 664.62,73.02 665.02,72.98 C664.66,73.07 664.20,72.86 663.67,72.33 ZM 175.01 173.75 C175.02,173.96 175.06,174.19 175.11,174.45 C175.04,174.21 175.00,174.02 175.00,173.87 C175.00,173.83 175.00,173.80 175.01,173.75 ZM 50.57 118.66 C50.56,118.80 50.53,118.92 50.47,119.05 C50.47,118.92 50.50,118.80 50.56,118.67 C50.56,118.67 50.57,118.67 50.57,118.66 ZM 716.62 256.18 C716.65,256.04 716.71,255.94 716.78,255.87 C716.72,255.97 716.66,256.07 716.62,256.18 Z" fill="rgba(50,138,179,1)"/>
<path d="M 126.00 258.75 L 126.00 202.50 L 123.28 207.95 C124.99,204.15 125.28,201.93 125.31,196.32 C125.37,187.04 122.59,179.85 116.57,173.73 C114.45,171.57 112.35,169.83 110.14,168.45 C114.18,170.85 117.66,174.31 121.02,179.03 C123.59,182.63 124.02,182.67 126.98,179.52 C129.26,177.09 129.30,176.77 128.64,163.02 C128.01,149.77 128.08,148.91 129.99,147.28 C131.09,146.33 132.00,145.13 132.00,144.60 C132.00,144.08 130.88,144.71 129.50,146.00 C127.08,148.28 126.99,148.80 126.79,162.92 L 126.58 177.50 L 126.04 163.00 C125.74,155.02 125.14,149.06 124.69,149.75 C123.80,151.12 118.41,151.47 117.63,150.21 C117.36,149.77 118.68,149.60 120.57,149.82 C122.66,150.06 124.00,149.78 124.00,149.11 C124.00,148.50 122.91,148.00 121.57,148.00 C120.24,148.00 118.47,147.32 117.64,146.50 C116.47,145.33 113.11,145.02 99.98,145.00 C100.55,145.00 101.14,145.00 101.75,145.00 L 123.00 145.00 L 123.00 133.06 C123.00,138.84 123.36,141.89 124.00,141.50 C124.55,141.16 125.03,139.90 125.08,138.69 C125.13,137.23 125.60,137.84 126.47,140.50 L 127.79 144.50 L 127.80 137.00 C127.80,131.84 127.55,130.28 127.00,132.00 C126.56,133.38 126.15,116.65 126.10,94.83 C126.02,64.11 125.72,55.05 124.75,54.66 C123.92,54.33 124.02,54.13 125.05,54.08 C125.90,54.04 130.40,55.28 135.05,56.84 L 143.50 59.68 L 143.78 73.59 C143.98,83.10 143.68,88.22 142.85,89.78 C141.84,91.67 141.91,92.34 143.28,93.71 C144.82,95.25 145.09,95.23 147.06,93.44 C149.17,91.53 149.20,91.54 152.09,94.78 C155.52,98.61 155.80,102.27 153.00,106.50 C151.48,108.80 151.01,111.20 151.01,116.75 C151.00,120.92 151.42,124.00 152.00,124.00 L 132.00 124.00 L 132.00 226.00 L 153.00 226.00 L 153.00 203.89 C153.00,191.20 153.06,185.73 153.49,183.58 C153.23,186.86 153.08,194.91 153.14,204.25 C153.25,221.47 153.49,225.26 154.20,221.00 C155.83,211.24 156.24,201.84 155.09,200.69 C154.49,200.09 154.00,198.12 154.00,196.30 L 154.00 193.01 L 160.75 197.82 L 167.50 202.63 L 167.78 216.24 L 168.06 229.85 L 159.53 236.98 L 151.00 244.10 L 150.88 271.80 C150.82,287.03 150.81,299.82 150.87,300.22 C150.93,300.62 149.30,302.09 147.24,303.48 L 143.50 306.02 L 143.24 268.85 C143.00,234.54 143.11,231.53 144.74,229.72 C145.71,228.65 147.40,227.40 148.50,226.95 C149.72,226.45 146.77,226.18 141.00,226.25 C134.78,226.33 133.49,226.50 137.26,226.74 C142.66,227.08 142.95,227.22 141.95,229.10 C141.36,230.19 138.66,232.46 135.94,234.13 L 131.00 237.17 L 131.13 266.58 C131.22,288.27 130.94,296.37 130.04,297.45 C128.59,299.20 129.48,302.59 131.61,303.40 C136.04,305.10 139.06,298.30 135.00,295.77 C133.08,294.57 133.00,293.44 133.00,267.26 L 133.00 240.01 L 136.62 236.00 C138.61,233.80 140.59,232.00 141.04,232.00 C141.48,232.00 141.61,248.99 141.33,269.75 C140.88,303.34 140.64,307.65 139.16,308.83 C136.92,310.62 128.32,315.00 127.03,315.00 C126.33,315.00 126.00,296.79 126.00,258.75 ZM 153.02 324.25 C157.13,319.99 167.05,309.75 175.08,301.50 C183.11,293.25 191.32,284.51 193.34,282.07 C196.92,277.73 197.98,274.50 196.02,273.83 C195.48,273.65 197.78,271.25 201.12,268.50 C209.15,261.90 223.75,246.60 227.68,240.68 C229.65,237.70 231.20,233.65 231.88,229.73 C233.83,218.47 246.29,120.26 249.06,94.25 C249.72,88.06 250.65,83.00 251.13,83.00 C251.62,83.00 252.00,117.75 252.00,161.80 L 252.00 240.61 L 249.15 245.11 C240.55,258.66 221.11,278.39 196.00,299.02 C185.69,307.50 161.52,325.00 160.13,325.00 C159.64,325.00 156.63,326.58 153.43,328.50 C150.23,330.42 147.15,332.00 146.58,332.00 C146.02,332.00 148.91,328.51 153.02,324.25 ZM 90.28 323.27 C81.30,317.08 70.92,309.67 67.22,306.83 C44.10,289.03 18.68,264.70 7.41,249.58 L 1.50 241.66 L 1.22 194.35 C0.98,154.08 1.15,147.12 2.35,147.58 C3.73,148.11 4.81,152.41 10.99,182.00 C12.55,189.43 15.54,203.38 17.66,213.00 L 21.50 230.50 L 22.04 214.50 L 22.58 198.50 L 22.79 217.50 C22.99,234.75 23.20,236.82 25.09,240.00 C26.24,241.93 33.29,249.57 40.77,257.00 C48.25,264.42 53.38,269.64 52.18,268.59 C47.97,264.92 49.07,267.70 54.35,274.07 C61.10,282.22 82.83,305.73 98.84,322.19 C114.60,338.40 112.57,338.66 90.28,323.27 ZM 176.08 177.14 C175.48,176.04 175.00,174.41 175.00,173.53 C175.00,171.91 190.57,150.88 202.17,136.84 C205.65,132.62 209.62,127.77 211.00,126.05 C213.36,123.11 213.83,122.95 219.50,123.22 L 225.50 123.50 L 225.50 139.50 L 214.00 139.76 C197.86,140.13 197.01,141.40 212.50,142.00 L 225.50 142.50 L 225.80 149.25 L 226.09 156.00 L 196.22 156.00 L 191.38 160.00 C188.71,162.20 186.08,164.05 185.52,164.12 C184.96,164.18 183.86,164.29 183.09,164.37 C182.31,164.44 181.48,165.08 181.24,165.79 C180.43,168.20 186.30,166.18 192.20,162.02 L 197.90 158.00 L 226.00 158.00 L 226.00 166.00 L 214.08 166.00 C202.85,166.00 201.98,166.15 199.22,168.47 C194.92,172.09 191.74,173.00 183.43,173.00 C178.51,173.00 176.00,173.39 176.00,174.15 C176.00,174.98 178.66,175.11 185.66,174.62 C194.23,174.01 195.77,173.60 199.36,170.97 C203.27,168.09 203.74,168.00 214.70,168.00 L 226.00 168.00 L 226.00 178.00 L 203.08 178.00 C190.48,178.00 179.49,178.26 178.66,178.58 C177.76,178.92 176.72,178.35 176.08,177.14 ZM 185.00 268.58 C185.00,262.22 185.03,262.14 189.25,258.88 C191.59,257.07 196.43,253.05 200.00,249.94 C207.83,243.14 209.17,242.40 215.16,241.50 L 219.82 240.80 L 220.20 226.15 C220.41,218.09 220.40,210.94 220.18,210.25 C219.59,208.40 215.31,208.73 213.81,210.75 C212.89,211.97 211.05,212.52 207.70,212.57 L 202.90 212.63 L 191.70 197.58 C185.54,189.30 180.14,181.95 179.70,181.26 C179.07,180.26 183.77,180.00 202.52,180.00 L 226.14 180.00 L 225.82 182.25 C225.50,184.49 225.42,184.50 204.70,184.77 C191.45,184.94 184.13,185.40 184.51,186.02 C184.88,186.61 193.29,187.00 205.56,187.00 L 226.00 187.00 L 226.00 194.00 L 208.44 194.00 C196.99,194.00 191.10,194.35 191.50,195.00 C191.87,195.60 198.84,196.00 209.06,196.00 L 226.00 196.00 L 226.00 215.75 C225.99,233.46 225.79,235.83 224.07,238.65 C220.19,245.02 188.77,275.00 185.97,275.00 C185.44,275.00 185.00,272.11 185.00,268.58 ZM 153.78 137.00 C153.36,116.02 153.78,109.90 155.77,107.70 C156.85,106.51 157.50,104.16 157.50,101.48 C157.50,96.84 155.12,93.38 149.75,90.20 L 147.00 88.57 L 147.00 61.09 L 156.00 64.22 L 165.00 67.35 L 165.00 87.43 C165.00,106.64 164.91,107.58 162.94,108.81 C160.27,110.47 160.70,114.39 163.59,114.80 C167.78,115.40 168.15,113.37 168.04,90.48 L 167.93 68.84 L 170.22 69.56 C171.47,69.96 174.07,70.83 176.00,71.49 L 179.50 72.70 L 179.78 83.45 C179.95,89.60 179.64,94.73 179.07,95.42 C178.40,96.22 178.43,97.80 179.17,100.20 C181.49,107.77 179.80,110.59 165.70,122.66 L 162.00 125.83 L 162.00 133.95 C162.00,142.05 161.99,142.09 158.03,146.29 L 154.05 150.50 ZM 163.00 277.64 C163.00,264.37 162.79,259.09 164.96,255.12 C166.67,252.01 169.84,249.70 175.74,244.98 L 187.23 235.78 L 186.79 230.44 C186.54,227.50 186.73,225.33 187.20,225.62 C188.23,226.26 211.91,226.76 212.51,226.16 C212.74,225.93 211.60,224.12 209.96,222.14 C208.33,220.16 207.00,218.21 207.00,217.80 C207.00,217.39 208.26,216.40 209.81,215.60 C212.38,214.27 212.71,214.31 213.85,216.13 C214.70,217.49 215.71,217.91 217.08,217.48 C218.99,216.87 219.06,217.25 218.78,228.17 L 218.50 239.50 L 213.98 240.02 C208.99,240.59 205.87,242.51 195.62,251.25 C191.84,254.48 187.68,257.82 186.37,258.67 C184.19,260.11 184.00,260.90 184.00,268.54 L 184.00 276.84 L 179.82 280.42 C177.52,282.39 175.27,284.00 174.82,284.00 C173.86,284.00 173.71,265.71 174.63,261.11 C175.13,258.62 177.97,255.72 188.38,247.06 C205.71,232.65 210.73,228.09 209.38,228.04 C208.25,228.00 183.67,248.15 176.75,254.80 L 173.00 258.41 L 173.00 285.66 L 168.59 288.83 C166.16,290.57 163.91,292.00 163.59,292.00 C163.26,292.00 163.00,285.54 163.00,277.64 ZM 220.50 82.56 C218.30,81.84 207.73,78.02 197.00,74.06 C161.28,60.87 126.71,48.90 125.60,49.33 C124.33,49.82 124.60,25.02 125.88,23.73 C126.78,22.82 134.00,25.62 134.00,26.88 C134.00,27.34 138.39,30.37 143.75,33.59 C149.11,36.82 157.77,42.21 163.00,45.58 C168.23,48.95 183.75,58.32 197.50,66.42 C211.25,74.51 223.16,81.77 223.96,82.56 C225.68,84.25 225.68,84.25 220.50,82.56 ZM 155.81 182.16 C156.79,185.00 158.62,187.52 162.10,191.84 C165.62,196.21 172.32,204.98 177.00,211.33 C185.21,222.48 185.49,223.05 185.19,227.69 C185.01,230.34 184.66,233.25 184.39,234.18 C184.13,235.10 178.98,239.82 172.96,244.67 L 162.00 253.49 L 162.00 294.04 L 152.50 300.07 L 152.22 274.79 C152.06,260.88 152.18,248.51 152.48,247.29 C152.77,246.08 156.84,241.87 161.51,237.94 L 170.00 230.78 L 170.00 203.24 L 161.92 196.87 C153.85,190.52 153.84,190.50 154.18,186.25 C154.31,184.54 154.25,183.06 154.04,182.39 C154.20,182.30 154.39,182.32 154.61,182.40 C155.42,182.72 155.79,182.72 155.81,182.16 ZM 154.00 153.14 L 164.31 144.17 C173.85,135.86 180.75,128.42 179.80,127.47 C179.58,127.25 176.73,129.80 173.45,133.13 C164.45,142.31 164.18,142.33 164.77,133.71 L 165.27 126.50 L 173.63 118.43 C178.24,114.00 182.04,109.72 182.09,108.93 C182.14,108.14 182.28,106.38 182.40,105.00 C182.51,103.62 182.70,96.11 182.81,88.30 L 183.00 74.10 L 186.75 75.40 L 190.50 76.69 L 191.00 90.28 C191.27,97.62 191.24,101.18 192.58,104.12 C194.08,107.42 197.31,109.94 204.63,116.18 C208.63,119.58 211.67,122.73 211.39,123.18 C211.11,123.63 205.40,124.01 198.69,124.02 L 186.50 124.04 L 183.50 128.41 C180.85,132.28 163.06,155.43 156.53,163.50 L 154.11 166.50 L 154.00 153.14 ZM 194.16 103.50 L 194.08 90.80 L 194.00 78.09 L 201.50 80.79 L 209.00 83.49 L 209.19 87.99 C209.29,90.47 209.40,94.32 209.44,96.54 C209.47,98.77 210.28,101.77 211.23,103.23 C213.73,107.05 219.03,110.78 222.50,111.17 C225.28,111.48 225.50,111.80 225.50,115.50 L 225.50 119.50 L 218.75 119.80 L 212.01 120.09 L 194.16 103.50 ZM 215.75 104.51 C211.06,100.11 211.00,99.98 211.02,93.78 C211.04,84.79 211.40,84.49 219.08,87.22 L 225.50 89.51 L 225.80 96.99 C225.96,101.11 225.84,105.49 225.53,106.74 C224.63,110.31 221.06,109.49 215.75,104.51 ZM 134.00 97.54 C134.00,72.09 134.08,71.03 136.00,70.00 C139.98,67.87 137.47,62.51 132.81,63.17 C130.18,63.55 129.13,67.25 131.00,69.50 C131.86,70.53 131.97,77.87 131.44,97.45 C130.77,121.71 130.85,124.00 132.36,124.00 C133.84,124.00 134.00,121.43 134.00,97.54 ZM 643.25 69.19 C642.84,68.11 639.01,63.57 634.74,59.11 L 626.98 51.00 L 619.37 51.00 C612.26,51.00 611.80,51.13 612.29,53.00 C612.58,54.10 612.40,55.00 611.91,55.00 C611.41,55.00 611.00,53.97 611.00,52.70 C611.00,51.44 610.46,49.86 609.80,49.20 C609.43,48.83 609.14,48.57 609.19,48.38 C609.30,47.89 611.69,47.90 620.99,47.86 L 628.48 47.83 L 637.72 57.66 C642.80,63.07 646.85,68.14 646.73,68.92 C646.37,71.17 644.07,71.36 643.25,69.19 ZM 716.61 310.42 C716.27,309.55 716.00,308.17 716.00,307.35 C716.00,306.53 714.88,304.39 713.50,302.59 C711.81,300.37 711.00,298.03 711.00,295.35 C711.00,292.69 711.82,290.27 713.50,288.00 C715.46,285.35 716.00,283.41 716.00,279.09 C716.00,273.80 715.78,273.34 711.02,268.52 C707.97,265.44 705.80,262.23 705.40,260.24 C704.59,256.21 706.66,255.75 707.62,259.75 C707.99,261.26 710.53,264.90 713.28,267.83 L 718.27 273.17 L 717.61 280.31 C717.08,285.99 716.44,287.98 714.47,290.03 C710.99,293.66 711.19,297.95 715.00,301.34 C717.39,303.47 718.00,304.83 718.00,308.01 C718.00,312.26 717.59,312.98 716.61,310.42 ZM 749.00 280.00 C745.42,276.74 742.01,274.05 741.40,274.03 C738.86,273.96 737.00,270.25 737.00,265.23 C737.00,262.42 736.55,259.84 736.00,259.50 C734.16,258.36 734.88,255.00 736.96,255.00 C739.57,255.00 741.14,257.99 739.80,260.40 C738.05,263.53 739.44,270.93 742.14,272.77 C744.81,274.60 756.77,285.97 756.00,285.95 C755.72,285.94 752.58,283.26 749.00,280.00 ZM 753.26 264.69 C752.10,263.14 752.92,238.83 754.11,239.56 C754.60,239.87 755.01,244.25 755.03,249.31 C755.05,255.60 755.51,259.08 756.46,260.35 C757.23,261.36 757.63,262.79 757.35,263.52 C756.62,265.42 754.30,266.09 753.26,264.69 ZM 129.22 190.68 C128.89,186.69 129.18,184.96 130.39,183.75 C131.71,182.43 131.96,180.09 131.79,170.82 L 131.58 159.50 L 131.25 169.96 C130.90,181.28 129.69,184.25 125.84,183.25 C124.23,182.83 123.89,183.12 124.21,184.61 C124.43,185.65 125.15,186.39 125.81,186.25 C126.59,186.09 127.00,187.51 127.00,190.33 C127.00,194.47 127.54,196.00 129.00,196.00 C129.37,196.00 129.47,193.61 129.22,190.68 ZM 636.75 73.43 C636.34,73.01 636.00,71.92 636.00,71.00 C636.00,69.48 630.04,62.13 624.10,56.34 C621.96,54.24 621.90,54.01 623.60,54.12 C624.65,54.19 628.34,57.29 631.82,61.02 C637.24,66.83 638.10,68.25 637.82,70.99 C637.64,72.75 637.16,73.85 636.75,73.43 ZM 745.20 270.80 C743.64,269.24 743.51,246.00 745.05,246.00 C745.74,246.00 746.06,250.26 745.97,258.25 C745.87,267.08 746.16,270.42 746.99,270.23 C747.63,270.07 747.86,270.41 747.52,270.98 C746.72,272.26 746.66,272.26 745.20,270.80 ZM 805.66 188.08 C802.53,184.82 799.41,181.93 798.73,181.65 C797.82,181.28 797.89,180.87 799.00,180.06 C800.21,179.19 801.60,180.18 806.08,185.09 C809.15,188.44 811.67,191.82 811.67,192.60 C811.67,193.37 811.59,194.00 811.51,194.00 C811.42,194.00 808.79,191.34 805.66,188.08 ZM 725.00 271.04 C725.00,270.45 723.40,268.41 721.44,266.50 C717.63,262.81 715.35,257.25 716.98,255.62 C717.59,255.01 718.16,255.36 718.56,256.58 C720.44,262.34 721.52,264.30 723.55,265.62 C725.99,267.22 727.36,270.66 725.91,271.56 C725.41,271.87 725.00,271.63 725.00,271.04 ZM 795.95 211.11 C789.00,203.36 788.10,201.96 790.17,202.08 C791.93,202.18 803.25,215.75 802.77,217.18 C802.57,217.80 799.50,215.07 795.95,211.11 ZM 672.73 66.27 C672.29,62.40 671.54,60.99 668.60,58.52 C665.16,55.63 664.13,54.00 665.75,54.00 C666.16,54.00 668.41,55.75 670.75,57.88 C674.57,61.38 675.00,62.23 675.00,66.38 C675.00,72.42 673.41,72.34 672.73,66.27 ZM 799.53 201.03 C795.72,197.19 792.94,193.73 793.33,193.33 C794.07,192.60 808.00,205.79 808.00,207.22 C808.00,209.03 806.06,207.61 799.53,201.03 ZM 69.53 204.05 C69.23,203.57 71.08,202.37 73.65,201.39 C76.21,200.41 79.70,198.53 81.41,197.21 C83.11,195.88 82.25,196.86 79.50,199.38 C76.75,201.90 74.97,203.97 75.55,203.98 C76.13,203.99 77.23,203.44 78.00,202.75 C79.18,201.70 79.21,201.76 78.21,203.09 C76.94,204.79 70.44,205.51 69.53,204.05 ZM 61.63 101.75 C60.79,98.62 61.00,90.88 61.85,93.50 C62.21,94.60 63.36,95.50 64.42,95.50 C65.47,95.50 66.52,96.06 66.75,96.75 C67.36,98.57 63.98,99.56 62.82,97.90 C62.16,96.94 62.05,97.68 62.47,100.25 C63.15,104.35 62.59,105.34 61.63,101.75 ZM 47.03 122.32 C44.71,119.36 44.70,116.58 47.01,116.42 C47.88,116.35 47.98,116.48 47.25,116.73 C46.56,116.96 46.00,117.59 46.00,118.13 C46.00,118.67 46.45,118.84 47.00,118.50 C47.55,118.16 48.00,118.67 48.00,119.63 C48.00,121.22 48.15,121.20 49.57,119.44 C50.44,118.37 50.88,118.03 50.56,118.67 C50.24,119.32 50.77,120.06 51.74,120.31 C53.40,120.74 53.40,120.77 51.75,120.88 C49.75,121.02 49.37,123.58 51.25,124.34 C52.03,124.65 51.86,124.87 50.82,124.92 C49.90,124.96 48.20,123.79 47.03,122.32 ZM 63.16 206.00 C66.34,205.82 70.89,205.68 77.50,205.50 C90.70,205.13 96.88,204.82 100.13,203.60 C99.77,203.84 99.39,204.05 99.00,204.25 C96.02,205.74 92.55,206.00 75.77,206.00 L 63.16 206.00 ZM 676.18 53.68 C674.41,51.86 673.28,50.05 673.67,49.67 C674.40,48.93 681.00,54.80 681.00,56.20 C681.00,57.80 679.32,56.93 676.18,53.68 ZM 774.53 289.04 C774.20,288.52 773.37,288.30 772.68,288.57 C771.94,288.85 771.43,288.25 771.43,287.11 C771.43,284.93 776.67,283.27 778.33,284.93 C778.94,285.54 778.55,285.69 777.26,285.36 C774.45,284.62 773.23,286.97 775.54,288.65 C776.55,289.39 776.87,290.00 776.25,290.00 C775.63,290.00 774.85,289.57 774.53,289.04 ZM 673.60 43.16 C672.83,41.92 674.96,37.00 676.27,37.00 C677.32,37.00 676.35,42.00 675.04,43.34 C674.59,43.80 673.94,43.72 673.60,43.16 ZM 45.77 212.28 C46.69,211.96 46.55,211.39 45.25,210.17 C44.26,209.25 43.89,208.84 44.43,209.25 C44.96,209.66 46.88,210.00 48.70,210.00 C50.51,210.00 52.00,210.45 52.00,211.00 C52.00,211.55 51.21,212.01 50.25,212.01 C49.29,212.02 47.60,212.18 46.50,212.37 C45.40,212.56 45.07,212.52 45.77,212.28 ZM 794.00 134.00 C794.00,133.45 795.80,133.00 798.00,133.00 C800.20,133.00 802.00,133.45 802.00,134.00 C802.00,134.55 800.20,135.00 798.00,135.00 C795.80,135.00 794.00,134.55 794.00,134.00 ZM 633.56 111.06 C631.96,109.39 630.90,107.77 631.21,107.46 C632.11,106.55 637.33,111.52 636.88,112.87 C636.62,113.63 635.37,112.95 633.56,111.06 ZM 807.65 176.17 C806.74,175.16 806.30,174.04 806.67,173.67 C807.41,172.92 811.00,175.82 811.00,177.15 C811.00,178.57 809.40,178.10 807.65,176.17 ZM 808.06 223.56 C805.51,220.85 806.37,220.09 809.45,222.34 C810.45,223.07 811.09,224.22 810.87,224.90 C810.61,225.68 809.59,225.19 808.06,223.56 ZM 663.67 72.33 C662.52,71.18 662.94,70.00 664.50,70.00 C665.33,70.00 666.00,70.68 666.00,71.50 C666.00,73.06 664.82,73.48 663.67,72.33 ZM 494.00 151.19 C494.00,150.65 494.71,149.94 495.58,149.61 C496.56,149.23 497.01,149.46 496.77,150.19 C496.27,151.68 494.00,152.50 494.00,151.19 ZM 787.00 113.00 C787.00,112.45 787.45,112.00 788.00,112.00 C788.55,112.00 789.00,112.45 789.00,113.00 C789.00,113.55 788.55,114.00 788.00,114.00 C787.45,114.00 787.00,113.55 787.00,113.00 ZM 123.00 180.62 C123.00,180.41 123.79,179.63 124.75,178.87 C126.34,177.63 126.37,177.66 125.13,179.25 C123.82,180.92 123.00,181.45 123.00,180.62 ZM 97.86 226.17 C95.15,226.45 91.93,226.62 87.96,226.73 C89.35,226.41 92.41,226.19 95.12,226.23 C96.05,226.24 96.97,226.22 97.86,226.17 ZM 120.75 212.87 C118.72,216.51 117.08,218.35 114.29,220.30 C116.80,218.31 118.97,215.82 120.75,212.87 ZM 55.62 225.12 C54.17,224.02 53.68,222.25 53.40,219.41 C53.78,221.78 54.47,223.87 55.44,224.94 C55.50,225.00 55.56,225.06 55.62,225.12 ZM 153.80 167.01 C154.19,167.19 154.56,169.48 154.62,172.25 C154.67,174.28 154.73,175.97 154.87,177.43 C154.67,175.82 154.53,173.92 154.53,172.25 C154.51,169.48 154.19,167.19 153.80,167.01 ZM 53.08 214.29 C53.03,211.55 53.32,210.15 54.18,208.90 C53.51,210.17 53.16,212.14 53.08,214.29 ZM 104.74 195.79 C104.75,192.87 103.51,189.93 101.27,187.99 C103.74,190.14 104.86,193.00 104.74,195.79 Z" fill="rgba(34,54,82,1)"/>
<path d="M 71.38 227.22 C58.71,226.98 57.08,226.74 55.44,224.94 C52.85,222.07 52.20,211.87 54.40,208.51 L 56.05 206.00 L 75.77 206.00 C92.55,206.00 96.02,205.74 99.00,204.25 C105.59,200.96 106.74,192.74 101.27,187.99 C98.85,185.88 97.38,185.60 87.11,185.23 C77.48,184.88 74.92,184.44 71.08,182.43 C68.56,181.11 65.26,179.48 63.75,178.80 C62.24,178.12 61.00,177.14 61.00,176.63 C61.00,176.11 59.96,174.30 58.69,172.59 C54.59,167.11 53.50,163.02 53.57,153.50 C53.63,144.83 53.78,144.26 57.57,138.08 C60.77,132.86 62.60,131.06 67.38,128.43 C70.61,126.65 75.20,124.90 77.57,124.54 C81.15,124.00 94.96,123.82 119.00,123.97 L 123.00 124.00 L 123.00 134.50 L 123.00 145.00 L 101.75 145.00 C82.83,145.01 80.17,145.21 77.46,146.86 C75.06,148.32 74.38,149.49 74.18,152.47 C73.65,160.32 78.62,163.77 90.70,163.89 C102.84,164.02 109.53,166.57 116.57,173.73 C122.59,179.85 125.37,187.04 125.31,196.32 C125.27,203.21 124.85,204.98 121.87,210.83 C116.67,221.07 107.39,226.41 95.12,226.23 C92.16,226.18 88.79,226.45 87.62,226.82 C86.45,227.20 79.15,227.38 71.38,227.22 ZM 132.00 175.00 L 132.00 124.00 L 142.50 124.00 L 153.00 124.00 L 153.00 145.50 C153.00,157.32 153.34,167.00 153.75,167.00 C154.16,167.00 154.51,169.36 154.53,172.25 C154.54,175.14 154.93,178.74 155.39,180.26 C156.09,182.58 155.96,182.92 154.61,182.40 C153.16,181.85 153.00,183.97 153.00,203.89 L 153.00 226.00 L 142.50 226.00 L 132.00 226.00 L 132.00 175.00 ZM 657.00 18.06 C657.00,16.99 657.45,15.84 658.00,15.50 C658.57,15.15 659.00,15.99 659.00,17.44 C659.00,18.85 658.55,20.00 658.00,20.00 C657.45,20.00 657.00,19.13 657.00,18.06 Z" fill="rgba(251,252,252,1)"/>
</g>
</svg>