<svg xmlns="http://www.w3.org/2000/svg" width="1024" height="1024" viewBox="0 0 1024 1024">
<g>
<path d="M 459.64 730.62 L 457.03 733.75 L 456.77 759.35 L 456.50 784.96 L 447.50 778.69 L 438.50 772.43 L 437.97 718.97 L 457.89 698.23 C487.12,667.80 486.63,668.45 487.49,659.28 C488.14,652.35 488.50,651.39 491.60,648.47 C494.28,645.94 495.00,644.48 495.00,641.55 C495.00,636.42 490.61,632.00 485.50,632.00 C480.64,632.00 476.00,636.44 476.00,641.08 C476.00,643.55 476.94,645.21 480.01,648.12 L 484.02 651.94 L 482.76 665.50 L 472.13 676.70 C466.28,682.86 455.09,694.64 447.25,702.89 L 433.00 717.89 L 433.00 742.44 C433.00,755.95 432.60,767.00 432.12,767.00 C431.64,767.00 427.02,763.95 421.87,760.22 L 412.50 753.44 L 412.24 701.00 L 411.98 648.56 L 414.95 646.24 C420.18,642.15 419.67,633.04 414.06,630.03 C407.83,626.70 400.27,630.58 399.33,637.60 C398.83,641.31 399.11,642.01 402.39,645.20 L 406.00 648.70 L 406.00 748.05 L 396.99 740.94 C392.03,737.03 387.53,733.00 386.99,731.98 C386.41,730.90 386.00,719.62 386.00,704.87 C386.00,679.78 386.02,679.58 388.42,676.05 C392.16,670.58 392.20,665.11 388.55,661.45 C383.16,656.07 374.00,660.18 374.00,667.97 C374.00,669.12 375.23,672.41 376.74,675.28 C379.46,680.46 379.49,680.68 379.82,703.25 C380.01,715.76 379.85,726.00 379.47,726.00 C378.71,726.00 366.96,716.15 365.77,714.51 C365.36,713.95 365.02,706.68 365.02,698.33 L 365.00 683.17 L 361.76 680.33 C352.33,672.07 305.00,624.33 305.00,623.08 C305.00,622.27 306.23,620.33 307.73,618.76 C310.98,615.37 311.40,609.78 308.71,605.69 C304.15,598.72 292.00,602.85 292.00,611.37 C292.00,616.47 292.83,617.87 297.12,620.06 C299.94,621.50 301.00,622.67 301.00,624.36 C301.00,626.07 308.29,633.98 328.50,654.18 L 356.00 681.68 L 356.00 692.84 C356.00,702.22 355.75,704.00 354.46,704.00 C352.64,704.00 316.35,667.95 303.38,653.27 C298.41,647.64 292.15,639.85 289.47,635.96 C285.27,629.86 284.49,627.95 283.85,622.19 C283.44,618.51 283.08,541.64 283.05,451.36 C283.01,320.93 283.26,287.11 284.25,286.73 C284.94,286.46 293.72,283.04 303.77,279.12 C313.81,275.21 322.47,272.00 323.02,272.00 C323.64,272.00 323.99,284.24 323.97,305.75 L 323.93 339.50 L 309.97 353.92 L 296.00 368.34 L 296.00 418.17 C296.00,452.17 295.67,468.00 294.95,468.00 C294.38,468.00 292.80,469.10 291.45,470.45 C287.92,473.98 288.06,479.76 291.75,483.17 C295.48,486.61 297.71,487.25 301.57,485.98 C309.44,483.38 310.25,472.94 302.91,468.61 L 300.00 466.89 L 300.00 368.52 L 313.75 355.10 L 327.50 341.67 L 328.00 305.63 L 328.50 269.60 L 334.64 267.40 C338.02,266.19 341.73,264.90 342.89,264.54 L 345.00 263.87 L 345.00 348.10 L 325.50 370.47 L 325.37 414.89 L 325.25 459.31 L 322.71 460.65 C319.52,462.31 317.57,467.74 318.90,471.22 C320.23,474.74 324.72,478.00 328.21,478.00 C332.77,478.00 337.00,473.21 337.00,468.04 C337.00,464.69 336.36,463.30 333.56,460.49 L 330.11 457.04 L 330.06 420.77 C330.04,400.82 330.29,381.47 330.64,377.76 L 331.26 371.02 L 340.38 360.26 L 349.50 349.50 L 350.50 261.59 L 357.50 258.86 C358.22,258.58 358.89,258.31 359.52,258.06 C363.23,256.58 365.33,255.75 366.51,256.45 C368.04,257.36 368.03,260.86 368.01,268.88 C368.00,269.93 368.00,271.05 368.00,272.25 L 368.00 288.50 L 386.01 305.45 L 404.01 322.41 L 403.38 327.16 C402.81,331.52 403.00,332.16 405.80,334.95 C411.91,341.07 421.00,337.62 421.00,329.18 C421.00,323.14 418.00,320.01 412.18,319.98 L 407.50 319.96 L 389.75 302.89 L 372.00 285.82 L 372.00 253.33 L 381.75 250.00 C387.11,248.17 392.06,246.47 392.75,246.23 C393.71,245.89 394.00,249.26 394.00,260.99 L 394.00 276.19 L 425.21 307.63 C456.24,338.89 456.42,339.09 456.14,342.96 C455.70,349.07 460.16,354.00 466.12,354.00 C469.46,354.00 474.00,348.68 474.00,344.76 C474.00,339.64 469.30,335.52 463.72,335.76 L 459.50 335.94 L 397.94 274.50 L 398.07 260.31 C398.15,251.27 398.61,245.59 399.35,244.67 C400.68,242.98 417.95,236.05 422.75,235.27 L 426.00 234.74 L 426.00 258.62 L 423.00 260.84 C420.44,262.74 420.00,263.72 420.00,267.58 C420.00,273.35 423.24,277.00 428.34,277.00 C433.39,277.00 436.10,274.33 436.73,268.70 C437.23,264.28 437.04,263.77 433.63,260.56 L 430.00 257.13 L 430.00 245.19 C430.00,236.84 430.38,232.94 431.25,232.24 C432.60,231.15 462.49,220.00 464.05,220.00 C464.63,220.00 465.00,232.25 465.00,251.50 C465.00,272.75 464.66,283.00 463.95,283.00 C461.39,283.00 458.00,287.97 458.00,291.73 C458.00,296.35 459.90,299.30 463.94,300.98 C470.41,303.65 476.00,299.66 476.00,292.37 C476.00,288.37 475.52,287.29 472.49,284.42 L 468.97 281.11 L 469.24 249.38 L 469.50 217.65 L 489.87 210.28 C501.07,206.22 510.39,203.06 510.58,203.24 C510.76,203.43 511.13,300.31 511.40,418.54 C511.76,573.37 512.21,634.97 513.03,638.74 C513.89,642.74 513.87,644.85 512.95,647.64 C512.29,649.66 511.60,657.11 511.43,664.20 L 511.12 677.09 L 486.69 702.30 C473.25,716.16 461.08,728.91 459.64,730.62 ZM 273.60 452.44 C273.49,546.21 273.16,623.17 272.86,623.47 C272.11,624.22 270.30,618.15 268.08,607.50 C267.05,602.55 263.91,588.83 261.10,577.00 C256.40,557.26 252.80,541.27 240.49,485.50 C233.00,451.60 228.17,426.84 227.49,419.00 C227.14,414.88 226.46,408.80 225.98,405.50 C223.83,390.82 223.50,378.37 223.50,312.07 L 223.50 241.63 L 230.50 238.87 C268.63,223.81 307.56,208.69 334.50,198.46 C346.60,193.87 363.02,187.60 371.00,184.53 C421.92,164.94 434.56,160.12 457.50,151.51 C485.26,141.10 494.20,137.68 503.85,133.81 C507.89,132.19 511.40,131.07 511.65,131.32 C511.90,131.57 512.04,132.61 511.97,133.64 C511.89,134.66 511.72,147.78 511.58,162.79 C511.42,179.84 510.93,190.47 510.29,191.11 C509.25,192.15 504.07,194.14 469.00,206.92 C458.27,210.83 445.45,215.56 440.50,217.43 C425.94,222.91 413.42,227.55 398.50,232.99 C390.80,235.80 380.45,239.65 375.50,241.54 C370.55,243.43 355.48,248.99 342.00,253.90 C307.41,266.51 276.39,278.83 274.98,280.52 C274.07,281.62 273.74,321.95 273.60,452.44 ZM 352.35 607.49 C354.94,608.64 363.94,608.85 403.00,608.65 C448.92,608.42 450.76,608.34 458.38,606.16 C472.68,602.07 480.61,597.60 489.55,588.60 C498.21,579.89 501.90,573.50 506.21,559.79 C508.18,553.51 508.50,550.36 508.50,537.00 C508.50,524.87 508.10,520.20 506.68,515.50 C499.91,493.18 484.56,475.84 465.20,468.65 C451.29,463.47 447.42,462.77 417.65,460.02 C405.26,458.87 398.17,455.90 394.40,450.28 C387.50,439.99 393.10,422.64 404.51,418.93 C407.48,417.96 420.67,417.53 456.25,417.25 L 504.00 416.88 L 504.00 368.26 L 500.25 367.64 C498.19,367.30 476.92,367.03 453.00,367.03 C406.26,367.04 402.17,367.41 386.57,372.89 C371.05,378.35 358.85,389.23 351.68,404.01 C345.03,417.69 343.54,424.10 343.54,439.00 C343.54,453.47 344.99,459.75 351.39,473.00 C357.21,485.04 366.64,494.32 379.27,500.45 C391.16,506.23 397.81,507.69 422.72,510.02 C447.44,512.33 452.09,513.92 457.01,521.67 C460.97,527.93 462.35,533.30 461.55,539.37 C460.21,549.46 454.61,555.74 445.00,557.93 C442.31,558.54 422.99,558.96 397.00,558.98 C355.31,559.01 353.36,559.09 350.23,561.00 C348.42,562.10 346.51,564.16 345.98,565.57 C345.44,566.98 345.00,575.47 345.00,584.43 C345.00,599.48 345.16,600.93 347.10,603.40 C348.26,604.88 350.62,606.71 352.35,607.49 ZM 529.88 879.86 C522.39,884.33 514.97,888.25 513.38,888.56 C511.11,889.01 508.82,888.10 502.50,884.24 C498.10,881.55 489.33,876.18 483.00,872.32 C468.65,863.55 444.00,847.20 444.00,846.44 C444.00,846.13 444.45,846.16 445.00,846.50 C446.00,847.12 446.42,845.74 446.03,843.05 C445.91,842.26 446.52,841.10 447.37,840.47 C448.71,839.49 448.52,838.87 445.86,835.65 C444.19,833.62 441.57,831.31 440.03,830.52 C437.53,829.23 437.09,829.25 435.75,830.79 C433.29,833.61 431.86,836.97 432.61,838.18 C433.07,838.93 432.84,839.04 431.90,838.50 C429.63,837.20 415.00,826.71 415.00,826.38 C415.00,825.34 419.69,822.00 421.15,822.00 C422.12,822.00 423.82,821.03 424.93,819.85 L 426.93 817.70 L 418.97 809.28 C414.58,804.65 411.00,800.33 411.00,799.67 C411.00,799.00 408.00,795.77 404.34,792.48 C400.67,789.19 394.22,781.88 390.00,776.24 C385.77,770.59 379.86,763.39 376.87,760.24 C373.87,757.08 369.25,751.80 366.60,748.50 C363.96,745.20 359.18,739.58 355.98,736.00 C352.78,732.42 347.80,726.35 344.91,722.50 C342.02,718.65 336.65,712.12 332.97,708.00 C325.62,699.74 312.87,683.61 307.86,676.23 C303.64,670.01 304.98,671.13 325.53,691.00 C352.29,716.89 373.78,735.52 403.50,758.63 C445.71,791.46 502.11,827.00 511.99,827.00 C516.02,827.00 533.42,817.90 554.50,804.78 C611.62,769.21 665.25,726.19 711.49,678.85 C721.35,668.76 729.01,661.17 728.52,662.00 C721.12,674.43 687.21,716.78 662.45,744.50 C658.52,748.90 652.03,756.33 648.02,761.00 C644.02,765.67 637.43,773.04 633.39,777.37 C629.34,781.70 626.24,785.59 626.50,786.00 C626.76,786.42 623.94,789.71 620.23,793.32 C616.53,796.94 611.03,802.84 608.00,806.43 C604.97,810.03 600.95,813.97 599.06,815.19 C589.26,821.49 583.11,834.17 590.54,832.75 C591.92,832.48 593.31,832.69 593.63,833.20 C593.94,833.72 595.09,834.47 596.18,834.87 C597.83,835.48 596.76,836.53 589.58,841.30 C584.87,844.43 580.63,847.00 580.16,847.00 C579.68,847.00 578.00,848.19 576.43,849.65 C574.86,851.11 567.97,855.87 561.13,860.23 C554.30,864.59 547.53,868.96 546.10,869.94 C544.67,870.92 537.37,875.38 529.88,879.86 ZM 519.01 814.00 C515.74,815.65 512.48,816.98 511.78,816.96 C510.60,816.91 490.48,806.29 485.25,802.96 C483.00,801.52 483.00,801.51 483.02,772.51 L 483.03 743.50 L 495.45 732.25 C507.60,721.25 512.00,718.74 512.00,722.83 C512.00,723.84 513.14,725.27 514.53,726.02 L 517.07 727.37 L 514.44 729.46 L 511.82 731.55 L 512.82 743.31 C513.83,755.25 514.81,758.00 518.07,758.00 C519.07,758.00 520.54,758.93 521.33,760.06 C522.49,761.71 523.98,762.16 528.89,762.32 C533.24,762.46 535.00,762.15 535.00,761.26 C535.00,760.57 535.95,760.00 537.11,760.00 C538.98,760.00 539.15,760.40 538.57,763.50 C538.06,766.20 538.24,767.00 539.37,767.00 C540.18,767.00 541.01,767.52 541.22,768.16 C541.50,769.00 542.13,769.03 543.49,768.27 C545.57,767.10 550.35,768.62 549.41,770.15 C549.12,770.62 550.03,771.00 551.44,771.00 C552.85,771.00 554.00,771.39 554.00,771.86 C554.00,772.34 555.12,772.51 556.50,772.24 C558.14,771.93 559.00,772.22 559.00,773.08 C559.00,774.11 559.27,774.13 560.20,773.20 C561.78,771.62 563.32,771.66 562.37,773.25 C561.86,774.10 562.16,774.06 563.31,773.13 C564.24,772.37 565.00,772.15 565.00,772.63 C565.01,773.11 567.37,773.63 570.25,773.80 C573.14,773.96 575.89,774.49 576.37,774.97 C577.88,776.48 572.39,781.00 569.05,781.00 C567.37,781.00 566.00,781.42 566.00,781.92 C566.00,785.22 553.22,795.16 547.35,796.43 C545.62,796.81 542.45,798.83 540.30,800.94 C537.60,803.59 535.14,804.97 532.27,805.45 C529.49,805.92 527.61,806.95 526.54,808.57 C525.67,809.90 522.28,812.34 519.01,814.00 ZM 492.27 729.91 L 478.03 743.17 L 477.77 770.58 L 477.50 797.99 L 469.75 793.24 L 462.01 788.50 L 462.00 761.33 L 462.00 734.16 L 486.63 709.07 C513.00,682.20 513.57,681.81 514.20,690.30 C514.41,693.26 515.08,694.75 516.51,695.48 C519.44,696.97 518.95,699.25 515.50,700.17 C511.69,701.18 507.73,706.91 507.03,712.45 C506.54,716.33 505.44,717.64 492.27,729.91 ZM 522.37 597.70 C522.45,603.09 522.07,606.33 521.25,607.15 C520.25,608.15 520.03,599.81 520.13,565.45 C520.20,539.66 520.58,524.30 521.07,527.00 C521.52,529.47 521.97,544.55 522.06,560.50 C522.16,576.45 522.29,593.19 522.37,597.70 ZM 406.54 820.06 C407.59,821.76 406.48,821.06 400.45,816.24 C397.18,813.63 391.21,809.07 387.19,806.10 L 379.88 800.72 L 382.66 798.90 C385.55,797.00 389.39,797.22 391.75,799.41 C392.74,800.33 392.74,801.23 391.75,803.87 C390.59,806.93 390.68,807.32 393.00,809.20 C395.19,810.98 395.54,811.03 395.82,809.62 C396.00,808.73 396.99,808.00 398.01,808.00 C399.45,808.00 399.95,808.87 400.19,811.75 C400.48,815.25 400.70,815.48 403.50,815.25 C405.15,815.11 407.17,815.46 408.00,816.02 C409.31,816.91 409.27,817.17 407.73,818.08 C406.75,818.65 406.22,819.55 406.54,820.06 ZM 581.00 771.94 C581.00,773.58 576.89,773.88 576.28,772.29 C575.47,770.18 577.25,767.57 579.75,767.19 C580.87,767.03 582.58,766.01 583.55,764.94 C584.52,763.87 585.87,763.00 586.55,763.00 C587.23,763.00 588.02,762.39 588.31,761.64 C588.84,760.26 596.79,757.75 598.10,758.56 C598.50,758.81 598.71,759.79 598.57,760.75 C598.35,762.27 596.56,763.52 591.17,765.91 C590.44,766.24 589.92,766.89 590.01,767.38 C590.26,768.78 584.88,771.86 582.86,771.47 C581.83,771.28 581.00,771.49 581.00,771.94 ZM 563.87 854.07 C567.41,854.84 568.00,854.39 568.00,850.94 C568.00,848.50 568.41,848.00 570.42,848.00 C571.75,848.00 573.01,848.54 573.23,849.20 C573.57,850.22 576.30,848.85 580.89,845.35 C581.11,845.18 580.29,844.25 579.08,843.27 C576.50,841.18 577.07,838.48 580.28,837.64 C581.45,837.33 582.15,836.82 581.83,836.50 C580.80,835.47 571.63,840.97 567.15,845.30 C561.30,850.96 560.42,853.32 563.87,854.07 ZM 646.33 799.91 C641.29,803.81 636.71,807.00 636.15,807.00 C634.71,807.00 632.00,804.10 632.00,802.55 C632.00,800.51 634.23,799.15 638.74,798.43 C642.72,797.79 647.00,794.96 647.00,792.96 C647.00,792.43 648.71,792.00 650.80,792.00 C652.89,792.00 655.20,791.44 655.93,790.75 C657.02,789.73 657.11,789.80 656.38,791.16 C655.90,792.08 651.37,796.01 646.33,799.91 ZM 613.68 823.93 C610.12,827.56 607.45,828.36 607.26,825.85 C607.14,824.19 608.11,823.54 610.25,823.88 C610.66,823.95 611.00,823.55 611.00,823.00 C611.00,822.45 611.80,822.00 612.78,822.00 C613.99,822.00 614.63,821.14 614.78,819.33 C615.07,815.85 615.42,815.59 619.50,815.70 C621.39,815.76 622.88,815.51 622.81,815.15 C622.74,814.79 623.02,813.60 623.44,812.50 C623.85,811.40 624.36,809.94 624.56,809.25 C624.77,808.56 626.49,808.00 628.39,808.00 C630.28,808.00 632.55,807.73 633.42,807.39 C636.66,806.15 634.79,808.61 629.93,812.00 C627.17,813.92 623.47,816.73 621.70,818.23 C619.94,819.74 618.05,820.99 617.50,821.01 C616.95,821.04 615.23,822.35 613.68,823.93 ZM 412.80 642.80 C412.14,643.46 410.43,644.00 409.00,644.00 C405.51,644.00 404.00,642.27 404.00,638.28 C404.00,635.63 404.52,634.75 406.57,633.98 C409.99,632.67 410.59,632.73 412.43,634.57 C414.29,636.43 414.50,641.10 412.80,642.80 ZM 301.80 480.80 C298.50,484.10 292.23,480.20 293.39,475.57 C294.93,469.47 303.00,470.06 303.00,476.28 C303.00,478.11 302.46,480.14 301.80,480.80 ZM 469.78 296.44 C468.56,297.30 467.31,298.00 467.00,298.00 C465.17,298.00 462.00,294.53 462.00,292.51 C462.00,289.84 464.39,287.00 466.64,287.00 C471.93,287.00 474.07,293.44 469.78,296.44 ZM 490.36 643.80 C489.78,644.74 487.91,645.64 486.21,645.81 C483.81,646.05 482.75,645.55 481.45,643.56 C479.88,641.16 479.88,640.84 481.45,638.44 C483.83,634.80 489.05,635.30 490.44,639.30 C491.10,641.19 491.08,642.66 490.36,643.80 ZM 331.43 472.43 C329.34,474.52 326.69,474.42 324.65,472.17 C321.15,468.30 322.91,464.00 328.00,464.00 C330.53,464.00 331.99,464.52 332.39,465.58 C333.42,468.27 333.07,470.79 331.43,472.43 ZM 304.95 615.56 C301.88,619.26 295.20,615.34 296.40,610.56 C297.11,607.70 301.33,606.09 303.90,607.70 C305.91,608.96 306.53,613.65 304.95,615.56 ZM 713.81 742.00 C712.34,743.92 709.64,746.36 707.82,747.42 L 704.50 749.33 L 706.50 747.02 L 708.50 744.71 L 706.25 745.89 C704.73,746.69 704.00,746.73 704.00,746.00 C704.00,744.89 704.70,744.56 709.29,743.56 C710.82,743.22 712.00,742.39 711.92,741.72 C711.34,737.16 712.01,736.12 715.75,735.81 C719.31,735.52 719.52,735.31 719.81,731.68 C720.10,728.15 720.34,727.89 722.94,728.16 C724.49,728.32 726.59,727.81 727.62,727.02 C728.66,726.23 727.97,727.24 726.09,729.25 C724.22,731.27 722.23,732.65 721.69,732.31 C721.14,731.97 720.97,732.15 721.31,732.70 C722.10,733.97 717.62,738.29 716.59,737.26 C716.17,736.84 715.98,736.95 716.16,737.50 C716.34,738.05 715.29,740.08 713.81,742.00 ZM 528.29 712.76 C527.81,718.05 527.43,719.00 525.80,719.00 C524.10,719.00 523.95,718.50 524.54,714.61 C524.93,712.01 524.74,709.39 524.08,708.16 C523.17,706.45 523.31,705.90 524.88,705.06 C527.92,703.44 528.93,705.71 528.29,712.76 ZM 751.42 704.11 C751.62,704.32 748.80,707.24 745.14,710.59 C738.57,716.62 736.00,717.57 736.00,713.98 C736.00,712.55 736.87,712.05 739.75,711.81 C742.20,711.61 743.55,710.98 743.63,710.00 C743.71,709.17 743.82,707.49 743.88,706.25 C743.96,704.71 744.63,704.00 746.00,704.00 C747.10,704.00 748.00,704.51 748.00,705.12 C748.00,705.89 748.48,705.84 749.52,704.98 C750.36,704.28 751.21,703.89 751.42,704.11 ZM 364.32 787.12 C366.62,789.22 368.27,790.95 368.00,790.95 C367.27,790.94 361.05,786.12 355.82,781.50 C351.90,778.05 351.57,777.47 353.39,777.28 C354.55,777.15 356.40,776.93 357.50,776.78 C359.11,776.55 359.56,777.16 359.82,779.89 C360.06,782.37 361.28,784.33 364.32,787.12 ZM 523.23 655.79 C523.69,663.35 522.90,665.55 521.00,662.00 C519.23,658.69 520.44,646.03 522.34,648.03 C522.58,648.29 522.98,651.78 523.23,655.79 ZM 564.68 761.35 C565.69,762.36 564.85,762.05 560.25,759.74 C557.91,758.57 556.00,757.24 556.00,756.80 C556.00,755.44 561.43,755.91 563.65,757.46 C564.80,758.27 565.91,758.83 566.13,758.71 C566.35,758.60 565.96,758.99 565.28,759.60 C564.59,760.20 564.32,760.99 564.68,761.35 ZM 328.00 754.93 C328.00,756.62 327.87,758.00 327.72,758.00 C327.56,758.00 324.75,755.21 321.47,751.81 C318.19,748.40 316.37,746.26 317.44,747.06 C319.18,748.36 319.31,748.33 318.72,746.75 C318.35,745.76 318.53,745.00 319.15,745.00 C319.74,745.00 320.00,745.87 319.73,746.94 C319.05,749.51 322.50,752.58 325.60,752.17 C327.68,751.90 328.00,752.26 328.00,754.93 ZM 554.49 777.99 C555.53,779.14 557.00,779.83 557.77,779.54 C558.54,779.24 560.05,779.00 561.14,779.00 C562.24,779.00 562.84,778.54 562.48,777.97 C562.13,777.41 561.10,777.07 560.17,777.22 C559.25,777.38 558.61,776.94 558.75,776.25 C558.89,775.56 558.07,775.00 556.94,775.00 C555.62,775.00 555.14,775.42 555.61,776.17 C556.11,776.98 555.76,777.12 554.47,776.63 C552.68,775.94 552.68,775.98 554.49,777.99 ZM 295.09 724.55 C294.58,724.24 294.01,724.47 293.81,725.07 C293.45,726.15 291.14,723.98 289.46,721.00 C288.73,719.71 288.85,719.69 290.31,720.87 C291.41,721.77 292.00,721.85 292.00,721.12 C292.00,720.51 292.90,720.00 294.00,720.00 C295.48,720.00 296.00,720.67 296.00,722.56 C296.00,723.97 295.59,724.86 295.09,724.55 ZM 619.04 746.46 C618.33,747.31 617.47,747.96 617.13,747.92 C613.58,747.48 612.90,744.49 616.10,743.47 C618.93,742.57 620.74,744.41 619.04,746.46 ZM 376.93 792.75 C376.89,793.16 376.53,794.34 376.12,795.37 C375.44,797.12 375.21,797.08 372.44,794.65 L 369.50 792.06 L 373.25 792.03 C375.31,792.01 376.97,792.34 376.93,792.75 ZM 388.51 791.98 C387.74,793.24 385.31,793.32 384.57,792.11 C384.27,791.63 384.67,790.69 385.46,790.03 C387.03,788.73 391.00,789.52 391.00,791.13 C391.00,791.67 390.58,791.86 390.07,791.54 C389.56,791.23 388.86,791.42 388.51,791.98 ZM 603.93 755.59 C602.37,757.46 600.00,757.39 600.00,755.47 C600.00,753.69 602.40,752.51 604.00,753.50 C604.79,753.99 604.77,754.58 603.93,755.59 ZM 651.73 605.30 C652.60,607.21 652.48,607.61 650.98,607.73 C648.62,607.90 648.11,607.28 648.73,604.94 C649.40,602.37 650.45,602.49 651.73,605.30 ZM 440.29 842.00 C440.01,843.09 439.87,843.69 439.55,843.81 C439.17,843.96 438.53,843.43 437.10,842.23 L 436.86 842.03 L 434.50 840.07 L 437.66 840.03 C440.33,840.01 440.73,840.31 440.29,842.00 ZM 637.28 730.50 C637.16,731.05 635.93,731.64 634.54,731.82 C632.56,732.06 632.15,731.78 632.63,730.51 C633.30,728.78 637.66,728.77 637.28,730.50 ZM 611.00 549.42 C611.00,550.29 610.29,551.00 609.42,551.00 C608.55,551.00 608.01,550.47 608.23,549.81 C608.85,547.96 611.00,547.65 611.00,549.42 ZM 549.00 779.00 C549.00,779.55 549.45,780.00 550.00,780.00 C550.55,780.00 551.00,779.55 551.00,779.00 C551.00,778.45 550.55,778.00 550.00,778.00 C549.45,778.00 549.00,778.45 549.00,779.00 Z" fill="rgb(5,11,43)"/>
<path d="M 528.29 712.76 C528.93,705.71 527.92,703.44 524.88,705.06 C523.31,705.90 523.17,706.45 524.08,708.16 C524.36,708.66 524.55,709.41 524.65,710.29 C523.40,706.90 518.74,703.00 515.39,703.00 C512.55,703.00 510.43,704.14 508.97,706.47 C510.64,703.31 513.10,700.80 515.50,700.17 C518.95,699.25 519.44,696.97 516.51,695.48 C515.08,694.75 514.41,693.26 514.20,690.30 C513.57,681.81 513.00,682.20 486.63,709.07 L 469.43 726.59 L 479.16 716.43 C488.59,706.57 503.18,691.75 511.58,683.50 L 526.84 668.50 L 527.50 657.58 C528.12,647.18 528.30,646.52 531.08,643.93 C533.47,641.69 534.00,640.38 534.00,636.69 C534.00,632.88 533.52,631.78 530.92,629.59 C529.19,628.13 526.60,627.00 525.00,627.00 C520.60,627.00 516.00,631.42 516.00,635.64 C516.00,639.99 518.36,644.66 520.99,645.50 C523.67,646.35 524.29,649.39 523.65,658.58 L 523.11 666.27 L 490.07 699.49 L 468.82 720.86 C473.70,715.74 480.04,709.16 486.69,702.30 L 511.12 677.09 L 511.43 664.20 C511.60,657.11 512.29,649.66 512.95,647.64 C513.87,644.85 513.89,642.74 513.03,638.74 C512.21,634.97 511.76,573.37 511.40,418.54 C511.14,302.63 510.78,207.24 510.59,203.36 C511.39,203.16 511.96,203.05 512.23,203.04 C514.61,203.01 530.41,208.54 595.00,232.01 C630.93,245.07 717.86,277.47 728.50,281.77 L 740.50 286.62 L 741.00 291.06 C741.28,293.50 741.28,370.48 741.00,462.13 L 740.50 628.76 L 736.50 634.62 C726.08,649.89 690.01,687.37 662.78,711.23 C647.21,724.87 643.85,727.68 622.20,745.10 C604.83,759.08 579.92,776.63 556.94,791.38 C561.70,787.98 566.00,783.83 566.00,781.92 C566.00,781.42 567.37,781.00 569.05,781.00 C572.39,781.00 577.88,776.48 576.37,774.97 C575.89,774.49 573.14,773.96 570.25,773.80 C567.37,773.63 565.01,773.11 565.00,772.63 C565.00,772.15 564.24,772.37 563.31,773.13 C562.16,774.06 561.86,774.10 562.37,773.25 C563.32,771.66 561.78,771.62 560.20,773.20 C559.27,774.13 559.00,774.11 559.00,773.08 C559.00,772.22 558.14,771.93 556.50,772.24 C555.12,772.51 554.00,772.34 554.00,771.86 C554.00,771.39 552.85,771.00 551.44,771.00 C550.03,771.00 549.12,770.62 549.41,770.15 C550.35,768.62 545.57,767.10 543.49,768.27 C542.13,769.03 541.50,769.00 541.22,768.16 C541.01,767.52 540.18,767.00 539.37,767.00 C538.24,767.00 538.06,766.20 538.57,763.50 C539.15,760.40 538.98,760.00 537.11,760.00 C535.95,760.00 535.00,760.57 535.00,761.26 C535.00,762.15 533.24,762.46 528.89,762.32 C523.98,762.16 522.49,761.71 521.33,760.06 C520.54,758.93 519.07,758.00 518.07,758.00 C514.81,758.00 513.83,755.25 512.82,743.31 L 511.82 731.55 L 514.44 729.46 L 517.07 727.37 L 514.53 726.02 C513.14,725.27 512.00,723.84 512.00,722.83 C512.00,721.80 511.72,721.19 511.11,721.03 C511.54,721.00 512.00,721.00 512.50,721.00 C518.56,721.00 523.26,718.25 524.59,714.22 C524.57,714.35 524.55,714.48 524.54,714.61 C523.95,718.50 524.10,719.00 525.80,719.00 C527.43,719.00 527.81,718.05 528.29,712.76 ZM 611.00 549.42 C611.00,549.32 610.99,549.23 610.98,549.15 C614.31,553.68 617.87,558.51 620.50,562.06 C624.90,568.01 630.97,576.34 634.00,580.59 C646.83,598.58 653.33,607.00 654.38,606.99 C655.00,606.98 667.99,607.16 683.25,607.39 C710.51,607.80 714.08,607.45 710.79,604.68 C708.68,602.90 704.00,596.28 704.00,595.07 C704.00,594.48 703.55,594.00 703.00,594.00 C702.45,594.00 702.00,593.58 702.00,593.06 C702.00,592.55 700.65,590.65 699.00,588.84 C697.35,587.03 696.00,585.03 696.00,584.38 C696.00,583.74 695.26,582.93 694.36,582.58 C693.45,582.24 693.00,581.67 693.34,581.33 C693.69,580.98 693.35,580.20 692.59,579.60 C691.38,578.63 677.35,559.85 658.05,533.36 C654.50,528.49 646.59,517.75 640.47,509.50 C626.82,491.10 623.00,485.50 623.00,483.91 C623.00,482.62 643.24,455.32 645.63,453.39 C646.38,452.78 647.00,451.98 647.00,451.60 C647.00,451.23 651.41,445.21 656.80,438.21 C662.19,431.22 676.58,412.56 688.79,396.75 L 710.98 368.00 L 652.36 368.00 L 649.79 371.25 C648.37,373.04 644.80,377.68 641.86,381.56 C638.91,385.44 634.78,390.84 632.68,393.56 C627.92,399.71 610.88,422.14 593.98,444.50 C586.91,453.85 579.77,463.08 578.10,465.00 L 575.08 468.50 L 575.00 368.00 L 525.00 368.00 L 525.00 487.42 C525.00,566.53 525.34,606.95 526.00,607.17 C526.99,607.49 550.39,607.49 566.75,607.16 L 575.00 607.00 L 575.00 555.50 C575.00,512.00 575.22,504.00 576.40,504.00 C577.68,504.00 583.13,511.04 604.92,540.88 C606.44,542.96 608.34,545.56 610.36,548.30 C609.67,548.06 608.63,548.61 608.23,549.81 C608.01,550.47 608.55,551.00 609.42,551.00 C610.29,551.00 611.00,550.29 611.00,549.42 ZM 713.81 742.00 C715.29,740.08 716.34,738.05 716.16,737.50 C715.98,736.95 716.17,736.84 716.59,737.26 C717.62,738.29 722.10,733.97 721.31,732.70 C720.97,732.15 721.14,731.97 721.69,732.31 C722.23,732.65 724.22,731.27 726.09,729.25 C727.97,727.24 728.66,726.23 727.62,727.02 C726.59,727.81 724.49,728.32 722.94,728.16 C720.34,727.89 720.10,728.15 719.81,731.68 C719.52,735.31 719.31,735.52 715.75,735.81 C712.01,736.12 711.34,737.16 711.92,741.72 C712.00,742.39 710.82,743.22 709.29,743.56 C704.70,744.56 704.00,744.89 704.00,746.00 C704.00,746.73 704.73,746.69 706.25,745.89 L 708.50 744.71 L 706.50 747.02 L 704.50 749.33 L 707.82 747.42 C708.34,747.12 708.92,746.71 709.54,746.23 C708.38,747.29 707.34,748.22 706.44,749.00 C701.46,753.31 695.38,758.80 692.94,761.19 C690.50,763.57 684.45,768.79 679.50,772.77 C674.55,776.76 669.83,780.64 669.00,781.40 C665.93,784.21 659.98,789.06 652.38,795.01 C654.57,793.14 656.11,791.67 656.38,791.16 C657.11,789.80 657.02,789.73 655.93,790.75 C655.20,791.44 652.89,792.00 650.80,792.00 C648.71,792.00 647.00,792.43 647.00,792.96 C647.00,794.96 642.72,797.79 638.74,798.43 C634.23,799.15 632.00,800.51 632.00,802.55 C632.00,804.10 634.71,807.00 636.15,807.00 C636.40,807.00 637.47,806.35 639.03,805.29 C633.48,809.50 627.55,813.93 621.54,818.38 C621.59,818.33 621.65,818.28 621.70,818.23 C623.47,816.73 627.17,813.92 629.93,812.00 C634.79,808.61 636.66,806.15 633.42,807.39 C632.55,807.73 630.28,808.00 628.39,808.00 C626.49,808.00 624.77,808.56 624.56,809.25 C624.36,809.94 623.85,811.40 623.44,812.50 C623.02,813.60 622.74,814.79 622.81,815.15 C622.88,815.51 621.39,815.76 619.50,815.70 C615.42,815.59 615.07,815.85 614.78,819.33 C614.63,821.14 613.99,822.00 612.78,822.00 C611.80,822.00 611.00,822.45 611.00,823.00 C611.00,823.55 610.66,823.95 610.25,823.88 C608.11,823.54 607.14,824.19 607.26,825.85 C607.37,827.31 608.31,827.65 609.78,826.98 C607.84,828.38 605.91,829.77 604.00,831.14 C601.23,833.13 598.34,835.17 595.35,837.25 C597.18,835.79 597.19,835.25 596.18,834.87 C595.09,834.47 593.94,833.72 593.63,833.20 C593.31,832.69 591.92,832.48 590.54,832.75 C583.11,834.17 589.26,821.49 599.06,815.19 C600.95,813.97 604.97,810.03 608.00,806.43 C611.03,802.84 616.53,796.94 620.23,793.32 C623.94,789.71 626.76,786.42 626.50,786.00 C626.24,785.59 629.34,781.70 633.39,777.37 C637.43,773.04 644.02,765.67 648.02,761.00 C652.03,756.33 658.52,748.90 662.45,744.50 C687.21,716.78 721.12,674.43 728.52,662.00 C729.01,661.17 721.35,668.76 711.49,678.85 C704.82,685.68 697.99,692.42 691.02,699.07 C705.34,685.27 722.29,667.93 728.00,661.02 C735.43,652.03 751.00,632.84 751.01,632.67 C751.01,632.57 751.46,629.80 752.01,626.50 C754.78,609.88 774.74,458.05 781.52,402.00 C785.02,373.15 789.72,335.46 793.01,310.00 C794.61,297.62 796.64,280.52 797.52,272.00 C798.41,263.48 799.51,255.38 799.99,254.00 C799.99,253.99 799.99,253.98 800.00,253.98 C800.47,253.98 800.87,337.28 800.91,445.50 L 800.98 639.50 L 798.53 644.76 C797.19,647.65 794.64,652.15 792.87,654.76 C788.04,661.90 771.70,682.06 761.10,693.95 C750.01,706.41 726.46,730.32 712.86,743.13 C713.21,742.74 713.54,742.36 713.81,742.00 ZM 273.60 452.44 C273.62,430.16 273.65,410.51 273.69,393.24 C273.67,411.46 273.66,432.39 273.66,456.39 L 273.63 630.69 L 276.23 635.10 C281.36,643.78 300.73,665.86 320.93,686.04 C332.06,697.15 342.06,706.76 352.14,715.90 C343.53,708.15 334.85,700.01 325.53,691.00 C304.98,671.13 303.64,670.01 307.86,676.23 C312.87,683.61 325.62,699.74 332.97,708.00 C336.65,712.12 342.02,718.65 344.91,722.50 C347.80,726.35 352.78,732.42 355.98,736.00 C359.18,739.58 363.96,745.20 366.60,748.50 C369.25,751.80 373.87,757.08 376.87,760.24 C379.86,763.39 385.77,770.59 390.00,776.24 C394.22,781.88 400.67,789.19 404.34,792.48 C408.00,795.77 411.00,799.00 411.00,799.67 C411.00,800.33 414.58,804.65 418.97,809.28 L 426.93 817.70 L 424.93 819.85 C423.82,821.03 422.12,822.00 421.15,822.00 C419.69,822.00 415.00,825.34 415.00,826.38 C415.00,826.71 429.63,837.20 431.90,838.50 C432.84,839.04 433.07,838.93 432.61,838.18 C431.86,836.97 433.29,833.61 435.75,830.79 C437.09,829.25 437.53,829.23 440.03,830.52 C441.57,831.31 444.19,833.62 445.86,835.65 C448.52,838.87 448.71,839.49 447.37,840.47 C446.52,841.10 445.91,842.26 446.03,843.05 C446.42,845.74 446.00,847.12 445.00,846.50 C444.45,846.16 444.00,846.13 444.00,846.44 C444.00,846.77 448.64,850.04 455.07,854.34 C449.63,850.75 444.20,847.12 439.34,843.83 C439.42,843.84 439.49,843.84 439.55,843.81 C439.87,843.69 440.01,843.09 440.29,842.00 C440.73,840.31 440.33,840.01 437.66,840.03 L 434.50 840.07 L 436.86 842.03 L 437.10 842.23 C437.28,842.38 437.45,842.52 437.60,842.65 C431.85,838.74 427.06,835.41 424.26,833.35 C420.28,830.41 416.77,828.00 416.47,828.00 C416.16,828.00 413.35,826.09 410.21,823.76 C407.07,821.42 403.27,818.61 401.77,817.51 C397.44,814.33 376.41,798.22 366.07,790.16 C353.73,780.55 340.70,769.56 327.76,757.97 C327.90,757.75 328.00,756.47 328.00,754.93 C328.00,752.26 327.68,751.90 325.60,752.17 C322.50,752.58 319.05,749.51 319.73,746.94 C320.00,745.87 319.74,745.00 319.15,745.00 C318.53,745.00 318.35,745.76 318.72,746.75 C319.31,748.33 319.18,748.36 317.44,747.06 C316.37,746.26 318.19,748.40 321.47,751.81 C323.09,753.49 324.59,755.02 325.72,756.14 C314.60,746.11 303.58,735.66 293.16,725.29 C293.48,725.41 293.72,725.35 293.81,725.07 C294.01,724.47 294.58,724.24 295.09,724.55 C295.59,724.86 296.00,723.97 296.00,722.56 C296.00,720.67 295.48,720.00 294.00,720.00 C292.90,720.00 292.00,720.51 292.00,721.12 C292.00,721.85 291.41,721.77 290.31,720.87 C288.85,719.69 288.73,719.71 289.46,721.00 C289.78,721.56 290.12,722.10 290.46,722.59 C272.51,704.55 256.53,686.87 245.17,672.14 C242.05,668.10 237.37,662.02 234.76,658.64 C232.15,655.26 228.55,649.80 226.76,646.50 L 223.50 640.50 L 223.50 312.07 C223.50,378.37 223.83,390.82 225.98,405.50 C226.46,408.80 227.14,414.88 227.49,419.00 C228.17,426.84 233.00,451.60 240.49,485.50 C252.80,541.27 256.40,557.26 261.10,577.00 C263.91,588.83 267.05,602.55 268.08,607.50 C270.30,618.15 272.11,624.22 272.86,623.47 C273.16,623.17 273.49,546.21 273.60,452.44 ZM 499.69 195.64 C507.76,192.61 509.70,191.70 510.29,191.11 C510.93,190.47 511.42,179.84 511.58,162.79 C511.72,147.78 511.89,134.66 511.97,133.64 C512.03,132.78 511.94,131.92 511.77,131.51 L 515.70 133.83 C532.24,143.62 585.76,176.58 641.00,210.99 C661.62,223.83 686.60,239.28 696.50,245.30 C716.66,257.58 744.00,275.00 744.00,275.58 C744.00,276.11 719.10,267.26 703.00,261.01 C695.58,258.12 673.53,249.93 654.00,242.80 C634.47,235.67 611.30,227.20 602.50,223.99 C593.70,220.77 579.75,215.59 571.50,212.47 C555.98,206.61 550.28,204.55 526.37,196.21 L 512.24 191.27 L 502.87 194.52 C501.86,194.88 500.78,195.25 499.69,195.64 ZM 522.37 597.70 C522.29,593.19 522.16,576.45 522.06,560.50 C521.97,544.55 521.52,529.47 521.07,527.00 C520.58,524.30 520.20,539.66 520.13,565.45 C520.03,599.81 520.25,608.15 521.25,607.15 C522.07,606.33 522.45,603.09 522.37,597.70 ZM 406.54 820.06 C406.22,819.55 406.75,818.65 407.73,818.08 C409.27,817.17 409.31,816.91 408.00,816.02 C407.17,815.46 405.15,815.11 403.50,815.25 C400.70,815.48 400.48,815.25 400.19,811.75 C399.95,808.87 399.45,808.00 398.01,808.00 C396.99,808.00 396.00,808.73 395.82,809.62 C395.54,811.03 395.19,810.98 393.00,809.20 C390.68,807.32 390.59,806.93 391.75,803.87 C392.74,801.23 392.74,800.33 391.75,799.41 C389.39,797.22 385.55,797.00 382.66,798.90 L 379.88 800.72 L 387.19 806.10 C391.21,809.07 397.18,813.63 400.45,816.24 C406.48,821.06 407.59,821.76 406.54,820.06 ZM 581.00 771.94 C581.00,771.49 581.83,771.28 582.86,771.47 C584.88,771.86 590.26,768.78 590.01,767.38 C589.92,766.89 590.44,766.24 591.17,765.91 C596.56,763.52 598.35,762.27 598.57,760.75 C598.71,759.79 598.50,758.81 598.10,758.56 C596.79,757.75 588.84,760.26 588.31,761.64 C588.02,762.39 587.23,763.00 586.55,763.00 C585.87,763.00 584.52,763.87 583.55,764.94 C582.58,766.01 580.87,767.03 579.75,767.19 C577.25,767.57 575.47,770.18 576.28,772.29 C576.89,773.88 581.00,773.58 581.00,771.94 ZM 563.87 854.07 C560.42,853.32 561.30,850.96 567.15,845.30 C571.63,840.97 580.80,835.47 581.83,836.50 C582.15,836.82 581.45,837.33 580.28,837.64 C577.07,838.48 576.50,841.18 579.08,843.27 C580.29,844.25 581.11,845.18 580.89,845.35 C576.30,848.85 573.57,850.22 573.23,849.20 C573.01,848.54 571.75,848.00 570.42,848.00 C568.41,848.00 568.00,848.50 568.00,850.94 C568.00,854.39 567.41,854.84 563.87,854.07 ZM 529.17 640.35 C525.36,643.79 520.00,641.63 520.00,636.65 C520.00,632.68 521.53,631.00 525.13,631.00 C530.42,631.00 532.97,636.90 529.17,640.35 ZM 751.42 704.11 C751.21,703.89 750.36,704.28 749.52,704.98 C748.48,705.84 748.00,705.89 748.00,705.12 C748.00,704.51 747.10,704.00 746.00,704.00 C744.63,704.00 743.96,704.71 743.88,706.25 C743.82,707.49 743.71,709.17 743.63,710.00 C743.55,710.98 742.20,711.61 739.75,711.81 C736.87,712.05 736.00,712.55 736.00,713.98 C736.00,717.57 738.57,716.62 745.14,710.59 C748.80,707.24 751.62,704.32 751.42,704.11 ZM 364.32 787.12 C361.28,784.33 360.06,782.37 359.82,779.89 C359.56,777.16 359.11,776.55 357.50,776.78 C356.40,776.93 354.55,777.15 353.39,777.28 C351.57,777.47 351.90,778.05 355.82,781.50 C361.05,786.12 367.27,790.94 368.00,790.95 C368.27,790.95 366.62,789.22 364.32,787.12 ZM 523.23 655.79 C522.98,651.78 522.58,648.29 522.34,648.03 C520.44,646.03 519.23,658.69 521.00,662.00 C522.90,665.55 523.69,663.35 523.23,655.79 ZM 564.68 761.35 C564.32,760.99 564.59,760.20 565.28,759.60 C565.96,758.99 566.35,758.60 566.13,758.71 C565.91,758.83 564.80,758.27 563.65,757.46 C561.43,755.91 556.00,755.44 556.00,756.80 C556.00,757.24 557.91,758.57 560.25,759.74 C564.85,762.05 565.69,762.36 564.68,761.35 ZM 521.92 812.36 L 521.70 812.48 C523.96,811.08 525.91,809.54 526.54,808.57 C527.61,806.95 529.49,805.92 532.27,805.45 C535.14,804.97 537.60,803.59 540.30,800.94 C542.45,798.83 545.62,796.81 547.35,796.43 C548.69,796.14 550.40,795.40 552.23,794.38 C541.13,801.40 530.65,807.65 521.92,812.36 ZM 554.49 777.99 C552.68,775.98 552.68,775.94 554.47,776.63 C555.76,777.12 556.11,776.98 555.61,776.17 C555.14,775.42 555.62,775.00 556.94,775.00 C558.07,775.00 558.89,775.56 558.75,776.25 C558.61,776.94 559.25,777.38 560.17,777.22 C561.10,777.07 562.13,777.41 562.48,777.97 C562.84,778.54 562.24,779.00 561.14,779.00 C560.05,779.00 558.54,779.24 557.77,779.54 C557.00,779.83 555.53,779.14 554.49,777.99 ZM 619.04 746.46 C620.74,744.41 618.93,742.57 616.10,743.47 C612.90,744.49 613.58,747.48 617.13,747.92 C617.47,747.96 618.33,747.31 619.04,746.46 ZM 376.93 792.75 C376.97,792.34 375.31,792.01 373.25,792.03 L 369.50 792.06 L 372.44 794.65 C375.21,797.08 375.44,797.12 376.12,795.37 C376.53,794.34 376.89,793.16 376.93,792.75 ZM 388.51 791.98 C388.86,791.42 389.56,791.23 390.07,791.54 C390.58,791.86 391.00,791.67 391.00,791.13 C391.00,789.52 387.03,788.73 385.46,790.03 C384.67,790.69 384.27,791.63 384.57,792.11 C385.31,793.32 387.74,793.24 388.51,791.98 ZM 603.93 755.59 C604.77,754.58 604.79,753.99 604.00,753.50 C602.40,752.51 600.00,753.69 600.00,755.47 C600.00,757.39 602.37,757.46 603.93,755.59 ZM 651.73 605.30 C650.45,602.49 649.40,602.37 648.73,604.94 C648.11,607.28 648.62,607.90 650.98,607.73 C652.48,607.61 652.60,607.21 651.73,605.30 ZM 637.28 730.50 C637.66,728.77 633.30,728.78 632.63,730.51 C632.15,731.78 632.56,732.06 634.54,731.82 C635.93,731.64 637.16,731.05 637.28,730.50 ZM 567.44 856.11 C571.78,853.20 575.35,850.65 576.43,849.65 C578.00,848.19 579.68,847.00 580.16,847.00 C580.57,847.00 583.81,845.07 587.74,842.52 C581.21,846.98 574.37,851.57 567.44,856.11 ZM 549.00 779.00 C549.00,778.45 549.45,778.00 550.00,778.00 C550.55,778.00 551.00,778.45 551.00,779.00 C551.00,779.55 550.55,780.00 550.00,780.00 C549.45,780.00 549.00,779.55 549.00,779.00 ZM 599.65 774.59 C584.90,785.15 569.83,795.23 554.50,804.78 C549.21,808.07 544.15,811.11 539.47,813.82 C556.54,803.85 578.86,789.37 599.65,774.59 ZM 447.33 214.88 C453.43,212.62 461.70,209.59 469.00,206.92 C476.70,204.12 482.95,201.83 488.04,199.96 L 488.00 199.98 C484.98,201.19 474.40,205.09 464.50,208.65 C458.72,210.73 452.40,213.02 447.33,214.88 ZM 613.68 823.93 C615.23,822.35 616.95,821.04 617.50,821.01 C617.72,821.00 618.16,820.79 618.73,820.45 C616.76,821.89 614.79,823.33 612.83,824.76 C613.11,824.50 613.39,824.23 613.68,823.93 ZM 509.66 721.22 C507.22,722.12 502.73,725.66 495.45,732.25 C504.52,724.03 507.05,721.81 509.66,721.22 ZM 671.68 716.92 C659.79,727.55 647.54,737.89 634.98,747.90 C647.15,738.15 659.63,727.62 671.68,716.92 ZM 511.40 131.29 C510.54,131.36 507.75,132.27 504.50,133.55 L 510.89 130.99 ZM 499.91 206.70 C496.93,207.75 493.50,208.97 489.87,210.28 L 469.60 217.62 L 489.50 210.37 C493.15,209.04 496.72,207.78 499.91,206.70 ZM 274.97 280.54 C274.97,280.53 274.98,280.53 274.98,280.52 C275.77,279.57 285.82,275.30 300.58,269.51 C285.95,275.25 276.02,279.48 274.97,280.54 ZM 506.81 713.76 C506.80,713.86 506.79,713.97 506.77,714.08 C506.73,714.47 506.52,714.97 506.12,715.61 C506.46,714.97 506.67,714.38 506.81,713.76 ZM 499.08 810.69 C493.59,807.78 487.85,804.62 485.25,802.96 C487.72,804.53 493.52,807.74 499.08,810.69 ZM 552.75 865.61 C554.85,864.25 557.26,862.71 559.73,861.13 C557.40,862.64 555.07,864.13 552.75,865.61 ZM 480.23 870.61 C481.19,871.20 482.11,871.77 483.00,872.32 C489.33,876.18 498.10,881.55 502.50,884.24 C498.10,881.55 489.33,876.18 483.00,872.32 C482.15,871.80 481.22,871.23 480.23,870.61 ZM 513.44 816.49 C512.68,816.80 512.14,816.96 511.92,816.96 C511.91,816.96 511.89,816.95 511.88,816.95 C512.17,816.92 512.72,816.76 513.44,816.49 ZM 492.27 729.91 C492.76,729.45 493.23,729.00 493.69,728.57 C493.23,729.01 492.76,729.45 492.27,729.91 L 478.03 743.17 Z" fill="rgb(42,55,77)"/>
<path d="M 499.69 195.64 C500.78,195.25 501.86,194.88 502.87,194.52 L 512.24 191.27 L 526.37 196.21 C550.28,204.55 555.98,206.61 571.50,212.47 C579.75,215.59 593.70,220.77 602.50,223.99 C611.30,227.20 634.47,235.67 654.00,242.80 C673.53,249.93 695.58,258.12 703.00,261.01 C719.10,267.26 744.00,276.11 744.00,275.58 C744.00,275.00 716.66,257.58 696.50,245.30 C686.60,239.28 661.62,223.83 641.00,210.99 C585.76,176.58 532.24,143.62 515.70,133.83 L 511.77 131.51 C511.73,131.42 511.69,131.36 511.65,131.32 C511.62,131.29 511.53,131.28 511.40,131.29 L 510.89 130.99 L 507.79 132.23 C509.26,131.59 510.03,131.20 510.30,130.97 C511.29,130.14 534.89,138.61 580.00,155.99 C587.42,158.85 598.00,162.89 603.50,164.97 C609.00,167.05 620.47,171.43 629.00,174.70 C637.53,177.98 658.67,186.10 676.00,192.75 C693.33,199.39 718.08,208.94 731.00,213.97 C743.92,218.99 763.82,226.69 775.22,231.06 C786.61,235.44 797.08,239.53 798.47,240.17 L 801.00 241.32 L 800.98 639.50 L 800.91 445.50 C800.87,337.28 800.47,253.98 800.00,253.98 C799.99,253.98 799.99,253.99 799.99,254.00 C799.51,255.38 798.41,263.48 797.52,272.00 C796.64,280.52 794.61,297.62 793.01,310.00 C789.72,335.46 785.02,373.15 781.52,402.00 C774.74,458.05 754.78,609.88 752.01,626.50 C751.46,629.80 751.01,632.57 751.01,632.67 C751.00,632.84 735.43,652.03 728.00,661.02 C722.29,667.93 705.34,685.27 691.02,699.07 C684.69,705.10 678.24,711.05 671.68,716.92 C659.63,727.62 647.15,738.15 634.99,747.90 L 634.98 747.90 C623.45,757.09 611.66,766.00 599.65,774.59 C578.86,789.37 556.54,803.84 539.47,813.82 L 539.47 813.82 C525.52,821.90 515.01,827.00 511.99,827.00 C502.11,827.00 445.71,791.46 403.50,758.63 C384.13,743.57 368.25,730.40 352.14,715.90 L 352.13 715.89 C342.06,706.75 332.06,697.15 320.93,686.04 C300.73,665.86 281.36,643.78 276.23,635.10 L 273.63 630.69 L 273.66 456.39 C273.66,432.39 273.67,411.46 273.69,393.24 C273.87,309.93 274.22,281.84 274.97,280.54 C276.02,279.48 285.95,275.25 300.58,269.51 C312.21,264.96 326.76,259.46 342.00,253.90 C355.48,248.99 370.55,243.43 375.50,241.54 C380.45,239.65 390.80,235.80 398.50,232.99 C413.42,227.55 425.94,222.91 440.50,217.43 C442.08,216.83 444.46,215.94 447.33,214.88 C452.40,213.02 458.72,210.73 464.50,208.65 C474.40,205.09 484.98,201.19 488.00,199.98 L 488.04 199.96 C492.91,198.17 496.72,196.76 499.69,195.64 ZM 459.64 730.62 C460.37,729.76 463.83,726.07 468.82,720.86 L 490.07 699.49 L 523.11 666.27 L 523.65 658.58 C524.29,649.39 523.67,646.35 520.99,645.50 C518.36,644.66 516.00,639.99 516.00,635.64 C516.00,631.42 520.60,627.00 525.00,627.00 C526.60,627.00 529.19,628.13 530.92,629.59 C533.52,631.78 534.00,632.88 534.00,636.69 C534.00,640.38 533.47,641.69 531.08,643.93 C528.30,646.52 528.12,647.18 527.50,657.58 L 526.84 668.50 L 511.58 683.50 C503.18,691.75 488.59,706.57 479.16,716.43 L 469.43 726.59 L 462.00 734.16 L 462.00 761.33 L 462.01 788.50 L 469.75 793.24 L 477.50 797.99 L 477.77 770.58 L 478.03 743.17 L 492.27 729.91 C492.76,729.45 493.23,729.01 493.69,728.57 C501.84,720.97 504.86,717.97 506.12,715.61 C506.52,714.97 506.73,714.47 506.77,714.08 C506.79,713.97 506.80,713.86 506.81,713.76 C506.91,713.34 506.97,712.92 507.03,712.45 C507.29,710.40 508.00,708.33 508.97,706.47 C510.43,704.14 512.55,703.00 515.39,703.00 C518.74,703.00 523.40,706.90 524.65,710.29 C524.78,711.44 524.77,712.82 524.59,714.22 C523.26,718.25 518.56,721.00 512.50,721.00 C512.00,721.00 511.54,721.00 511.11,721.03 C510.75,720.93 510.27,720.99 509.66,721.22 C507.05,721.81 504.52,724.03 495.45,732.25 L 483.03 743.50 L 483.02 772.51 C483.00,801.51 483.00,801.52 485.25,802.96 C487.72,804.53 493.52,807.74 499.08,810.68 L 499.08 810.69 C505.27,813.97 511.16,816.93 511.78,816.96 C511.81,816.96 511.84,816.96 511.88,816.95 C511.89,816.95 511.91,816.96 511.92,816.96 C512.14,816.96 512.68,816.80 513.44,816.49 C514.85,815.97 516.93,815.05 519.01,814.00 C519.91,813.54 520.83,813.02 521.70,812.48 L 521.92 812.36 C530.65,807.65 541.13,801.40 552.23,794.38 C553.76,793.53 555.38,792.49 556.94,791.38 C579.92,776.63 604.83,759.08 622.20,745.10 C643.85,727.68 647.21,724.87 662.78,711.23 C690.01,687.37 726.08,649.89 736.50,634.62 L 740.50 628.76 L 741.00 462.13 C741.28,370.48 741.28,293.50 741.00,291.06 L 740.50 286.62 L 728.50 281.77 C717.86,277.47 630.93,245.07 595.00,232.01 C530.41,208.54 514.61,203.01 512.23,203.04 C511.96,203.05 511.39,203.16 510.59,203.36 C510.58,203.29 510.58,203.25 510.58,203.24 C510.45,203.12 506.15,204.53 499.91,206.70 C496.72,207.78 493.15,209.04 489.50,210.37 L 469.60 217.62 L 469.60 217.62 L 469.50 217.65 L 469.24 249.38 L 468.97 281.11 L 472.49 284.42 C475.52,287.29 476.00,288.37 476.00,292.37 C476.00,299.66 470.41,303.65 463.94,300.98 C459.90,299.30 458.00,296.35 458.00,291.73 C458.00,287.97 461.39,283.00 463.95,283.00 C464.66,283.00 465.00,272.75 465.00,251.50 C465.00,232.25 464.63,220.00 464.05,220.00 C462.49,220.00 432.60,231.15 431.25,232.24 C430.38,232.94 430.00,236.84 430.00,245.19 L 430.00 257.13 L 433.63 260.56 C437.04,263.77 437.23,264.28 436.73,268.70 C436.10,274.33 433.39,277.00 428.34,277.00 C423.24,277.00 420.00,273.35 420.00,267.58 C420.00,263.72 420.44,262.74 423.00,260.84 L 426.00 258.62 L 426.00 234.74 L 422.75 235.27 C417.95,236.05 400.68,242.98 399.35,244.67 C398.61,245.59 398.15,251.27 398.07,260.31 L 397.94 274.50 L 459.50 335.94 L 463.72 335.76 C469.30,335.52 474.00,339.64 474.00,344.76 C474.00,348.68 469.46,354.00 466.12,354.00 C460.16,354.00 455.70,349.07 456.14,342.96 C456.42,339.09 456.24,338.89 425.21,307.63 L 394.00 276.19 L 394.00 260.99 C394.00,249.26 393.71,245.89 392.75,246.23 C392.06,246.47 387.11,248.17 381.75,250.00 L 372.00 253.33 L 372.00 285.82 L 389.75 302.89 L 407.50 319.96 L 412.18 319.98 C418.00,320.01 421.00,323.14 421.00,329.18 C421.00,337.62 411.91,341.07 405.80,334.95 C403.00,332.16 402.81,331.52 403.38,327.16 L 404.01 322.41 L 386.01 305.45 L 368.00 288.50 L 368.00 272.25 C368.00,271.05 368.00,269.93 368.01,268.88 C368.03,260.86 368.04,257.36 366.51,256.45 C365.33,255.75 363.23,256.58 359.52,258.06 C358.89,258.31 358.22,258.58 357.50,258.86 L 350.50 261.59 L 349.50 349.50 L 340.38 360.26 L 331.26 371.02 L 330.64 377.76 C330.29,381.47 330.04,400.82 330.06,420.77 L 330.11 457.04 L 333.56 460.49 C336.36,463.30 337.00,464.69 337.00,468.04 C337.00,473.21 332.77,478.00 328.21,478.00 C324.72,478.00 320.23,474.74 318.90,471.22 C317.57,467.74 319.52,462.31 322.71,460.65 L 325.25 459.31 L 325.37 414.89 L 325.50 370.47 L 345.00 348.10 L 345.00 263.87 L 342.89 264.54 C341.73,264.90 338.02,266.19 334.64,267.40 L 328.50 269.60 L 328.00 305.63 L 327.50 341.67 L 313.75 355.10 L 300.00 368.52 L 300.00 466.89 L 302.91 468.61 C310.25,472.94 309.44,483.38 301.57,485.98 C297.71,487.25 295.48,486.61 291.75,483.17 C288.06,479.76 287.92,473.98 291.45,470.45 C292.80,469.10 294.38,468.00 294.95,468.00 C295.67,468.00 296.00,452.17 296.00,418.17 L 296.00 368.34 L 309.97 353.92 L 323.93 339.50 L 323.97 305.75 C323.99,284.24 323.64,272.00 323.02,272.00 C322.47,272.00 313.81,275.21 303.77,279.12 C293.72,283.04 284.94,286.46 284.25,286.73 C283.26,287.11 283.01,320.93 283.05,451.36 C283.08,541.64 283.44,618.51 283.85,622.19 C284.49,627.95 285.27,629.86 289.47,635.96 C292.15,639.85 298.41,647.64 303.38,653.27 C316.35,667.95 352.64,704.00 354.46,704.00 C355.75,704.00 356.00,702.22 356.00,692.84 L 356.00 681.68 L 328.50 654.18 C308.29,633.98 301.00,626.07 301.00,624.36 C301.00,622.67 299.94,621.50 297.12,620.06 C292.83,617.87 292.00,616.47 292.00,611.37 C292.00,602.85 304.15,598.72 308.71,605.69 C311.40,609.78 310.98,615.37 307.73,618.76 C306.23,620.33 305.00,622.27 305.00,623.08 C305.00,624.33 352.33,672.07 361.76,680.33 L 365.00 683.17 L 365.02 698.33 C365.02,706.68 365.36,713.95 365.77,714.51 C366.96,716.15 378.71,726.00 379.47,726.00 C379.85,726.00 380.01,715.76 379.82,703.25 C379.49,680.68 379.46,680.46 376.74,675.28 C375.23,672.41 374.00,669.12 374.00,667.97 C374.00,660.18 383.16,656.07 388.55,661.45 C392.20,665.11 392.16,670.58 388.42,676.05 C386.02,679.58 386.00,679.78 386.00,704.87 C386.00,719.62 386.41,730.90 386.99,731.98 C387.53,733.00 392.03,737.03 396.99,740.94 L 406.00 748.05 L 406.00 648.70 L 402.39 645.20 C399.11,642.01 398.83,641.31 399.33,637.60 C400.27,630.58 407.83,626.70 414.06,630.03 C419.67,633.04 420.18,642.15 414.95,646.24 L 411.98 648.56 L 412.24 701.00 L 412.50 753.44 L 421.87 760.22 C427.02,763.95 431.64,767.00 432.12,767.00 C432.60,767.00 433.00,755.95 433.00,742.44 L 433.00 717.89 L 447.25 702.89 C455.09,694.64 466.28,682.86 472.13,676.70 L 482.76 665.50 L 484.02 651.94 L 480.01 648.12 C476.94,645.21 476.00,643.55 476.00,641.08 C476.00,636.44 480.64,632.00 485.50,632.00 C490.61,632.00 495.00,636.42 495.00,641.55 C495.00,644.48 494.28,645.94 491.60,648.47 C488.50,651.39 488.14,652.35 487.49,659.28 C486.63,668.45 487.12,667.80 457.89,698.23 L 437.97 718.97 L 438.50 772.43 L 447.50 778.69 L 456.50 784.96 L 456.77 759.35 L 457.03 733.75 ZM 529.17 640.35 C532.97,636.90 530.42,631.00 525.13,631.00 C521.53,631.00 520.00,632.68 520.00,636.65 C520.00,641.63 525.36,643.79 529.17,640.35 ZM 408.20 332.80 C408.86,333.46 410.57,334.00 412.00,334.00 C415.44,334.00 417.00,332.28 417.00,328.50 C417.00,324.72 415.44,323.00 412.00,323.00 C408.56,323.00 407.00,324.72 407.00,328.50 C407.00,330.20 407.54,332.14 408.20,332.80 ZM 412.80 642.80 C414.50,641.10 414.29,636.43 412.43,634.57 C410.59,632.73 409.99,632.67 406.57,633.98 C404.52,634.75 404.00,635.63 404.00,638.28 C404.00,642.27 405.51,644.00 409.00,644.00 C410.43,644.00 412.14,643.46 412.80,642.80 ZM 379.20 671.80 C379.86,672.46 381.57,673.00 383.00,673.00 C384.43,673.00 386.14,672.46 386.80,671.80 C389.66,668.94 386.92,662.00 382.92,662.00 C378.86,662.00 376.26,668.86 379.20,671.80 ZM 511.57 715.43 C515.45,719.31 522.20,715.34 520.41,710.22 C519.68,708.12 518.71,707.43 516.17,707.18 C514.35,707.01 512.22,707.40 511.43,708.05 C509.54,709.63 509.61,713.47 511.57,715.43 ZM 461.57 348.43 C462.44,349.29 463.79,350.00 464.57,350.00 C466.64,350.00 470.00,346.33 470.00,344.07 C470.00,339.96 464.06,337.34 461.20,340.20 C459.50,341.90 459.71,346.57 461.57,348.43 ZM 301.80 480.80 C302.46,480.14 303.00,478.11 303.00,476.28 C303.00,470.06 294.93,469.47 293.39,475.57 C292.23,480.20 298.50,484.10 301.80,480.80 ZM 469.78 296.44 C474.07,293.44 471.93,287.00 466.64,287.00 C464.39,287.00 462.00,289.84 462.00,292.51 C462.00,294.53 465.17,298.00 467.00,298.00 C467.31,298.00 468.56,297.30 469.78,296.44 ZM 490.36 643.80 C491.08,642.66 491.10,641.19 490.44,639.30 C489.05,635.30 483.83,634.80 481.45,638.44 C479.88,640.84 479.88,641.16 481.45,643.56 C482.75,645.55 483.81,646.05 486.21,645.81 C487.91,645.64 489.78,644.74 490.36,643.80 ZM 331.43 472.43 C333.07,470.79 333.42,468.27 332.39,465.58 C331.99,464.52 330.53,464.00 328.00,464.00 C322.91,464.00 321.15,468.30 324.65,472.17 C326.69,474.42 329.34,474.52 331.43,472.43 ZM 424.75 271.92 C429.12,274.47 433.00,272.17 433.00,267.04 C433.00,264.28 428.48,262.46 425.28,263.92 C422.45,265.21 422.10,270.38 424.75,271.92 ZM 304.95 615.56 C306.53,613.65 305.91,608.96 303.90,607.70 C301.33,606.09 297.11,607.70 296.40,610.56 C295.20,615.34 301.88,619.26 304.95,615.56 Z" fill="rgb(64,149,184)"/>
<path d="M 0.00 512.00 L 0.00 0.00 L 512.00 0.00 L 1024.00 0.00 L 1024.00 512.00 L 1024.00 1024.00 L 512.00 1024.00 L 0.00 1024.00 L 0.00 512.00 ZM 529.88 879.80 C553.78,865.40 582.52,846.53 604.00,831.14 C630.46,812.18 660.58,789.13 669.00,781.40 C669.83,780.64 674.55,776.76 679.50,772.77 C684.45,768.79 690.50,763.57 692.94,761.19 C695.38,758.80 701.46,753.31 706.44,749.00 C717.25,739.63 747.94,708.73 761.10,693.95 C771.70,682.06 788.04,661.90 792.87,654.76 C794.64,652.15 797.19,647.65 798.53,644.76 L 800.98 639.50 L 800.99 440.41 L 801.00 241.32 L 798.47 240.17 C797.08,239.53 786.61,235.44 775.22,231.06 C763.82,226.69 743.92,218.99 731.00,213.97 C718.08,208.94 693.33,199.39 676.00,192.75 C658.67,186.10 637.53,177.98 629.00,174.70 C620.47,171.43 609.00,167.05 603.50,164.97 C598.00,162.89 587.42,158.85 580.00,155.99 C534.89,138.61 511.29,130.14 510.30,130.97 C509.06,132.01 497.38,136.55 457.50,151.51 C434.56,160.12 421.92,164.94 371.00,184.53 C363.02,187.60 346.60,193.87 334.50,198.46 C307.56,208.69 268.66,223.80 230.50,238.87 L 223.50 241.63 L 223.50 441.07 L 223.50 640.50 L 226.76 646.50 C228.55,649.80 232.15,655.26 234.76,658.64 C237.37,662.02 242.05,668.10 245.17,672.14 C271.59,706.41 323.07,756.67 366.07,790.16 C376.41,798.22 397.44,814.33 401.77,817.51 C403.27,818.61 407.07,821.42 410.21,823.76 C413.35,826.09 416.16,828.00 416.47,828.00 C416.77,828.00 420.28,830.41 424.26,833.35 C434.16,840.66 468.97,863.75 483.00,872.32 C489.33,876.18 498.10,881.55 502.50,884.24 C508.82,888.10 511.11,889.01 513.38,888.56 C514.97,888.25 522.39,884.31 529.88,879.80 ZM 511.57 715.43 C509.61,713.47 509.54,709.63 511.43,708.05 C512.22,707.40 514.35,707.01 516.17,707.18 C518.71,707.43 519.68,708.12 520.41,710.22 C522.20,715.34 515.45,719.31 511.57,715.43 ZM 379.20 671.80 C376.26,668.86 378.86,662.00 382.92,662.00 C386.92,662.00 389.66,668.94 386.80,671.80 C386.14,672.46 384.43,673.00 383.00,673.00 C381.57,673.00 379.86,672.46 379.20,671.80 ZM 352.35 607.49 C350.62,606.71 348.26,604.88 347.10,603.40 C345.16,600.93 345.00,599.48 345.00,584.43 C345.00,575.47 345.44,566.98 345.98,565.57 C346.51,564.16 348.42,562.10 350.23,561.00 C353.36,559.09 355.31,559.01 397.00,558.98 C422.99,558.96 442.31,558.54 445.00,557.93 C454.61,555.74 460.21,549.46 461.55,539.37 C462.35,533.30 460.97,527.93 457.01,521.67 C452.09,513.92 447.44,512.33 422.72,510.02 C397.81,507.69 391.16,506.23 379.27,500.45 C366.64,494.32 357.21,485.04 351.39,473.00 C344.99,459.75 343.54,453.47 343.54,439.00 C343.54,424.10 345.03,417.69 351.68,404.01 C358.85,389.23 371.05,378.35 386.57,372.89 C402.17,367.41 406.26,367.04 453.00,367.03 C476.92,367.03 498.19,367.30 500.25,367.64 L 504.00 368.26 L 504.00 392.57 L 504.00 416.88 L 456.25 417.25 C420.67,417.53 407.48,417.96 404.51,418.93 C393.10,422.64 387.50,439.99 394.40,450.28 C398.17,455.90 405.26,458.87 417.65,460.02 C447.42,462.77 451.29,463.47 465.20,468.65 C484.56,475.84 499.91,493.18 506.68,515.50 C508.10,520.20 508.50,524.87 508.50,537.00 C508.50,550.36 508.18,553.51 506.21,559.79 C501.90,573.50 498.21,579.89 489.55,588.60 C480.61,597.60 472.68,602.07 458.38,606.16 C450.76,608.34 448.92,608.42 403.00,608.65 C363.94,608.85 354.94,608.64 352.35,607.49 ZM 526.00 607.17 C525.34,606.95 525.00,566.53 525.00,487.42 L 525.00 368.00 L 550.00 368.00 L 575.00 368.00 L 575.04 418.25 L 575.08 468.50 L 578.10 465.00 C579.77,463.08 586.91,453.85 593.98,444.50 C610.88,422.14 627.92,399.71 632.68,393.56 C634.78,390.84 638.91,385.44 641.86,381.56 C644.80,377.68 648.37,373.04 649.79,371.25 L 652.36 368.00 L 681.67 368.00 L 710.98 368.00 L 688.79 396.75 C676.58,412.56 662.19,431.22 656.80,438.21 C651.41,445.21 647.00,451.23 647.00,451.60 C647.00,451.98 646.38,452.78 645.63,453.39 C643.24,455.32 623.00,482.62 623.00,483.91 C623.00,485.50 626.82,491.10 640.47,509.50 C646.59,517.75 654.50,528.49 658.05,533.36 C677.35,559.85 691.38,578.63 692.59,579.60 C693.35,580.20 693.69,580.98 693.34,581.33 C693.00,581.67 693.45,582.24 694.36,582.58 C695.26,582.93 696.00,583.74 696.00,584.38 C696.00,585.03 697.35,587.03 699.00,588.84 C700.65,590.65 702.00,592.55 702.00,593.06 C702.00,593.58 702.45,594.00 703.00,594.00 C703.55,594.00 704.00,594.48 704.00,595.07 C704.00,596.28 708.68,602.90 710.79,604.68 C714.08,607.45 710.51,607.80 683.25,607.39 C667.99,607.16 655.00,606.98 654.38,606.99 C653.33,607.00 646.83,598.58 634.00,580.59 C630.97,576.34 624.90,568.01 620.50,562.06 C616.10,556.12 609.09,546.58 604.92,540.88 C583.13,511.04 577.68,504.00 576.40,504.00 C575.22,504.00 575.00,512.00 575.00,555.50 L 575.00 607.00 L 566.75 607.16 C550.39,607.49 526.99,607.49 526.00,607.17 ZM 461.57 348.43 C459.71,346.57 459.50,341.90 461.20,340.20 C464.06,337.34 470.00,339.96 470.00,344.07 C470.00,346.33 466.64,350.00 464.57,350.00 C463.79,350.00 462.44,349.29 461.57,348.43 ZM 408.20 332.80 C407.54,332.14 407.00,330.20 407.00,328.50 C407.00,324.72 408.56,323.00 412.00,323.00 C415.44,323.00 417.00,324.72 417.00,328.50 C417.00,332.28 415.44,334.00 412.00,334.00 C410.57,334.00 408.86,333.46 408.20,332.80 ZM 424.75 271.92 C422.10,270.38 422.45,265.21 425.28,263.92 C428.48,262.46 433.00,264.28 433.00,267.04 C433.00,272.17 429.12,274.47 424.75,271.92 Z" fill="rgb(234,235,234)"/>
</g>
</svg>